<svg xmlns="http://www.w3.org/2000/svg" width="918.34" height="564.631" viewBox="0 0 918.34 564.631">
  <g id="State-Map" transform="translate(-29.196 -19.436)">
    <path id="Path_179" data-name="Path 179" d="M942.177,292.561l-1.794-1.761-1.19-.663,1.394-1.953,2.79,1.881Z" transform="translate(-139.38 -37.888)" fill="#17368c" stroke="#fff" stroke-linejoin="round" stroke-width="2.34"/>
    <path id="Path_180" data-name="Path 180" d="M965.022,266.3l.355-2.073.363-1.633-1.568.384-1.56.451-2.13,1.7,1.661,4.87,2.185,5.464,2.03,9.366,1.561,6.089,4.84-.155,5.931-1.141L976.5,282.5l-.937.468-3.435-2.342-1.717-4.527-1.873-3.435-3.039-2.772-.834-2.026Z" transform="translate(-143.098 -33.378)" fill="#17368c" stroke="#fff" stroke-linejoin="round" stroke-width="2.34"/>
    <path id="Path_181" data-name="Path 181" d="M969.59,220.5l-2.242,2.64v2.967l-1.873,2.967-.156,1.561,1.25,1.249-.156,2.342-2.185,1.093.78,2.654.156,1.093,2.654.312.937,2.5,3.434,2.342,2.342,1.561v.781l-2.881,2.6-1.562,2.185L968.681,254l-2.185,1.249-.446,1.547-.235,1.171-.588,2.518,1.055,2.167,3.123,2.81,4.683,2.185,3.9.625.155,1.4-.78.937.313,2.655h.78l2.029-2.342.781-4.684,2.654-3.9,2.967-6.244,1.092-5.307-.624-1.093-.156-9.054-1.562-3.279-1.092.78-2.655.312-.468-.468,1.093-.937,2.03-1.872.061-1.056-.372-3.316.554-2.654-.114-1.9-2.711-1.691-4.917-1.136-4-1.334Z" transform="translate(-143.751 -25.928)" fill="#003865" stroke="#fff" stroke-linejoin="round" stroke-width="2.34"/>
    <path id="Path_182" data-name="Path 182" d="M951.073,298.863l1.093,2.42.156,1.718,1.093,1.8s.858-.859.858-1.171-.7-2.966-.7-2.966l-.7-2.265Zm15.422-8.718-5.8,1.163-4.967.113-1.78-6.685-1.859-8.855L949.6,269.9l-1.244-4.247-7.249,1.566-14.366,2.726-36.167,7.292,1.093,4.84.937,5.464.312-.312,2.029-2.342,2.186-2.528,2.342-.594,1.405-1.405,1.717-2.5,1.249.625,2.81-.313,2.5-2.029,1.937-1.4,1.783-.467,1.588,1.09,2.81,1.405,1.873,1.718,1.17,1.482,3.982,1.64v2.81l5.307,1.249,1.106.523,1.363-1.958,2.783,1.9-1.234,2.4-.739,3.848-1.717,2.5v2.03l.624,1.717,4.89,1.31,4.163-.06,2.967.937,2.03.312.937-2.029-1.405-2.03v-1.717l-2.342-2.03L941,288.016l1.249-5.152-.155-2.03-1.25-1.249s1.405-1.562,1.405-2.185a9.832,9.832,0,0,1,.468-2.03l1.874-1.249,1.873-1.562.468.937-1.405,1.562-1.249,3.59.312,1.093,1.718.312.468,5.308-2.03.937.312,3.435.468-.156,1.093-1.873,1.561,1.718-1.561,1.249-.312,3.279,2.5,3.279,3.747.468,1.562-.781,3.125,4.04,1.311.519,6.426-2.7,1.939-3.886Z" transform="translate(-130.891 -33.938)" fill="#003865" stroke="#fff" stroke-linejoin="round" stroke-width="2.34"/>
    <path id="Path_183" data-name="Path 183" d="M1021.907,205.875l-3.569-14.443,6.054-1.782,2.117,1.861,3.193,4.173,2.6,4.251-2.9,1.569-1.25-.156-1.092,1.717-2.342,1.873Z" transform="translate(-153.2 -20.404)" fill="#003865" stroke="#fff" stroke-linejoin="round" stroke-width="2.34"/>
    <path id="Path_184" data-name="Path 184" d="M985.615,169.1l.306-5.163-2.792-10.414-.625-.312-2.809-1.25.78-2.809-.78-2.03-2.607-4.481.937-3.747-.781-5-2.342-6.244-.777-4.754,25.513-6.5.3,5.332,1.85,2.649v3.9l-3.58,4.885-2.5,1.1-.011,1.082,1.265,1.468-.3,7.82-.588,8.94-.22,5.366.937,1.25-.156,4.413-.468,1.632.98.7-7.183,1.455Z" transform="translate(-145.48 -7.416)" fill="#003865" stroke="#fff" stroke-linejoin="round" stroke-width="2.34"/>
    <path id="Path_185" data-name="Path 185" d="M1016.607,206.23l-3.551-14.369-4.557.888L988,197.33l.966,3.115,1.405,7.025.171,8.659-1.178,2.1,1.855,1.866,4.125-3.772,3.435-3.122,1.874-2.029.78.624,2.654-1.405,5-1.092Z" transform="translate(-147.903 -20.809)" fill="#003865" stroke="#fff" stroke-linejoin="round" stroke-width="2.34"/>
    <path id="Path_186" data-name="Path 186" d="M1041.139,196.387l2.1-.662.442-1.656.993.111.994,2.208-1.214.441-3.754.111Zm-9.052.773,2.208-2.539h1.546l1.766,1.435-2.319.994-2.1.994Zm-33.605-21.234,17.042-4.482,2.185-.624,1.848-2.7,3.609-1.606,2.79,4.261-2.342,5-.312,1.405,1.873,2.5,1.092-.78h1.718l2.185,2.5,3.747,5.777,3.434.468,2.186-.937,1.717-1.717-.781-2.655-2.029-1.561-1.405.78-.937-1.249.468-.468,2.03-.156,1.717.78,1.874,2.342.937,2.81.312,2.342-4.059,1.405-3.747,1.873-3.747,4.371L1030.015,197v-.937l2.342-1.405.468-1.717-.78-2.966-2.81,1.405-.78,1.405.468,2.185-2,.966-2.653-4.372L1021,187.352l-2-1.75-6.31,1.812-4.917,1.015L987.8,192.864l-.645-4.6.625-10.226,4.142-.858Z" transform="translate(-147.756 -16.308)" fill="#003865" stroke="#fff" stroke-linejoin="round" stroke-width="2.34"/>
    <path id="Path_187" data-name="Path 187" d="M1025.251,156.377l.839-1.04,1.053-3.178-2.456-.882-.468-2.967-3.747-1.092-.312-2.655-7.026-22.636-4.443-14.045-.866,0-.625,1.561-.625-.468-.937-.937-1.4,1.873-.047,4.859.3,5.473,1.873,2.655v3.9l-3.591,4.889-2.5,1.092v1.093l1.092,1.717v8.274l-.78,8.9-.156,4.684.936,1.249-.155,4.372-.468,1.717.936.685,16.211-4.272,2.1-.582,1.781-2.678Z" transform="translate(-150.046 -5.582)" fill="#003865" stroke="#fff" stroke-linejoin="round" stroke-width="2.34"/>
    <path id="Path_188" data-name="Path 188" d="M144.185,399.573l3.806-.471,1.435-1.943.525-2.84-3.429-.57-.5-.645.462-1.963-.154-.569,1.856-.6,2.939-2.736.562-4.824,1.332-3.285,1.877-2.092,3.4-1.535,1.6-1.55.067-2.036-.96-.56-.988-1.036-1.115-5.648-2.593-4.664.547-3.385-2.337-.994-66.693-100.6,18.254-65.283L39.3,174.58l-1.455,4.571-.156,7.182-5,11.4-2.966,2.5-.312,1.092-1.717.78-1.4,4.06-.781,3.122,2.654,4.059,1.561,4.059,1.093,3.435-.312,6.244-1.717,2.967-.625,5.619-.937,3.591L28.943,243l2.654,4.371,2.186,4.684,1.249,3.9-.312,3.123-.312.468v2.029l5.464,6.089-.468,2.342-.625,2.185-.624,1.873.156,7.962,2.029,3.591,1.873,2.5,2.654.468.937,2.655-1.093,3.434-2.03,1.562H41.588l-.781,3.747.468,2.809L44.4,307.01l1.561,5.152,1.405,4.527,1.249,2.967,3.278,5.62,1.405,2.5.468,2.81,1.561.937v2.342l-.781,1.873L52.828,342.6l-.468,1.873,2.342,2.654,4.059.468,4.371,1.717,3.747,2.03h2.81l2.81,2.966L75,359l1.093,2.185,3.747,2.03,4.684.78,1.4,2.03.624,3.122-1.4.625.312.937,3.122.78,2.654.156,3.051-1.629,3.747,4.059.781,2.185,2.5,4.059.312,3.123v9.054l.468,1.717,9.679,1.405,19.046,2.654ZM59.073,357.356l1.249,1.483-.156,1.25-3.122-.078-.546-1.171-.624-1.405Zm1.873,0,1.171-.624,3.435,2.029,2.966,1.171-.859.625-4.371-.235-1.561-1.562ZM80.93,376.48l1.717,2.264.781.937,1.483.547.546-1.405-.937-1.717-2.576-1.952-1.015.155Zm-1.405,8.352,1.717,3.044,1.171,1.873-1.4.235-1.249-1.171a8.566,8.566,0,0,1-.7-1.8v-2.107Z" transform="translate(20.162 -18.032)" fill="#003865" stroke="#fff" stroke-linejoin="round" stroke-width="2.34"/>
    <path id="Path_189" data-name="Path 189" d="M112.226,8.906l4.215,1.405,9.367,2.654,8.274,1.873L153.441,20.3l22.168,5.464,14.7,3.1-13.165,61.4-12.018-3.4-14.976-3.448-14.707.032-.44-1.3-5.407,2.1-4.437-.711-2.073-1.53-1.269.635-4.573-.135-1.641-1.3-5.082-2.04-.709.142-4.239-1.472-1.828,1.755-6.051-.289-5.722-3.984.752-.9.117-7.414-2.2-3.708-3.974-.586-.654-2.424-2.2-.441-3.433,1.188-2.186-3.109.312-2.81,2.654-.312,1.561-3.9-2.5-1.093.156-3.591,4.215-.624-2.654-2.654-1.4-6.869.624-2.81V25.61l-1.717-3.122,2.186-9.055,2.03.468L86,16.712l2.654,2.5,3.122,1.873,4.371,2.03,2.966.624,2.81,1.405,3.278.937,2.186-.156V23.581l1.249-1.093,2.03-1.249.312,1.093.312,1.717-2.185.468-.312,2.03,1.717,1.405,1.093,2.342.624,1.873,1.405-.156.156-1.249-.937-1.249-.468-3.122.78-1.717-.624-1.405V21.083l1.717-3.435-1.093-2.5-2.342-4.683.313-.781Zm-9.132,5.774,1.951-.156.468,1.327L107,14.289h2.264l.781,1.483-1.483,1.639.624.781-.7,1.951-1.327.39s-.859.078-.859-.234a17.824,17.824,0,0,1,1.405-2.5l-1.639-.546-.312,1.405-.7.624L103.562,17.1Z" transform="translate(10.963 11.7)" fill="#003865" stroke="#fff" stroke-linejoin="round" stroke-width="2.34"/>
    <path id="Path_190" data-name="Path 190" d="M150.926,181.848l8.546-33.608,1.014-4.084,2.274-5.431-.595-1.123-2.429-.044-1.237-1.613.441-1.415.486-3.135,4.306-5.3,1.766-1.062,1.1-1.1,1.435-3.443,3.908-5.476,3.443-3.73.221-3.333-3.157-2.384-1.722-4.483L158.5,97.594l-14.571-3.422-14.9.11-.441-1.325-5.3,1.987-4.306-.552-2.318-1.546-1.214.662-4.526-.221-1.656-1.325-5.078-1.987-.773.11-4.195-1.435-1.877,1.766-5.961-.331-5.74-3.974.662-.773.221-7.507L84.32,74.08l-3.974-.552L79.683,71.1l-2.273-.45-5.6,1.988-2.186,6.245L66.5,88.561,63.38,94.806l-4.84,13.582L52.3,121.5,44.49,133.679l-1.873,2.81-.781,8.274.373,11.666Z" transform="translate(17.311 0.919)" fill="#003865" stroke="#fff" stroke-linejoin="round" stroke-width="2.34"/>
    <path id="Path_191" data-name="Path 191" d="M206.882,212.9l-22.828,124.4-1.769.337-1.519,2.324-2.292.01-1.422-2.649-2.529-.366-.744-1.069-1-.052-2.684,1.588-.3,6.552-.35,5.58-.337,8.3-1.4,2.018-2.355-1.037L98.644,258.211l18.338-65.266Z" transform="translate(7.392 -21.198)" fill="#003865" stroke="#fff" stroke-linejoin="round" stroke-width="2.34"/>
    <path id="Path_192" data-name="Path 192" d="M168.943,430.418l-2.537,2.084-.312,1.405.468.937,18.265,10.3,11.709,7.337,14.206,8.274,16.235,9.679,11.866,2.342,24.1,2.612L279.6,360.352,198.74,348.843l-2.987,15.85-1.551.014-1.656,2.539-2.428-.11-1.215-2.649-2.649-.331-.884-1.1h-.883l-.884.551-1.876.994-.11,6.734-.221,1.656-.552,12.143-1.435,2.1-.551,3.2,2.649,4.746,1.215,5.63.773.994.994.551-.111,2.209-1.545,1.324-3.311,1.656-1.877,1.876-1.435,3.533-.551,4.747-2.76,2.649-1.987.663.131.8-.441,1.655.441.774,3.533.551-.551,2.65-1.436,2.1Z" transform="translate(-4.386 -48.936)" fill="#003865" stroke="#fff" stroke-linejoin="round" stroke-width="2.34"/>
    <path id="Path_193" data-name="Path 193" d="M286.5,337.405,205.626,325.94l19.882-108.682,45.176,8.446L269.25,235.97l-2.232,12.721,7.54.9L290.4,251.33l7.929.827Z" transform="translate(-11.289 -25.454)" fill="#003865" stroke="#fff" stroke-linejoin="round" stroke-width="2.34"/>
    <path id="Path_194" data-name="Path 194" d="M173.72,176.226l8.47-34.013,1.324-4.084,2.429-5.74-1.214-2.209-2.429.111-.773-.994.441-1.1.331-2.981,4.305-5.3,1.766-.441,1.1-1.1.552-3.091.883-.662,3.754-5.629,3.753-4.2.221-3.643-3.311-2.539-1.483-4.25L207,33.19l13.054,2.441L215.8,56.281l3.438,7.229-1.527,4.5,1.9,4.482,3.03,1.212,3.7,9.229,3.393,4.285.49,1.1,3.226,1.1.356,2.025-6.732,16.78-.159,2.478,2.541,3.208.874-.047,4.743-2.921.655-1.057,1.508.635-.268,5.17,2.645,12.151,3.784,3.069,1.623,2.091-.692,3.944,1.029,2.712,1.026,1.054,2.394-2.271,2.751.047,2.819,1.29,2.685-.659,3.664-.155,3.842,1.545,2.649-.286.48-2.934,2.832-.738,1.217,1.463.426,2.844,1.375,1.172-8.1,51.769S180.474,177.679,173.72,176.226Z" transform="translate(-5.718 7.46)" fill="#003865" stroke="#fff" stroke-linejoin="round" stroke-width="2.34"/>
    <path id="Path_195" data-name="Path 195" d="M419.979,355.31l4.736-83.364-109.5-12.21-11.8,84.923Z" transform="translate(-28.365 -32.98)" fill="#003865" stroke="#fff" stroke-linejoin="round" stroke-width="2.34"/>
    <path id="Path_196" data-name="Path 196" d="M395.782,61.328l-29.623-2.711L337.9,55.182l-28.257-3.9-31.223-5.152-17.8-3.278-31.6-6.695L224.7,56.769l3.311,7.286-1.324,4.416,1.766,4.416,3.09,1.325L236,84.611l2.6,3.068.442,1.1,3.311,1.1.441,1.987-6.844,17V111.3l2.429,3.091h.883l4.636-2.87.662-1.1,1.545.662-.22,5.078,2.649,12.143,2.87,2.429.884.662,1.766,2.208-.441,3.311.662,3.312,1.1.883L257.6,138.9h2.649l3.091,1.545,2.429-.883h3.974l3.533,1.545,2.649-.441.442-2.87,2.87-.662,1.325,1.325.441,3.09,1.377.806L284.2,131.7l103.084,12.968Z" transform="translate(-14.619 6.942)" fill="#003865" stroke="#fff" stroke-linejoin="round" stroke-width="2.34"/>
    <path id="Path_197" data-name="Path 197" d="M396.956,164.884l-103.082-13-13.6,85.424,109.379,13.119Z" transform="translate(-24.324 -13.772)" fill="#003865" stroke="#fff" stroke-linejoin="round" stroke-width="2.34"/>
    <path id="Path_198" data-name="Path 198" d="M533.021,136.144,532.427,128l-1.62-6.582-1.826-12.577L528.54,98.23l-1.68-2.972-1.7-5.016.03-10.086.6-3.693-1.771-5.28-27.66-.545-17.953-.624-25.6-1.249L430.649,66.7,423.9,131.577l53.048,3.229Z" transform="translate(-49.402 1.608)" fill="#003865" stroke="#fff" stroke-linejoin="round" stroke-width="2.34"/>
    <path id="Path_199" data-name="Path 199" d="M533.019,222.4l-.046-.561-2.8-4.68,1.8-4.55,1.442-5.684-2.687-2.009-.372-2.649.765-2.467,3.08.014-.12-4.834-.322-29.139-.6-3.639-3.932-3.217-.948-1.619-.061-1.554,1.953-1.478,1.479-1.608.237-2.566-56.259-1.546-52.919-3.331-5.142,61.507,14.09.872,19.266,1.165,17.134.9,22.961,1.258,11.571-.409,1.9,2.168,5.016,3.141.738.7,4.386-1.4,6.316-.594,1.617,1.29,4.061,1.541,2.844,1.58.385,1.433,1,2.164Z" transform="translate(-48.297 -12.574)" fill="#003865" stroke="#fff" stroke-linejoin="round" stroke-width="2.34"/>
    <path id="Path_200" data-name="Path 200" d="M541.453,270.812l3.119,6.778-.124,2.224,3.34,5.306,2.626,3.044h-4.876l-41.992-.906-39.388-.86-21.489-.757,1.036-20.6-31.21-2.821,4.2-42.5,15.013.994,19.429,1.1,17.22,1.1,22.961,1.1,10.376-.442,1.987,2.209,4.636,2.87,1.1.883,4.2-1.325,3.754-.441,2.649-.22,1.766,1.324,3.918,1.546,2.87,1.545.442,1.545.883,1.987h1.766l.771.044.863,4.521,2.821,8.178.552,3.628,2.437,3.645.55,4.939,1.553,4.095Z" transform="translate(-47.412 -25.812)" fill="#003865" stroke="#fff" stroke-linejoin="round" stroke-width="2.34"/>
    <path id="Path_201" data-name="Path 201" d="M568.092,365.6l-12.186.2-44.508-.442-43.029-1.986-23.785-1.215,3.76-62.379,21.326.653,38.907.812,42.782.954h4.92l2.11,2.088,1.948-.02,1.585.977-.061,2.906-1.766,1.667-.321,2.155,1.78,3.285,2.851,3.085,2.248,1.56,1.255,10.855Z" transform="translate(-53.014 -40.051)" fill="#003865" stroke="#fff" stroke-linejoin="round" stroke-width="2.34"/>
    <path id="Path_202" data-name="Path 202" d="M327.744,472.554l-.749-4.585,8.348.507,29.137,2.845,26.333,1.632,2.139-18.065,3.725-53.96,1.678-18.724,1.518.124.8-10.78L300.232,361.276l-16.9,116.3,14.931,1.921,1.249-9.679Z" transform="translate(-24.858 -51.13)" fill="#003865" stroke="#fff" stroke-linejoin="round" stroke-width="2.34"/>
    <path id="Path_203" data-name="Path 203" d="M407.8,386.76l21.913,1.049,30.027,1.1-2.255,22.65-.287,17.531.066,2.011,4.2,3.687,1.919,1.4,1.143-.54.361-1.756,1.1,1.742,2.039.042,0-1.4,1.613.935,1.1.395-.347,3.831,3.948.091,2.826,1.156,3.818.507,2.3,2.008,2.051-2,3.6.594,2.145,3.114,1.038.31-.155,1.9,2.138.765,2.25-1.984,2.06.594,2.153.034.9,2.351,6.112,2.042,1.538-.741,1.438-4.035h.329l.875.079,1.187,2,3.8.642,3.223,1.084,3.308,1.155,1.777-.942.69-2.429,4.3.042,1.747.9,2.7-2.035,1.066.042.822,1.551h3.916l1.467-1.959,1.8.393,1.879,2.321,3.4,1.975,2.76.781,1.462.773,2.363,1.93,2.939-1.282,2.6,1.1.545,5.9-.039,9.369.663,9.207.678,3.481,2.583,4.268.867,4.781,4.071,5.348.189,3.036.721.759-.7,8.093-2.774,4.835,1.48,2.079-.608,2.258-.647,7.15-1.452,3.224.285,3.382-5.471,1.532-9.524,4.371-.937,1.873-2.5,1.874-2.03,1.405-1.249.78-5.464,5.152-2.654,2.03-5.152,3.122-5.464,2.342-6.089,3.279-1.717,1.405-5.62,3.434-3.278.625-3.747,5.308-3.9.313-.937,1.872,2.185,1.873-1.405,5.308-1.249,4.371-1.093,3.747-.78,4.372.78,2.342,1.717,6.713.937,5.932,1.718,2.654-.937,1.405-2.967,1.873-5.464-3.747-5.307-1.092-1.25.468-3.122-.625-4.059-2.967-5-1.092-7.337-3.279-2.03-3.747-1.249-6.244-3.122-1.873-.625-2.185.625-.625.312-3.279-1.249-.625-.625-.937,1.249-4.214-1.561-2.186-3.123-1.249-3.278-4.215-3.435-6.4-4.059-2.5.156-1.873-5.152-11.866-.781-4.059-1.717-1.874-.155-1.405-5.777-5.151-2.5-2.967v-1.093l-2.5-2.029-6.557-1.093-7.181-.624-2.967-2.186-4.371,1.718-3.435,1.405-2.185,3.122-.937,3.591-4.215,5.932-2.342,2.342-2.5-.937-1.718-1.093-1.873-.624-3.747-2.186v-.624l-1.718-1.873-5-2.03-7.181-7.493-2.185-4.527v-7.807l-3.123-6.244-.468-2.654-1.561-.937-1.093-2.03-4.839-2.029-1.25-1.562-6.869-7.649-1.249-3.122-4.527-2.186-1.405-4.215-2.5-2.809L337,476.913l-.628-4.518,7.728.662,28.039,2.649,28.039,1.546,2.157-18.794,3.753-53.65,1.546-18.1,1.324.028m95.633,221.786-.547-6.869-2.654-6.947-.547-6.791,1.483-7.962,3.2-6.635,3.356-5.229,3.045-3.435.625.235-4.605,6.4-4.215,6.323-1.952,6.4-.312,5,.859,5.932,2.5,6.947.468,5,.156,1.405Z" transform="translate(-34.12 -56.269)" fill="#ec712f" stroke="#fff" stroke-linejoin="round" stroke-width="2.34"/>
    <path id="Path_204" data-name="Path 204" d="M441.413,375.1,425.3,373.871l-.85,10.577,19.763,1.116,30.957,1.259-2.255,23.581-.441,17.22.22,1.546,4.2,3.533,1.987,1.1.662-.221.662-1.987,1.324,1.766h1.987v-1.324l2.649,1.324-.441,3.754,3.974.221,2.429,1.1,3.974.663,2.429,1.766,2.209-1.987,3.311.662,2.429,3.311h.883v2.208l2.208.662,2.209-2.208,1.766.662h2.428l.884,2.429,6.085,2.008,1.325-.662,1.766-3.974h1.1l1.1,1.986,3.974.662,3.533,1.325,2.87.883,1.766-.883.662-2.429h4.195l1.987.884,2.649-1.987h1.1l.662,1.545h3.974l1.546-1.986,1.766.441,1.986,2.429L564,448.621l3.091.883,1.874,1.081-.376-35.94-1.325-10.6-.155-8.568-1.391-6.314-.751-6.933-.066-3.686-11.721.308-44.818-.441-43.494-1.987Z" transform="translate(-49.499 -53.261)" fill="#003865" stroke="#fff" stroke-linejoin="round" stroke-width="2.34"/>
    <path id="Path_205" data-name="Path 205" d="M554.162,135.289l-.441-8.169-1.766-7.065-1.766-13.026-.442-9.494-1.766-3.312-1.545-4.857V79.432l.662-3.753-1.758-5.265,29.1.034.313-7.962.624-.156,2.186.468,1.872.781.781,5.308,1.405,5.932,1.561,1.561h4.684l.312,1.4,6.089.312v2.03h4.684l.312-1.249,1.093-1.093,2.185-.624,1.25.937H606.6l3.747,2.5,5.152,2.342,2.342.468.468-.937L619.711,82l.468,2.81,2.5,1.249.468-.468,1.25.156v2.03l2.5.937h2.967l1.561-.781,3.123-3.122,2.5-.468.78,1.717.468,1.249h.937l.937-.781,8.587-.312,1.717,2.966h.625l.689-1.047,4.288-.358-.591,2.2-3.8,1.774-8.928,3.922-4.611,1.938-2.967,2.5-2.342,3.435-2.185,3.747-1.717.78-4.372,4.84-1.249.155-4.18,2.662-2.379,3.1-.22,3.083.091,7.767-1.329,1.631-4.907,3.631-2.154,5.777L611,142.871l.657,3.116-1.791,3.128.165,3.619.356,6.5,2.924,2.9h3.215l1.826,3.026,3.263.486,3.727,5.477,6.845,3.975,2.07,2.777.648,6.218L556.475,185.2l-.326-34.453-.441-2.87-3.974-3.311-1.1-1.766V141.25l1.986-1.545,1.325-1.325Z" transform="translate(-70.608 2.371)" fill="#003865" stroke="#fff" stroke-linejoin="round" stroke-width="2.34"/>
    <path id="Path_206" data-name="Path 206" d="M646.4,229.389l.255,2.69,2.148.558.921,1.183.483,1.791,3.662,3.244.662,2.31-.651,3.307-1.528,3.121-.773,2.648-2.1,1.547-1.657.552-5.388,1.8-1.343,3.717.7,1.325,1.778,1.625-.273,3.9-1.7,1.485-.746,1.587.123,2.681-1.821.441-1.569,1.067-.269,1.307.269,2.042-1.5,1.078-2.386-3.026L632.488,271l-63.481,2.429-.886.159-1.983-4.361-.22-6.4-1.546-3.974-.663-5.079-2.208-3.533-.883-4.636-2.65-7.285-1.1-5.189-1.325-2.1-1.545-2.649,1.887-4.678,1.325-5.52-2.65-1.986-.441-2.65.884-2.428h1.655l79.819-1.226.805,4.04,2.176,1.507.247,1.374-1.959,3.274.183,3.1,2.429,3.668,2.44,1.25,2.973.486Z" transform="translate(-72.119 -24.06)" fill="#003865" stroke="#fff" stroke-linejoin="round" stroke-width="2.34"/>
    <path id="Path_207" data-name="Path 207" d="M726.351,516.966l-.245,1.213h-5L719.7,517.4l-2.029-.312-6.557,1.873-1.717-.78-2.5,4.059-1.064.751-1.086-2.4-1.1-3.754-3.311-3.09,1.1-5.355-.663-.883-1.766.22-7.646.844-23.705.36-.743-2.149.843-8.09,3.01-5.478,5.048-8.831-.431-2.349,1.195-.634.421-1.853-2.239-2.008-.111-2.069-1.772-3.98-.105-5.758,1.281-2.4-.215-3.3-1.709-2.977,1.475-1.431-1.517-2.414.441-1.6,1.524-6.3,2.4-1.967-.62-2.286,3.532-5.12,2.735-1.31-.213-1.619-.278-1.623,2.777-5.376,2.266-1.19.146-.862,36.063-3.748.179,6.067.156,16.08-.78,29.974-.156,13.583,2.654,18.109Z" transform="translate(-91.837 -61.588)" fill="#003865" stroke="#fff" stroke-linejoin="round" stroke-width="2.34"/>
    <path id="Path_208" data-name="Path 208" d="M693.474,526.33l-3.172-3.057.975-5.311-.638-.862-8.944.972-24.17.443-.661-2.312.882-8.166,3.2-5.742,4.858-8.393-.554-2.316,1.213-.658.443-1.885-2.208-1.985-.108-1.876-1.767-4.2-.142-6.122-53.571.892L609.14,485l.662,9.051.662,3.754,2.429,3.974.883,4.857,4.195,5.3.221,3.09.662.662-.662,8.169-2.87,4.857,1.545,1.987-.662,2.428-.662,7.065-1.324,3.091.118,3.493,4.526-1.469,11.7.2,9.991,3.435,6.245,1.093,3.59-1.405,3.122,1.092,3.122.937.781-2.029-3.123-1.093-2.5.468-2.654-1.562s.155-1.249.78-1.405,2.966-.937,2.966-.937l1.718,1.405,1.717-.937,3.122.625,1.405,2.342.312,2.185,4.372.313,1.717,1.717-.78,1.561-1.249.781,1.561,1.561,8.119,3.435,3.434-1.249.937-2.342,2.5-.625,1.717-1.405,1.249.937.78,2.81-2.185.78.625.625,3.279-1.249,2.185-3.279.78-.468-2.029-.313.78-1.561-.156-1.405,2.03-.468,1.093-1.249.624.78s-.155,2.966.625,2.966,4.059.625,4.059.625l3.9,1.873.937,1.405h2.81l1.093.937,2.185-2.967v-1.405H706.9l-3.279-2.654-5.62-.78-3.122-2.185,1.093-2.655,2.185.313.156-.625-1.718-.937v-.468h3.123l1.717-2.966-1.249-1.874-.313-2.655-1.405.156-1.873,2.03-.624,2.5-2.967-.624-.937-1.718,1.717-1.873,1.839-3.327-1.025-2.329Z" transform="translate(-81.744 -71.261)" fill="#003865" stroke="#fff" stroke-linejoin="round" stroke-width="2.34"/>
    <path id="Path_209" data-name="Path 209" d="M737.762,517.263l-1.439-13.831-2.654-18.109.156-13.583.781-29.974-.156-16.08.159-6.2,42.959-3.495-.143,2.107.156,2.03.625,3.279,3.279,7.649,2.342,9.523,1.405,5.932,1.561,4.684,1.405,6.714,2.03,6.088,2.5,3.279.468,3.279,1.873.78.156,2.03-1.717,4.684-.468,3.122-.156,1.873,1.562,4.215.312,5.152-.78,2.342.624.78,1.405.78.317,2.79-5.405-.342-6.557.625-24.666,2.81-10.055,1.359-.213,2.778,1.717,1.717,2.5,1.873.56,7.664-5.352,2.485-2.654-.313,2.654-1.874v-.937l-2.966-5.776-2.185-.625-1.405,4.215-1.25,2.654-.624-.155Z" transform="translate(-103.493 -60.84)" fill="#003865" stroke="#fff" stroke-linejoin="round" stroke-width="2.34"/>
    <path id="Path_210" data-name="Path 210" d="M823.1,339.546l-2.214,2.319-3.455,3.857L812.672,351l-1.173,1.657-.061,2.029-4.23,2.091-5.464,3.278-6.984,1.737-50.089,4.731-15.218,1.717-4.463.5-3.736-.027-.219,4.076-7.9.139-6.714.625-7.713-.058,1.167-1.275,2.413-1.488.221-3.091.883-1.766-1.551-2.452.773-1.842,2.186-1.717,2.029-.625,2.654,1.25,3.435,1.249,1.093-.312.156-2.186-1.249-2.342.312-2.185,1.874-1.405,2.5-.624,1.561-.625-.78-1.717-.625-1.873,1.455-.962c0-.036,1.211-3.4,1.2-3.533l2.949-1.428,5.136-.936,4.34-.468,1.345,1.571,1.476.841,1.536-3,3.078-1.239,2.129,1.433.4.965,1.133-.255-.155-2.852,3.023-1.689,2.074-1.037,1.478,1.6,3.2-.042.567-1.517-.354-2.185,2.511-3.862,4.613-3.32.682-4.67,2.825-.44,3.661-1.589,2.36-1.65-.192-1.51-1.1-1.405.547-2.892,4.041-.114,2.22-.72,3.233,1.38,1.983,4.215,4.956.011,1.981,2.132,1.561-.142,2.512-1.235,5.057.554,2.487.21,1.63-1.985,2.528-1.377,1.818-.683.624,2.74,1.974,1.022,2.552,2.012.113,5.478.78,1.518,2.5,1.5.745,2.216,4.017,3.319,1.743,3.5Z" transform="translate(-97.389 -42.14)" fill="#003865" stroke="#fff" stroke-linejoin="round" stroke-width="2.34"/>
    <path id="Path_211" data-name="Path 211" d="M884.118,464.091l-1.716.936-2.5-1.249-.625-2.029-1.249-3.435-2.186-2.03-2.5-.624-1.562-4.684-2.654-5.777-4.059-1.873-2.03-1.873-1.249-2.5-2.03-1.873-2.185-1.249-2.185-2.81-2.967-2.185-4.371-1.718-.468-1.405-2.342-2.809-.468-1.405-3.279-5-3.278.155-3.9-2.342-1.25-1.249-.312-1.717.78-1.873,2.186-.937-.494-2.211,5.57-2.257,8.8-4.432,7.508-.78,15.562-.408,2.547,1.814,1.621,3.243,4.154-.589,12.177-1.405,2.81.78,12.177,7.337,9.761,7.843-5.235,5.271-2.5,5.933-.468,6.088-1.562.781-1.093,2.654-2.342.624-2.029,3.435-2.654,2.654-2.186,3.279-1.561.78-3.435,3.279-2.81.156.937,3.122-4.839,5.308Z" transform="translate(-120.795 -57.961)" fill="#003865" stroke="#fff" stroke-linejoin="round" stroke-width="2.34"/>
    <path id="Path_212" data-name="Path 212" d="M786.582,414.977v2.107l.156,2.03.625,3.279,3.278,7.649,2.342,9.523,1.405,5.932,1.562,4.684,1.405,6.714,2.029,6.088,2.5,3.279.468,3.279,1.873.781.156,2.029-1.718,4.684-.468,3.122-.156,1.873,1.561,4.215.313,5.152-.781,2.342.625.78,1.405.78.2,3.108,2.156,3.235,2.173,2.088,7.649.156,10.449-.625,20.775-1.249,5.258-.652,4.421.027.156,2.81,2.5.78.312-4.215-1.561-4.371,1.092-1.562,5.62.781,4.806.306-.748-6.082,2.185-9.679,1.405-4.06-.468-2.5,3.221-6.03-.494-1.306-1.847.68-2.5-1.249-.624-2.029-1.25-3.435-2.185-2.03-2.5-.624-1.561-4.684-2.825-6.118-4.059-1.873-2.03-1.873-1.249-2.5-2.03-1.873-2.185-1.25-2.185-2.81-2.967-2.185L839.9,430.7l-.468-1.405-2.342-2.81-.468-1.405-3.279-4.8-3.4.1-3.626-2.275-1.369-1.25-.312-1.717.84-1.873,2.151-1.072-.612-2.025Z" transform="translate(-112.732 -59.772)" fill="#003865" stroke="#fff" stroke-linejoin="round" stroke-width="2.34"/>
    <path id="Path_213" data-name="Path 213" d="M639.011,289.195l-2.434-2.981-1.1-2.208-62.15,2.318-2.208.111,1.214,2.428-.22,2.209,2.428,3.753,2.981,3.974,2.98,2.65,2.087.22,1.446.884v2.87l-1.766,1.545-.441,2.209,1.987,3.311,2.428,2.87,2.429,1.766,1.325,11.26.3,34.835.221,4.526.441,5.2,21.664-.837,22.41-.661,20.091-.774,11.254-.223,2.1,3.308-.661,3.195-2.982,2.321-.552,1.774,5.194.441,3.761-.661,1.659-5.306.629-5.656,2.026-2.467,2.507-1.436.049-2.945.982-1.871-1.637-2.456-1.285.95-1.924-2.151-1.241-4.6.773-2.433-1.877-3.309-1.768-4.419-4.634-.772-6.73-5.407-1.66-3.973.772-3.09,1.989-5.85.442-2.766-1.882-1-6.62-.771-.993-1.653-.108-4.085-5.3-3.313-6.736-7.505-2.208-7.065-.223-4.08Z" transform="translate(-75.109 -37.307)" fill="#003865" stroke="#fff" stroke-linejoin="round" stroke-width="2.34"/>
    <path id="Path_214" data-name="Path 214" d="M677.411,399.183l-3.844.692-4.937-.612.406-1.547,2.878-2.479.912-3.531-1.766-2.87-75.728,2.428,1.545,6.624v7.948l1.325,10.6.221,36.539,2.208,1.877,2.87-1.325,2.65,1.1.657,6.348,53.713-1.1,1.107-2.019-.277-3.427-1.763-2.87,1.544-1.434-1.544-2.426.661-2.424,1.321-5.413L664,437.87l-.662-2.206,3.532-5.188,2.65-1.322-.11-1.442-.333-1.763,2.759-5.406,2.321-1.214.371-3.31,1.71-1.2-3.036-.468-1.295-3.872,2.708-2.3.531-1.95,1.236-3.908Z" transform="translate(-79.337 -55.913)" fill="#003865" stroke="#fff" stroke-linejoin="round" stroke-width="2.34"/>
    <path id="Path_215" data-name="Path 215" d="M792.193,371.059,742.08,375.9l-15.219,1.717-4.462.5-3.735-.027-.213,3.96-7.905.255-6.713.624-7.814-.12-1.365,6.83-1.638,5.292-3.18,2.657-1.3,4.231-.312,2.5-3.9,2.185,1.405,3.435-.937,4.214-.935.763L788.3,404.86l.389-3.819,1.748-1.44,2.738-.723.649-3.59,3.957-2.612,3.908-1.443,3.944-3.449,4.284-1.956.5-2.962,3.926-3.848.531-.11s.031,1.092.811,1.092a7.854,7.854,0,0,1,1.873.343l2.185-3.465,2-.625,2.2.285,1.543-3.411,2.854-2.553.408-1.872.3-3.585-2.073-.192-2.512,1.958-6.754.028-17.729,2.305Z" transform="translate(-94.794 -51.606)" fill="#003865" stroke="#fff" stroke-linejoin="round" stroke-width="2.34"/>
    <path id="Path_216" data-name="Path 216" d="M947.859,344.35l2.014,4.748,3.434,6.244,2.342,2.342.625,2.185-2.342.156.78.625-.312,4.059-2.5,1.249-.625,2.03-1.249,2.81-3.591,1.561-2.342-.312-1.405-.156-1.561-1.249.312,1.249v.937h1.874l.78,1.25-1.873,6.088h4.059l.625,1.561,2.185-2.185,1.25-.468-1.874,3.434L945.5,387.19h-1.249l-1.093-.468-2.654.625-5,2.342-6.245,5.151-3.279,4.528-1.872,6.244-.468,2.342-4.528.468-5.266,1.291-9.6-7.922-12.177-7.337-2.81-.78-12.177,1.405-4.13.724-1.561-3.122-2.868-2.044-15.924.468-7.025.78-8.743,4.372-5.932,2.5-20.451,2.5.483-3.916,1.717-1.405,2.654-.624.625-3.591,4.059-2.655,3.747-1.405,4.059-3.434,4.215-2.03.625-2.966,3.747-3.747.624-.156s0,1.093.78,1.093a8.532,8.532,0,0,1,1.874.312l2.186-3.434,2.029-.625,2.185.312,1.562-3.434,2.81-2.5.468-2.029.181-3.524,4.13-.021,6.952-.827,15.217-2.175,14.617-2.015,20.9-4.557,19.3-4.113,10.794-2.323Zm4.124,32.067,2.5-2.42,3.044-2.5,1.483-.625.156-1.952-.624-5.932-1.405-2.264-.625-1.8.7-.234,2.654,5.307.39,4.293-.156,3.279-3.279,1.482-2.732,2.342L953,376.573Z" transform="translate(-116.9 -47.981)" fill="#003865" stroke="#fff" stroke-linejoin="round" stroke-width="2.34"/>
    <path id="Path_217" data-name="Path 217" d="M702.485,211.781l-.065-3.05-1.139-4.371-.625-5.932-1.092-2.342.937-2.967.78-2.81,1.405-2.5-.625-3.279-.624-3.435.468-1.717,1.874-2.342.155-2.654-.78-1.249.625-2.5-.437-4.028L706,161.148l2.81-6.556.156-2.186-.312-.937-.781.468-4.059,6.089-2.654,3.9-1.874,1.717-.78,2.185-1.888.78-1.093,1.873-1.405-.312-.156-1.717,1.25-2.342,2.029-4.527,1.718-1.562.956-2.277-2.472-1.836L695.534,143.9l-3.425-1.3-1.88-2.229-11.713-2.629-2.777-.977-7.931-2.093-7.646-1.119-3.636-4.955-.725.535-1.157-.156-.624-1.093-1.288.286-1.093.156-1.717.937-.937-.625.624-1.873,1.873-2.966,1.093-1.093-1.873-1.405-2.03.781-2.809,1.873-7.182,3.122-2.81.624-2.81-.468-.947-.848-2.044,2.738-.221,2.65v8.169l-1.1,1.545-5.078,3.754-2.208,5.74.441.221,2.429,1.986.662,3.091-1.766,3.091v3.753l.441,6.4,2.87,2.87h3.311l1.766,3.091,3.312.441,3.753,5.52,6.845,3.974,1.986,2.65.884,7.175.662,3.2L651.263,200l.22,1.325-1.986,3.311.22,3.091,2.429,3.754,2.429,1.1,2.87.441,1.3,1.333Z" transform="translate(-83.899 -8.32)" fill="#003865" stroke="#fff" stroke-linejoin="round" stroke-width="2.34"/>
    <path id="Path_218" data-name="Path 218" d="M712.152,330.364l.031-3.118.548-4.487,2.253-2.816,1.8-3.936,2.156-3.858-.358-5.073-1.936-3.421-.094-3.232.671-5.088-.8-6.933-1.03-15.236-1.249-14.5-.89-11.241-.264-.889-.78-2.5-1.249-3.59-1.562-1.717-1.405-2.5-.225-5.3-44.226,2.51.221,2.291,2.208.661.883,1.1.442,1.766,3.753,3.311.662,2.208-.662,3.311-1.766,3.533-.662,2.429-2.208,1.766-1.766.662-5.078,1.325-.663,1.766-.662,1.986.662,1.325,1.766,1.546-.221,3.974-1.766,1.545-.663,1.545v2.65l-1.765.441-1.546,1.1-.22,1.325.22,1.987-1.655,1.269-.994,2.7.441,3.533,2.208,7.065,7.065,7.285,5.3,3.533-.221,4.2.884,1.325,6.181.441,2.65,1.325-.663,3.533-2.208,5.74-.662,3.091,2.208,3.753,6.181,5.079,4.416.661,1.987,4.857,1.986,3.091-.883,2.87,1.545,3.974,1.766,1.987,1.366-.851.877-2,2.137-1.687,2.058-.593,2.514,1.139,3.5,1.329,1.148-.288.193-2.181-1.244-2.328.295-2.3,1.775-1.3,2.918-.782,1.218-.442-.591-1.339-.765-2.274,1.384-.947Z" transform="translate(-89.244 -27.89)" fill="#003865" stroke="#fff" stroke-linejoin="round" stroke-width="2.34"/>
    <path id="Path_219" data-name="Path 219" d="M724.9,332.439l.063-2.76.468-4.372,2.185-2.81,1.717-3.747,2.5-4.059-.468-5.619-1.717-2.655-.313-3.122.781-5.307-.468-6.714-1.25-15.455-1.249-14.831-.937-11.318,2.966.859,1.405.936,1.092-.312,2.03-1.873,2.732-1.562,4.918-.156,21.232-2.185,5.385-.515,1.451,15.409,4.105,35.578.578,5.573-.359,2.185,1.186,1.734.094,1.325-2.435,1.545-3.418,1.5-3.092.531-.578,4.7-4.417,3.2-2.7,3.872.313,2.3-.562,1.481h-3.212l-1.532-1.561-2.407,1.219-2.591,1.451.156,2.949-1.153.249-.452-.983-2.093-1.451-3.138,1.3-1.5,2.9-1.388-.78-1.405-1.545-4.312.468-5.4.937Z" transform="translate(-101.961 -30.316)" fill="#003865" stroke="#fff" stroke-linejoin="round" stroke-width="2.34"/>
    <path id="Path_220" data-name="Path 220" d="M845.831,226.194l-5.885,3.915-3.746,2.185-3.279,3.59-3.9,3.747-3.122.78-2.81.468-5.307,2.5-2.03.155-3.279-2.966-5,.625-2.5-1.405-2.3-1.3-4.724.679-9.836,1.562-10.823,2.11,1.25,14.128,1.717,13.27,2.5,22.637.547,4.665,3.982-.125,2.342-.78,3.248,1.451,2,4.215,4.963-.016,1.827,2.045,1.7-.063,2.451-1.3,2.418.359,5.236.466,1.667-2.06,2.266-1.249,2-.658.624,2.654,1.718.937,3.356,2.264,2.108-.078,1.287-.475.179-2.667,1.531-1.405.1-4.628.989-3.969,1.254-.58,1.277,1.109.52,1.639,1.66-1,.424-1.411-1.079-1.838.064-2.236.723-1.035,2.079-3.193,1.014-1.491,2.03.468,2.185-1.561,2.967-3.279,2.676-3.939.31-4.883.468-4.839-.171-5.125-.922-2.8.339-1.148,1.743-1.691-2.21-8.737Z" transform="translate(-111.111 -26.98)" fill="#003865" stroke="#fff" stroke-linejoin="round" stroke-width="2.34"/>
    <path id="Path_221" data-name="Path 221" d="M880.792,276.062l1.075,4.775,1.046,5.824,2.057-2.491,2.185-2.967,2.452-.594,1.405-1.405,1.717-2.5,1.4.625,2.81-.312,2.5-2.03,1.937-1.4,1.783-.468,1.259.981,3.518,1.76,1.873,1.717,1.327,1.249-.736,5.364-5.635-2.454-4.1-1.566-.1,5-2.654,5.347-2.443,2.344-1.151,2.655-2.553.483-.866,3.478-1.008,3.815-3.832.329-2.244-2.355-1.034.54-.61,5.282-1.3,3.413-4.788,10.579.866,1.121-.2,1.844-2.713,3.751-1.746-.525-2.866,2.085-2.456-.552-1.93,4.4a19.857,19.857,0,0,1-3.788,1.321c-.154-.015-2.384-1.207-2.384-1.207l-2.257,1.333-2.326,1.008-3.617-.858-1.083-1.128-2.118-2.92-3.034-1.92-1.653-3.5-4.138-3.349-.624-2.185-2.5-1.405-.78-1.562-.235-5.074,2.108-.078,1.873-.78.155-2.654,1.562-1.405.156-4.84.936-3.746,1.25-.625,1.249,1.093.468,1.717,1.717-.937.468-1.562-1.092-1.717V293.88l.937-1.249,2.185-3.279,1.249-1.405,2.03.468,2.185-1.562,2.967-3.279,2.185-3.746.312-5.465.468-4.839V265l-1.093-2.967.937-1.405,1.24-1.249,3.371,19.147,4.472-.725Z" transform="translate(-121.098 -32.881)" fill="#003865" stroke="#fff" stroke-linejoin="round" stroke-width="2.34"/>
    <path id="Path_222" data-name="Path 222" d="M946.834,306.383l-.139-1.88,6.232-2.463-.744,3.108-2.82,3.649-.4,4.429.446,3.274-1.765,4.807-2.091,1.851-1.42-4.482.431-5.262,1.533-4.04Zm3.225,27.33-56.179,12.145-36.143,5.1-6.449-.362-2.5,1.86-7.087.213-8.094.943-10.541,1.56,10.111-5.419-.014-2,1.468-2.072,10.192-11.107,3.812,4.324,3.653.931,2.456-1.1,2.161-1.266,2.449,1.3,3.78-1.379,1.813-4.4,2.512.521,2.757-2.059,1.738.477,2.73-3.551.336-2.012-.931-1.231.969-1.8,5.093-11.856.6-5.538,1.187-.506,2.1,2.359,3.8-.291,1.864-7.314,2.7-.541,1.013-2.647,2.492-2.267,2.677-5.5.082-4.893,9.485,3.692c.657.328.8-4.876.8-4.876l3.528,1.543.066,2.837,5.587,1.255,2.059,1.136,1.6,1.985-.632,3.524-1.881,2.5.106,1.988.569,1.789,4.808,1.225,4.3.039,2.964.926,1.877.3.689,2.983,3.082.388.838,1.159-.425,4.529,1.328,1.065-.463,1.864,1.188.763-.214,1.337-2.6-.092.086,1.56,2.2,1.49.117,1.364,1.712,1.724.475,2.438-2.465,1.334,1.518,1.443,5.6-1.628Z" transform="translate(-119.103 -37.103)" fill="#003865" stroke="#fff" stroke-linejoin="round" stroke-width="2.34"/>
    <path id="Path_223" data-name="Path 223" d="M947.059,253.131l1.263-.262,2.25-1.21,1.17-2.4,1.561-2.186,3.122-2.966v-.78l-2.342-1.562-3.434-2.342-.937-2.5-2.654-.313-.156-1.092-.78-2.655,2.185-1.092.156-2.342-1.25-1.249.156-1.562,1.873-2.967v-2.966l2.605-2.555-.889-.652-2.437-.186-2.215-1.873-1.5-5.906-3.385.1-2.371-2.611-17.47,4.054-41.527,8.431-8.586,1.405-.6-6.3-5.178,4.894-1.25.468-4.058,2.906,2.811,18.481,2.4,9.4,3.448,18.6,3.158-.616,11.533-1.45,36.626-7.4,14.366-2.727,8.015-1.566.259-.23,2.029-1.562Z" transform="translate(-125.62 -23.541)" fill="#003865" stroke="#fff" stroke-linejoin="round" stroke-width="2.34"/>
    <path id="Path_224" data-name="Path 224" d="M954.348,203.95l-1.092-.937-2.5-.156-2.185-1.873L947,195.064l-3.339.087-2.36-2.615-18.72,4.232L881.05,205.2l-7.272,1.186-.713-6.246,1.379-1.087,1.25-1.092.937-1.562,1.717-1.093,1.874-1.717.468-1.562,2.029-2.654,1.093-.937-.156-.937-1.249-2.966-1.717-.156-1.873-5.932,2.81-1.717,4.215-1.405,3.9-1.25,3.122-.467,6.089-.156,1.873,1.249,1.562.156,2.029-1.249,2.5-1.093,5-.468,2.03-1.717,1.717-3.123,1.561-1.872h2.03l1.874-1.093.156-2.185-1.405-2.03-.313-1.405,1.093-2.029v-1.405h-1.717l-1.718-.781-.78-1.092-.156-2.5,5.62-5.307.625-.781,1.405-2.81,2.81-4.371,2.654-3.59,2.029-2.342,2.333-1.763,2.975-1.2,5.308-1.249,3.123.156,4.371-1.405,7.306-2,.5,4.808,2.342,6.245.78,5-.937,3.747,2.5,4.371.78,2.03-.78,2.81,2.81,1.249.624.312,2.967,10.616-.518,4.886-.468,10.459.78,5.308.78,3.434,1.405,7.025v7.806l-1.092,2.185,1.776,1.925.77,1.62-1.873,1.718.312,1.249,1.249-.312,1.405-1.25,2.185-2.5,1.093-.625,1.562.625,2.185.155,7.649-3.746,2.81-2.655,1.249-1.405,4.06,1.562-3.279,3.435-3.747,2.809-6.869,5.152-2.5.937L973.734,217l-3.9,1.093-1.135-.515-.236-3.562.468-2.654-.155-2.03-2.718-1.641-4.372-.936-3.746-1.093Z" transform="translate(-127.834 -8.826)" fill="#003865" stroke="#fff" stroke-linejoin="round" stroke-width="2.34"/>
    <path id="Path_225" data-name="Path 225" d="M1067.627,83.909l1.873,2.03,2.185,3.591V91.4l-2.03,4.527-1.873.624-3.278,2.966-4.684,5.308h-1.25c-.624,0-.937-2.029-.937-2.029l-1.717.156-.937,1.4-2.342,1.405-.937,1.405,1.562,1.405-.468.625-.468,2.654-1.873-.156v-1.561l-.312-1.25-1.405.313-1.717-3.122-2.03,1.249,1.249,1.405.313,1.092-.781,1.25.313,2.966.155,1.562-1.561,2.5-2.81.468-.313,2.81-5.151,2.967-1.25.468-1.561-1.405-2.967,3.434.937,3.123-1.405,1.249-.156,4.215-1.085,6.044-2.377-1.116-.468-2.966-3.747-1.093-.312-2.654-7.026-22.637-4.537-14.138,1.371-.114,1.462.4v-2.5l1.263-4.342,2.5-4.527,1.405-3.9-1.873-2.342V73.762l.78-.937.78-2.654-.155-1.4-.156-4.684,1.717-4.683,2.81-8.586,2.03-4.059h1.249l1.249.156V48l1.25,2.186,2.654.624.78-.781V49.1l3.9-2.81,1.717-1.717,1.405.156,5.776,2.342,1.873.937,8.743,28.881h5.777l.78,1.873.157,4.683,2.81,2.186h.78l.156-.468-.468-1.093Zm-20.214,29.113,1.483-1.483,1.327,1.015.547,2.342-1.64.859Zm6.479-5.7,1.717,1.8s1.249.078,1.249-.235.235-1.952.235-1.952l.859-.78-.78-1.717-1.952.7Z" transform="translate(-151.823 5.473)" fill="#003865" stroke="#fff" stroke-linejoin="round" stroke-width="2.34"/>
    <path id="Path_226" data-name="Path 226" d="M677.608,94.514l1.766-1.987,2.1-.773L686.661,88l2.208-.552.441.442-4.968,4.968-3.2,1.877-1.986.883Zm83.219,31.026.624,2.42,3.123.156,1.249-1.171s-.078-1.405-.39-1.561a14.025,14.025,0,0,1-1.562-1.8l-2.107.235-1.562.156-.312,1.092Zm-96.862-2.872.692-.56,2.655-.781,3.434-2.185V118.2l.625-.624,5.776-.937,2.342-1.873,4.215-2.03.156-1.249,1.874-2.81,1.717-.781,1.249-1.717L690.885,104l4.215-2.342,4.527-.468,1.093,1.093-.312.937-3.592.937-1.405,2.966-2.185.781-.468,2.342-2.342,3.122-.312,2.5.78.468.937-1.092,3.435-2.81,1.249,1.249h2.185l3.123.937,1.4,1.093,1.405,2.966,2.655,2.654,3.747-.155,1.4-.937,1.562,1.249,1.562.468,1.249-.78h1.093l1.561-.937,3.9-3.435,3.279-1.092,6.4-.313,4.371-1.873,2.5-1.249,1.405.156v5.464l.468.312,2.81.781,1.873-.468,5.933-1.562,1.092-1.093,1.405.468v6.714l3.122,2.966,1.25.625,1.249.937-1.249.312-.781-.312-3.59-.468-2.029.625-2.186-.156-3.122,1.405h-1.717l-5.62-1.249-5,.155-1.873,2.5-6.713.624-2.342.781-1.093,2.966-1.249,1.093-.468-.156-1.405-1.561-4.372,2.342h-.624l-1.093-1.562-.78.156-1.873,4.214-.937,3.9-3.072,6.761-1.137-1-1.325-1-1.875-9.935-3.422-1.323-1.983-2.208-11.7-2.65-2.757-.994-7.949-2.1-7.619-1.1Zm125.9,63.759-3.122-7.962-2.185-8.743-2.342-3.122-2.5-1.717-1.561,1.092-3.747,1.718-1.873,4.839-2.654,3.59-1.093.625-1.405-.625s-2.5-1.405-2.342-2.029.468-4.84.468-4.84l3.279-1.249.78-3.279.625-2.5,2.342-1.562-.313-9.679L770.66,148.8l-1.249-.781-.781-2.029.781-.78,1.561.312.156-1.562-2.342-2.185-1.249-2.5h-2.5l-4.371-1.405L755.36,134.6h-2.654l-.625.624-.937-.468-2.966-2.185-2.81,1.717-2.81,2.186.312,3.434.937.312,2.03.468.468.781-2.5.78-2.5.312-1.405,1.718-.313,2.029.313,1.562.312,5.307-3.434,2.03-.625-.156V150.99l1.249-2.342.625-2.342-.781-.78-1.873.78-.937,4.059-2.655,1.093-1.717,1.873-.156.937.625.78-.625,2.5-2.185.468v1.092l.781,2.342-1.093,5.932-1.562,3.9.625,4.527.468,1.093-.78,2.342-.313.78-.312,2.654,3.435,5.776,2.809,6.245,1.405,4.684-.78,4.527-.937,5.776-2.342,5-.312,2.655-3.147,2.979,4.258-.156,20.683-2.185,7.028-.954.093,1.61,6.617-1.171,9.945-1.451,3.723-.445.133-.567.156-1.405,2.03-3.59,1.931-1.678-.214-4.879L783.6,201.9l1.054-.331.214-3.435,1.483-2.927,1.015.586.156.624.781.156,1.873-.937Z" transform="translate(-91.322 -2.015)" fill="#003865" stroke="#fff" stroke-linejoin="round" stroke-width="2.34"/>
    <path id="Path_227" data-name="Path 227" d="M865.143,513.638l2.187,7.067,3.6,9.409,5.152,9.054,3.59,6.089,4.684,5.307,3.9,3.59,1.562,2.81-1.093,1.25-.78,1.249,2.81,7.181,2.81,2.81,2.5,5.152,3.435,5.62,4.371,7.961,1.25,7.337.468,11.553.624,1.718-.312,3.278-2.342,1.25.312,1.873-.624,1.873.312,2.341.468,1.874-2.654,3.123-2.967,1.405-3.747.156-1.4,1.562-2.342.937-1.25-.468-1.092-.937-.313-2.81-.78-3.279-3.279-5-3.434-2.185-3.747-.313-.78,1.25-2.967-4.215-.625-3.435-2.5-3.9-1.718-1.093-1.561,2.03-1.717-.313-2.03-4.839-2.81-3.747-2.81-5.152-2.5-2.966-3.435-3.591,2.03-2.342,3.122-5.308-.156-1.561-4.371-.937-1.562.624.313.625,2.5.937-1.405,4.371-.78.468-1.717-3.9L848.3,571.8l-.312-2.654,1.405-4.527V555.4l-2.967-3.591-1.249-2.966-5-1.249-1.874-.625-1.562-2.5-3.278-1.561-1.093-3.279-2.654-.937-2.342-3.59-4.059-1.405-2.81-1.405h-2.5l-3.9.78-.156,1.873.78.937-.468,1.093-2.966-.156-3.59,3.435-3.435,1.873h-3.747l-3.122,1.249-.312-2.654-1.562-1.874-2.81-1.093-1.561-1.405-7.806-3.747-7.338-1.717-4.214.625-5.777.468-5.776,2.029-3.36.592-.23-7.774-2.5-1.873-1.717-1.717.312-2.966,9.836-1.25,24.666-2.81,6.557-.624,5.249.27,2.5,3.747,1.405,1.405,7.821.5,10.448-.625,20.775-1.249,5.258-.651,4.933.2.412,2.81,2.156.781.227-4.471-1.476-4.03,1.263-1.391,5.364.438ZM877.258,641.5l2.342-.625,1.249-.234,1.405-2.264,2.264-1.562,1.25.468,1.639.312.39,1.015-3.356,1.171-4.06,1.405-2.264,1.17Zm13.036-4.84,1.17,1.015,2.655-2.029,5.151-4.06,3.591-3.746,2.419-6.4.937-1.639.156-3.279-.7.468-.937,2.732-1.405,4.45-3.122,5.073-4.215,4.06-3.278,1.873Z" transform="translate(-106.771 -78.302)" fill="#003865" stroke="#fff" stroke-linejoin="round" stroke-width="2.34"/>
    <path id="Path_228" data-name="Path 228" d="M153.871,526.605l-.313,82.429,1.562.937,2.967.156,1.4-1.093h2.5l.156,2.81,6.713,6.557.468,2.5,3.279-1.874.625-.155.312-2.967,1.405-1.561,1.093-.156,1.873-1.405,2.966,2.03.625,2.81,1.873,1.092,1.092,2.342,3.747,1.717,3.279,5.777,2.654,3.747,2.186,2.654,1.405,3.59,4.839,1.717,5,2.03.937,4.215.468,2.966-.937,3.279-1.717,2.186-1.562-.781-1.405-2.966-2.654-1.405-1.717-1.093-.781.78,1.405,2.655.156,3.59-1.093.468-1.873-1.873-2.03-1.249.468,1.561,1.249,1.718-.78.78a3.3,3.3,0,0,1-1.249-.937c-.468-.625-2.03-3.279-2.03-3.279l-.937-2.185s-.312,1.249-.937.937a4.3,4.3,0,0,1-1.249-1.405l1.717-1.873-1.405-1.405v-4.84h-.78l-.78,3.279-1.093.468-.937-3.591-.625-3.591-.78-.468.312,5.464v1.093l-1.405-1.25L180.1,637.76l-2.03-.468-.624-3.591-1.562-2.81-1.562-1.093v-2.185l2.03-1.249-.468-.313-2.5.625-3.279-2.342-2.5-2.81-4.684-2.5-3.9-2.5,1.249-3.122v-1.562l-1.717,1.562-2.81,1.092-3.591-1.092-5.464-2.342h-5.308l-.625.468-6.244-3.747-2.03-.312-2.654-5.62-3.435.312-3.434,1.405.468,4.372,1.092-2.81.937.312-1.405,4.215,3.123-2.654.624,1.561-3.747,4.215-1.249-.312-.468-1.874-1.249-.781-1.249,1.093-2.655-1.717-2.966,2.029-1.718,2.03-3.278,2.03-4.528-.156-.468-2.03,3.591-.624v-1.25l-2.186-.624.937-2.342,2.186-3.747V602.79l.155-.781,4.215-2.185.937,1.249h2.654l-1.249-2.5-3.59-.312-4.84,2.654-2.342,3.279-1.717,2.5-1.092,2.185-4.06,1.405-2.966,2.5-.312,1.561,2.186.937.781,2.029-2.654,3.122-6.245,4.06-7.494,4.059-2.03,1.092-5.152,1.093-5.152,2.185,1.717,1.25-1.4,1.405-.468,1.092-2.654-.937-3.122.156-.781,2.185h-.937l.312-2.342-3.435,1.249-2.81.937-3.278-1.249-2.81,1.873H45.995l-2.03,1.249-1.561.781-2.03-.313-2.5-1.092-2.186.624-.937.937-1.561-1.092V637.76l2.966-1.25,6.089.625,4.215-1.56,2.03-2.03,2.81-.625,1.717-.78,2.654.156,1.561,1.249.937-.312,2.186-2.655,2.966-.937,3.278-.624,1.249-.313.624.468h.781l1.249-3.59,3.9-1.405,1.873-3.591,2.186-4.371,1.561-1.405.312-2.5-1.561,1.249-3.278.625-.625-2.342-1.249-.312-.937.937-.156,2.81-1.405-.156-1.4-5.62-1.249,1.249-1.093-.468-.312-1.873-3.9.156-2.03,1.093-2.5-.313,1.4-1.4.468-2.5-.625-1.873,1.405-.937,1.249-.156-.625-1.717v-4.215l-.937-.937-.781,1.405H54.269l-1.405-1.249-.625-3.747-2.029-3.435v-.936l2.029-.781.156-2.029,1.093-1.093-.781-.468-1.249.468-1.093-2.654.937-4.84,4.371-3.122,2.5-1.562,1.873-3.59,2.654-1.249,2.5,1.093.312,2.342,2.342-.313,3.122-2.342,1.561.625.937.625h1.561l2.186-1.25L78,563.292s.312-2.809.937-3.278a4.315,4.315,0,0,0,.937-.937L78.779,557.2l-2.5.78-3.122.78-1.873-.468-3.435-1.717-4.84-.156-3.435-3.59.468-3.747.625-2.342-2.03-1.717-1.873-3.591.468-.78,6.557-.468h2.03l.937.937h.625l-.156-1.562,3.747-.625,2.5.313,1.4,1.092-1.4,2.03L73,543.778l2.654,1.561,4.84,1.718,1.717-.937L80.028,541.9l-.937-3.122.937-.781-3.278-1.873-.468-1.092.468-1.562-.781-3.747-2.81-4.527-2.342-4.059,2.81-1.873H76.75l1.717.625,4.059-.156,3.591-3.435,1.093-2.966,3.591-2.342,1.561.937,2.654-.625,3.591-2.029,1.092-.156.937.78,4.372-.155,2.654-2.967h1.093l3.434,2.342,1.873,2.03-.468,1.092.625,1.093,1.561-1.562,3.747.313.313,3.59,1.872,1.405,6.87.624,6.088,4.06,1.405-.937,5,2.5,2.03-.624,1.873-.781,4.684,1.873ZM42.716,554.55l2.03,5.152-.156.937-2.81-.312-1.717-3.9-1.717-1.405H36l-.156-2.5,1.717-2.342,1.093,2.342,1.405,1.405Zm-2.5,32.316,3.591.781,3.591.936.781.938-1.561,3.591-2.966-.156-3.278-3.434ZM20.235,573.284l1.093,2.5,1.093,1.562-1.093.78-2.03-2.966v-1.873ZM6.966,643.849l3.278-2.186,3.278-.937,2.5.313.468,1.561,1.873.468,1.873-1.873-.312-1.561,2.654-.625,2.81,2.5-1.093,1.717-4.215,1.093-2.654-.468-3.591-1.093L9.62,644.161l-1.561.312Zm47.3-4.372,1.561,1.873,2.029-1.561-1.4-1.249Zm2.81,2.967,1.093-2.186,2.03.313-.781,1.873Zm22.793-1.873,1.4,1.717.937-1.093-.781-1.873Zm8.43-12.021,1.093,5.62,2.81.78,4.84-2.81,4.215-2.5L99.7,627.3l.468-2.342-2.029,1.249-2.81-.78,1.561-1.093,1.873.78,3.747-1.717.468-1.405-2.342-.78.781-1.873-2.655,1.873-4.527,3.434-4.683,2.81Zm40.9-19.2,2.342-1.4-.937-1.718-1.717.937Z" transform="translate(23.4 -77.236)" fill="#003865" stroke="#fff" stroke-linejoin="round" stroke-width="2.34"/>
    <path id="Path_229" data-name="Path 229" d="M272.713,605.71l1.872-3.435,2.186-.312.312.78-2.03,2.967Zm9.835-3.591,5.932,2.5,2.03-.313,1.561-3.746-.624-3.279-4.059-.468-3.9,1.717ZM312.21,611.8l3.59,5.308,2.342-.313,1.093-.468,1.4,1.25,3.591-.156.937-1.405-2.81-1.717-1.873-3.59-2.03-3.435-5.62,2.81Zm19.514,8.587,1.25-1.873,4.527.937.625-.468,5.932.624-.313,1.25-2.5,1.405-4.215-.313Zm5.152,5,1.873,3.747,2.967-1.093.312-1.562-1.562-2.029-3.59-.313Zm6.714-1.093,2.185-2.81,4.527,2.342,4.215,1.093,4.215,2.654v1.873l-3.435,1.717-4.684.937-2.341-1.405Zm16.08,14.988,1.561-1.25,3.279,1.562,7.337,3.435,3.279,2.029,1.562,2.342,1.873,4.215,3.9,2.5-.312,1.25-3.747,3.122-4.059,1.405-1.405-.625-2.967,1.718-2.341,3.122-2.186,2.81-1.717-.156-3.435-2.5-.312-4.371.625-2.342-1.562-5.464-2.029-1.717-.156-2.5,2.185-.937,2.03-2.966.468-.937-1.562-1.718Z" transform="translate(-23.003 -92.957)" fill="#003865" stroke="#fff" stroke-linejoin="round" stroke-width="2.34"/>
    <rect id="Rectangle_33" data-name="Rectangle 33" width="43.457" height="27.542" rx="6.674" transform="translate(902.909 175.937)" fill="#003865" stroke="#fff" stroke-linejoin="round" stroke-width="2.34"/>
    <text id="NH_" data-name="NH
" transform="translate(915.702 182.942)" fill="#d5ddec" font-size="15" font-family="Arial-BoldMT, Arial" font-weight="700"><tspan x="3.663" y="14">N</tspan></text>
    <rect id="Rectangle_34" data-name="Rectangle 34" width="43.457" height="27.542" rx="6.674" transform="translate(855.037 233.499)" fill="#003865" stroke="#fff" stroke-linejoin="round" stroke-width="2.34"/>
    <text id="VT_" data-name="VT
" transform="translate(868.656 240.509)" fill="#d5ddec" font-size="15" font-family="Arial-BoldMT, Arial" font-weight="700"><tspan x="3.251" y="14">V</tspan></text>
    <rect id="Rectangle_35" data-name="Rectangle 35" width="43.457" height="27.542" rx="6.674" transform="translate(902.909 262.28)" fill="#003865" stroke="#fff" stroke-linejoin="round" stroke-width="2.34"/>
    <text id="RI_" data-name="RI
" transform="translate(918.179 269.292)" fill="#d5ddec" font-size="15" font-family="Arial-BoldMT, Arial" font-weight="700"><tspan x="1.187" y="14">R</tspan></text>
    <rect id="Rectangle_36" data-name="Rectangle 36" width="43.457" height="27.542" rx="6.674" transform="translate(855.862 262.28)" fill="#003865" stroke="#fff" stroke-linejoin="round" stroke-width="2.34"/>
    <text id="NJ_" data-name="NJ
" transform="translate(869.481 269.292)" fill="#d5ddec" font-size="15" font-family="Arial-BoldMT, Arial" font-weight="700"><tspan x="2.838" y="14">N</tspan></text>
    <rect id="Rectangle_37" data-name="Rectangle 37" width="43.457" height="27.542" rx="6.674" transform="translate(855.862 291.061)" fill="#003865" stroke="#fff" stroke-linejoin="round" stroke-width="2.34"/>
    <text id="DE_" data-name="DE
" transform="translate(868.656 298.076)" fill="#d5ddec" font-size="15" font-family="Arial-BoldMT, Arial" font-weight="700"><tspan x="3.663" y="14">D</tspan></text>
    <rect id="Rectangle_38" data-name="Rectangle 38" width="43.457" height="27.542" rx="6.674" transform="translate(902.909 291.061)" fill="#003865" stroke="#fff" stroke-linejoin="round" stroke-width="2.34"/>
    <text id="MD_" data-name="MD
" transform="translate(914.877 298.076)" fill="#d5ddec" font-size="15" font-family="Arial-BoldMT, Arial" font-weight="700"><tspan x="3.657" y="14">M</tspan></text>
    <rect id="Rectangle_39" data-name="Rectangle 39" width="43.457" height="27.542" rx="6.674" transform="translate(856.687 319.02)" fill="#003865" stroke="#fff" stroke-linejoin="round" stroke-width="2.34"/>
    <text id="DC_" data-name="DC
" transform="translate(869.481 325.213)" fill="#d5ddec" font-size="15" font-family="Arial-BoldMT, Arial" font-weight="700"><tspan x="3.663" y="14">D</tspan></text>
    <rect id="Rectangle_40" data-name="Rectangle 40" width="43.457" height="27.542" rx="6.674" transform="translate(902.909 204.718)" fill="#003865" stroke="#fff" stroke-linejoin="round" stroke-width="2.34"/>
    <text id="MA_" data-name="MA
" transform="translate(914.877 210.903)" fill="#d5ddec" font-size="15" font-family="Arial-BoldMT, Arial" font-weight="700"><tspan x="3.657" y="14">M</tspan></text>
    <rect id="Rectangle_41" data-name="Rectangle 41" width="43.457" height="27.542" rx="6.674" transform="translate(902.909 233.499)" fill="#003865" stroke="#fff" stroke-linejoin="round" stroke-width="2.34"/>
    <text id="CT_" data-name="CT
" transform="translate(916.528 240.509)" fill="#d5ddec" font-size="15" font-family="Arial-BoldMT, Arial" font-weight="700"><tspan x="2.838" y="14">C</tspan></text>
    <text id="HI_" data-name="HI
" transform="translate(318.425 556.067)" fill="#003865" font-size="21" font-family="Arial-BoldMT, Arial" font-weight="700"><tspan x="-10.5" y="0">HI</tspan><tspan font-size="477"><tspan x="0" y="24"></tspan></tspan></text>
    <text id="AK_" data-name="AK
" transform="translate(133.058 488.468)" fill="#d5ddec" font-size="21" font-family="Arial-BoldMT, Arial" font-weight="700"><tspan x="-15.166" y="0">AK</tspan><tspan font-size="417"><tspan x="0" y="24"></tspan></tspan></text>
    <text id="FL_" data-name="FL
" transform="translate(770.897 502.953)" fill="#d5ddec" font-size="21" font-family="Arial-BoldMT, Arial" font-weight="700"><tspan x="-12.828" y="0">FL</tspan><tspan font-size="430"><tspan x="0" y="24"></tspan></tspan></text>
    <text id="ME_" data-name="ME
" transform="translate(887.305 94.53)" fill="#d5ddec" font-size="21" font-family="Arial-BoldMT, Arial" font-weight="700"><tspan x="-15.75" y="0">ME</tspan><tspan font-size="62"><tspan x="0" y="24"></tspan></tspan></text>
    <text id="NY_" data-name="NY
" transform="translate(810.806 163.545)" fill="#d5ddec" font-size="20" font-family="Arial-BoldMT, Arial" font-weight="700"><tspan x="-13.892" y="0">NY</tspan><tspan font-size="119"><tspan x="0" y="23"></tspan></tspan></text>
    <text id="PA_" data-name="PA
" transform="translate(783.626 214.566)" fill="#d5ddec" font-size="21" font-family="Arial-BoldMT, Arial" font-weight="700"><tspan x="-13.807" y="0">PA</tspan><tspan font-size="170"><tspan x="0" y="24"></tspan></tspan></text>
    <text id="VA_" data-name="VA
" transform="translate(787.489 283.828)" fill="#d5ddec" font-size="21" font-family="Arial-BoldMT, Arial" font-weight="700"><tspan x="-13.807" y="0">VA</tspan><tspan font-size="233"><tspan x="0" y="24"></tspan></tspan></text>
    <text id="WV_" data-name="WV
" transform="translate(739.765 285.234)" fill="#d5ddec" font-size="21" font-family="Arial-BoldMT, Arial" font-weight="700"><tspan x="-16.914" y="0">WV</tspan><tspan font-size="222"><tspan x="0" y="24"></tspan></tspan></text>
    <text id="OH_" data-name="OH
" transform="translate(700.925 243.425)" fill="#d5ddec" font-size="21" font-family="Arial-BoldMT, Arial" font-weight="700"><tspan x="-15.75" y="0">OH</tspan><tspan font-size="196"><tspan x="0" y="24"></tspan></tspan></text>
    <text id="IN_" data-name="IN
" transform="translate(646.763 253.045)" fill="#d5ddec" font-size="21" font-family="Arial-BoldMT, Arial" font-weight="700"><tspan x="-10.5" y="0">IN</tspan><tspan font-size="205"><tspan x="0" y="24"></tspan></tspan></text>
    <text id="IL_" data-name="IL
" transform="translate(598.304 253.045)" fill="#d5ddec" font-size="21" font-family="Arial-BoldMT, Arial" font-weight="700"><tspan x="-9.331" y="0">IL</tspan><tspan font-size="205"><tspan x="0" y="24"></tspan></tspan></text>
    <text id="WI_" data-name="WI
" transform="translate(579.688 161.657)" fill="#d5ddec" font-size="21" font-family="Arial-BoldMT, Arial" font-weight="700"><tspan x="-12.828" y="0">WI</tspan><tspan font-size="123"><tspan x="0" y="24"></tspan></tspan></text>
    <text id="NC_" data-name="NC
" transform="translate(781.044 326.155)" fill="#d5ddec" font-size="21" font-family="Arial-BoldMT, Arial" font-weight="700"><tspan x="-15.166" y="0">NC</tspan><tspan font-size="271"><tspan x="0" y="24"></tspan></tspan></text>
    <text id="TN_" data-name="TN
" transform="translate(657.119 339.622)" fill="#d5ddec" font-size="21" font-family="Arial-BoldMT, Arial" font-weight="700"><tspan x="-13.997" y="0">TN</tspan><tspan font-size="283"><tspan x="0" y="24"></tspan></tspan></text>
    <text id="AR_" data-name="AR
" transform="translate(550.241 366.558)" fill="#d5ddec" font-size="21" font-family="Arial-BoldMT, Arial" font-weight="700"><tspan x="-15.166" y="0">AR</tspan><tspan font-size="307"><tspan x="0" y="24"></tspan></tspan></text>
    <text id="MO_" data-name="MO
" transform="translate(550.59 294.409)" fill="#d5ddec" font-size="21" font-family="Arial-BoldMT, Arial" font-weight="700"><tspan x="-16.914" y="0">MO</tspan><tspan font-size="242"><tspan x="0" y="24"></tspan></tspan></text>
    <text id="GA_" data-name="GA
" transform="translate(718.307 402.151)" fill="#d5ddec" font-size="21" font-family="Arial-BoldMT, Arial" font-weight="700"><tspan x="-15.75" y="0">GA</tspan><tspan font-size="339"><tspan x="0" y="24"></tspan></tspan></text>
    <text id="SC_" data-name="SC
" transform="translate(757.692 368.449)" fill="#d5ddec" font-size="20" font-family="Arial-BoldMT, Arial" font-weight="700"><tspan x="-13.892" y="0">SC</tspan><tspan font-size="295"><tspan x="0" y="23"></tspan></tspan></text>
    <text id="KY_" data-name="KY
" transform="translate(680.436 300.147)" fill="#d5ddec" font-size="20" font-family="Arial-BoldMT, Arial" font-weight="700"><tspan x="-13.892" y="0">KY</tspan><tspan font-size="237"><tspan x="0" y="23"></tspan></tspan></text>
    <text id="AL_" data-name="AL
" transform="translate(657.119 402.151)" fill="#d5ddec" font-size="21" font-family="Arial-BoldMT, Arial" font-weight="700"><tspan x="-13.997" y="0">AL</tspan><tspan font-size="339"><tspan x="0" y="24"></tspan></tspan></text>
    <text id="LA_" data-name="LA
" transform="translate(555.72 431.01)" fill="#d5ddec" font-size="21" font-family="Arial-BoldMT, Arial" font-weight="700"><tspan x="-13.997" y="0">LA</tspan><tspan font-size="365"><tspan x="0" y="24"></tspan></tspan></text>
    <text id="MS_" data-name="MS
" transform="translate(609.183 402.151)" fill="#d5ddec" font-size="21" font-family="Arial-BoldMT, Arial" font-weight="700"><tspan x="-15.75" y="0">MS</tspan><tspan font-size="339"><tspan x="0" y="24"></tspan></tspan></text>
    <text id="IA_" data-name="IA
" transform="translate(530.879 214.566)" fill="#d5ddec" font-size="21" font-family="Arial-BoldMT, Arial" font-weight="700"><tspan x="-10.5" y="0">IA</tspan><tspan font-size="170"><tspan x="0" y="24"></tspan></tspan></text>
    <text id="MN_" data-name="MN
" transform="translate(512.753 131.836)" fill="#d5ddec" font-size="21" font-family="Arial-BoldMT, Arial" font-weight="700"><tspan x="-16.329" y="0">MN</tspan><tspan font-size="95"><tspan x="0" y="24"></tspan></tspan></text>
    <text id="OK_" data-name="OK
" transform="translate(469.156 358.862)" fill="#d5ddec" font-size="21" font-family="Arial-BoldMT, Arial" font-weight="700"><tspan x="-15.75" y="0">OK</tspan><tspan font-size="300"><tspan x="0" y="24"></tspan></tspan></text>
    <text id="TX_" data-name="TX
" transform="translate(434.008 431.01)" fill="#fff" font-size="21" font-family="Arial-BoldMT, Arial" font-weight="700"><tspan x="-13.417" y="0">TX</tspan><tspan font-size="365"><tspan x="0" y="24"></tspan></tspan></text>
    <text id="NM_" data-name="NM
" transform="translate(318.647 363.672)" fill="#d5ddec" font-size="21" font-family="Arial-BoldMT, Arial" font-weight="700"><tspan x="-16.329" y="0">NM</tspan><tspan font-size="305"><tspan x="0" y="24"></tspan></tspan></text>
    <text id="KS_" data-name="KS
" transform="translate(453.496 290.527)" fill="#d5ddec" font-size="20" font-family="Arial-BoldMT, Arial" font-weight="700"><tspan x="-13.892" y="0">KS</tspan><tspan font-size="228"><tspan x="0" y="23"></tspan></tspan></text>
    <text id="NE_" data-name="NE
" transform="translate(429.354 227.998)" fill="#d5ddec" font-size="20" font-family="Arial-BoldMT, Arial" font-weight="700"><tspan x="-13.892" y="0">NE</tspan><tspan font-size="175"><tspan x="0" y="23"></tspan></tspan></text>
    <text id="SD_" data-name="SD
" transform="translate(422.594 165.469)" fill="#d5ddec" font-size="20" font-family="Arial-BoldMT, Arial" font-weight="700"><tspan x="-13.892" y="0">SD</tspan><tspan font-size="121"><tspan x="0" y="23"></tspan></tspan></text>
    <text id="ND_" data-name="ND
" transform="translate(425.666 105.153)" fill="#003865" font-size="21" font-family="Arial-BoldMT, Arial" font-weight="700"><tspan x="-15.166" y="0">ND</tspan><tspan font-size="71"><tspan x="0" y="24"></tspan></tspan></text>
    <text id="WY_" data-name="WY
" transform="translate(313.993 185.706)" fill="#d5ddec" font-size="21" font-family="Arial-BoldMT, Arial" font-weight="700"><tspan x="-16.914" y="0">WY</tspan><tspan font-size="144"><tspan x="0" y="24"></tspan></tspan></text>
    <text id="MT_" data-name="MT
" transform="translate(294.33 104.187)" fill="#d5ddec" font-size="21" font-family="Arial-BoldMT, Arial" font-weight="700"><tspan x="-15.16" y="0">MT</tspan><tspan font-size="71"><tspan x="0" y="24"></tspan></tspan></text>
    <text id="CO_" data-name="CO
" transform="translate(333.958 277.094)" fill="#d5ddec" font-size="21" font-family="Arial-BoldMT, Arial" font-weight="700"><tspan x="-15.75" y="0">CO</tspan><tspan font-size="226"><tspan x="0" y="24"></tspan></tspan></text>
    <text id="UT_" data-name="UT
" transform="translate(239.936 262.664)" fill="#d5ddec" font-size="21" font-family="Arial-BoldMT, Arial" font-weight="700"><tspan x="-13.997" y="0">UT</tspan><tspan font-size="214"><tspan x="0" y="24"></tspan></tspan></text>
    <text id="AZ_" data-name="AZ
" transform="translate(222.553 358.862)" fill="#d5ddec" font-size="21" font-family="Arial-BoldMT, Arial" font-weight="700"><tspan x="-13.997" y="0">AZ</tspan><tspan font-size="300"><tspan x="0" y="24"></tspan></tspan></text>
    <text id="NV_" data-name="NV
" transform="translate(158.957 237.618)" fill="#d5ddec" font-size="20" font-family="Arial-BoldMT, Arial" font-weight="700"><tspan x="-13.892" y="0">NV</tspan><tspan font-size="183"><tspan x="0" y="23"></tspan></tspan></text>
    <text id="OR_" data-name="OR
" transform="translate(121.504 127.988)" fill="#d5ddec" font-size="21" font-family="Arial-BoldMT, Arial" font-weight="700"><tspan x="-15.75" y="0">OR</tspan><tspan font-size="92"><tspan x="0" y="24"></tspan></tspan></text>
    <text id="WA_" data-name="WA
" transform="translate(149.824 65.559)" fill="#d5ddec" font-size="21" font-family="Arial-BoldMT, Arial" font-weight="700"><tspan x="-16.914" y="0">WA</tspan><tspan font-size="36"><tspan x="0" y="24"></tspan></tspan></text>
    <text id="ID_" data-name="ID
" transform="translate(212.198 156.847)" fill="#d5ddec" font-size="21" font-family="Arial-BoldMT, Arial" font-weight="700"><tspan x="-10.5" y="0">ID</tspan><tspan font-size="119"><tspan x="0" y="24"></tspan></tspan></text>
    <text id="CA_" data-name="CA
" transform="translate(100.224 286.714)" fill="#d5ddec" font-size="21" font-family="Arial-BoldMT, Arial" font-weight="700"><tspan x="-15.166" y="0">CA</tspan><tspan font-size="235"><tspan x="0" y="24"></tspan></tspan></text>
    <text id="MI_" data-name="MI
" transform="translate(664.321 189.518)" fill="#d5ddec" font-size="20" font-family="Arial-BoldMT, Arial" font-weight="700"><tspan x="-11.108" y="0">MI</tspan><tspan font-size="141"><tspan x="0" y="23"></tspan></tspan></text>
  </g>
</svg>
