<svg xmlns="http://www.w3.org/2000/svg" xmlns:xlink="http://www.w3.org/1999/xlink" width="578.564" height="404" viewBox="0 0 578.564 404">
  <defs>
    <radialGradient id="radial-gradient" cx="0.516" cy="0.397" r="0.676" gradientTransform="translate(0.142 13.091) scale(0.66 0.669)" gradientUnits="objectBoundingBox">
      <stop offset="0.56" stop-color="#4e4d4d" stop-opacity="0.2"/>
      <stop offset="0.78" stop-color="#4e4d4d" stop-opacity="0"/>
    </radialGradient>
    <radialGradient id="radial-gradient-2" cx="0.478" cy="0.399" r="0.761" gradientTransform="translate(0.666 17.13) scale(0.585 0.594)" xlink:href="#radial-gradient"/>
    <radialGradient id="radial-gradient-5" cx="0.521" cy="0.421" r="0.784" gradientTransform="translate(1.357 19.248) scale(0.57 0.577)" xlink:href="#radial-gradient"/>
    <radialGradient id="radial-gradient-6" cx="0.476" cy="0.379" r="0.761" gradientTransform="translate(1.009 22.643) scale(0.585 0.594)" xlink:href="#radial-gradient"/>
    <radialGradient id="radial-gradient-7" cx="0.48" cy="0.398" r="0.761" gradientTransform="translate(0.795 16.608) scale(0.585 0.594)" xlink:href="#radial-gradient"/>
    <radialGradient id="radial-gradient-8" cx="0.482" cy="0.398" r="0.761" gradientTransform="translate(1.08 16.698) scale(0.585 0.594)" xlink:href="#radial-gradient"/>
    <radialGradient id="radial-gradient-9" cx="0.52" cy="0.255" r="0.701" gradientTransform="translate(-0.349 14.873) scale(0.637 0.644)" xlink:href="#radial-gradient"/>
    <radialGradient id="radial-gradient-10" cx="0.517" cy="0.26" r="0.701" gradientTransform="translate(0.001 15.91) scale(0.637 0.644)" xlink:href="#radial-gradient"/>
    <radialGradient id="radial-gradient-11" cx="0.509" cy="0.446" r="0.719" gradientTransform="translate(0.148 19.021) scale(0.62 0.629)" xlink:href="#radial-gradient"/>
    <radialGradient id="radial-gradient-12" cx="0.512" cy="0.446" r="0.719" gradientTransform="translate(-0.549 18.801) scale(0.62 0.629)" xlink:href="#radial-gradient"/>
  </defs>
  <g id="Top-Hdr-Map" transform="translate(-674.436 -136)">
    <circle id="Ellipse_27" data-name="Ellipse 27" cx="158" cy="158" r="158" transform="translate(807 180)" fill="#fff" opacity="0.05"/>
    <circle id="Ellipse_28" data-name="Ellipse 28" cx="181" cy="181" r="181" transform="translate(784 157)" fill="#fff" opacity="0.05"/>
    <circle id="Ellipse_29" data-name="Ellipse 29" cx="202" cy="202" r="202" transform="translate(763 136)" fill="#fff" opacity="0.05"/>
    <g id="Map" transform="translate(674.436 204.573)">
      <g id="map-2" data-name="map">
        <path id="Path_46" data-name="Path 46" d="M2258.44,176.64l4.095-6.9.342-4.6,15.7-.708,2.731-2.477-1.706-7.08,4.095-4.956,14.164-5.843,15.868,19.294,5.632,15.4-2.561.532-9.555-2.656-8.618-3.807-21.416,3.275-16.551,3.187Z" transform="translate(-1783.969 -113.803)" fill="#f2f2f2"/>
        <path id="Path_47" data-name="Path 47" d="M1203.512,652.12l3.414,6.372,2.388,33.631-20.137-9.383-4.778,11.152-46.072-11.681,1.023-23.719h-37.54l1.962-5.576Z" transform="translate(-870.333 -515.117)" fill="#fdfdfd"/>
        <path id="Path_48" data-name="Path 48" d="M492.74,355.13l31.738,3.716-3.668,9.647,20.563,1.328-16.3,46.287-60.066-6.019Z" transform="translate(-367.317 -280.521)" fill="#fdfdfd"/>
        <path id="Path_49" data-name="Path 49" d="M652.88,45.5l-5.12,8.317,2.219,1.948-1.193,3.54,3.754,5.488,4.435,2.832-6.653,7.259L651,77.536l5.118-.884,1.366,3.008.17,4.072,2.389,4.072h12.969l3.584-1.24,1.962,3.1,1.962-6.46,67.661,3.628,6.74-34.427Z" transform="translate(-511.673 -35.941)" fill="#fdfdfd"/>
        <path id="Path_50" data-name="Path 50" d="M816.14,748.072l50.394.208,10.349-59.447,37.015-.363-1.225,22.454,46.072,11.681,16.383-3.54,14.675,2.479,4.777,20.887,8.191,15.929-2.048,19.118-11.6,2.832-6.826,2.124-5.46,9.557-19.112,10.622-10.24,15.221-2.046,9.559,7.849,23.719-16.723-4.6-15.017-11.681L914.72,819.25l-11.347-11.416L894.5,788.01l-26.961-6.019-6.143,8.143-21.16-6.019-7.849-21.24-8.191-3.54Z" transform="translate(-644.679 -543.831)" fill="#2babe2" opacity="0.51"/>
        <path id="Path_51" data-name="Path 51" d="M621.37,715.031l27.643-76.821,75.254,3.719-11.584,66.65-50.394-.208-12.082,1.351-14.5.177-2.046,9.557-8.7-1.592Z" transform="translate(-490.828 -504.13)" fill="#bddcf2"/>
        <path id="Path_52" data-name="Path 52" d="M64.161,294.942c-.683.176-21.16,31.324-21.16,31.324l33.446,55.226,1.536,8.143L65.7,396.891l-1.536,12.927-5.126,3L39.41,411.406l-11.263-3.361-2.389-9.912-9.206-11.681L.683,376.717l.513-9.034L0,349.1l5.63-2.479-3.924-5.309,3.924-5.311-2.559-8.5.513-9.034,10.408-19.641,7.679-10.265Z" transform="translate(0 -227.945)" fill="#bddcf2"/>
        <path id="Path_53" data-name="Path 53" d="M225.848,318.9l30.41,3.777,30.851,3.834L251.958,393.95l-5.29-3.364-3.072,1.769-1.536,10.091-3.927,3.008L204.69,350.228Z" transform="translate(-161.687 -251.903)" fill="#89cdf2"/>
        <path id="Path_54" data-name="Path 54" d="M767.619,425.06l76.959,3.185-5.632,45.667-14.826-.076-72.69-2.389Z" transform="translate(-593.563 -335.76)" fill="#89cdf2"/>
        <path id="Path_55" data-name="Path 55" d="M1472.66,306.917l-.769,3.628-.511,4.248,4.351,6.107,3.582,7.433,3.414,7.967,37.9-2.223,7.324,2.752,4.437-7.609-1.876-3.719,6.483-3.185,1.2-5.664-9.9-4.958-4.437-7.964Z" transform="translate(-1162.261 -239.92)" fill="#f2f2f2"/>
        <path id="Path_56" data-name="Path 56" d="M1435.913,77.216l21.33-2.656,5.12,4.6,9.725-1.063,9.727,5.311h18.942l-16.723,6.9-4.265,6.548,1.706,3.187-4.607,1.592,2.389,6.372-1.366,3.008,17.918,7.967-.512,3.716-51.192,3.187-1.536-17.523-3.072-2.479,2.389-3.893-4.1-16.286-2.559-2.832Z" transform="translate(-1133.705 -58.896)" fill="#bddcf2"/>
        <path id="Path_57" data-name="Path 57" d="M1172.114,485.639l74.724-1.609,4.095,3.187-.683,2.124,5.29,3.185,2.391,26.021L1168,520.493Z" transform="translate(-922.617 -382.341)" fill="#bddcf2"/>
        <path id="Path_58" data-name="Path 58" d="M1140.117,78.78l-4.607,26.727,69.623-.176-4.1-16.286-2.559-2.832.683-5.664Z" transform="translate(-896.953 -62.229)" fill="#3ba9e0"/>
        <path id="Path_59" data-name="Path 59" d="M487.521,46.1,473.871,68.752l2.559,5.488L462.1,84.33l2.389,3.008-5.63,6.017-8.874,13.631,62.625,7.611,9.727-24.6-1.876-3.187-3.584,1.24H503.9l-2.389-3.9-.17-4.069L499.979,76.9l-5.12.884-.683-2.477,6.656-7.435-4.437-2.656-3.754-5.485,1.2-3.719-2.219-1.948,5.12-8.141Z" transform="translate(-355.445 -36.273)" fill="#56bce8"/>
        <path id="Path_60" data-name="Path 60" d="M282.66,27.383l2.559-3.187.513-5.664,4.095-4.248L290,9.328l5.46,2.124,8.7,1.595.683,5.309,4.607-3.54.342-5.84L309.45,6.32l14.334,5.132,31.568,3.364L341.7,37.472l1.559,3.382-21.183-3.735-14.847.353L297.5,34.995l-10.238.353,1.536-4.072Z" transform="translate(-223.277 -4.992)" fill="#bddcf2"/>
        <path id="Path_61" data-name="Path 61" d="M746.377,225.38l68.171,3.1-8.021,41.6-57.419-2.565-18.089-1.416Z" transform="translate(-577.441 -178.03)" fill="#bddcf2"/>
        <path id="Path_62" data-name="Path 62" d="M1108.64,232.913l56.5.212,4.437,3.895,7.166-.708,9.983,3.983-1.792-3.628,1.2-7.611-1.452-19.206-3.155-.8,2.388-3.893-69.623.176Z" transform="translate(-875.728 -162.058)" fill="#56bce8"/>
        <path id="Path_63" data-name="Path 63" d="M1839.6,731.687l-2.731,4.956.683,3.187-4.778,3.893-.769,9.294,3.584,6.017-2.616.223,4.918,8.893L1833.119,777v8.851l24.914-.708,2.049,4.6,7.593,4.691,11.86-3.628-7.935-22.923-5.374-38.675Z" transform="translate(-1447.126 -576.012)" fill="#bddcf2"/>
        <path id="Path_64" data-name="Path 64" d="M1869.183,617.5l3.072-7.788,1.023-6.017,9.214.708,8.191-2.479,40.612-4.956,27.645-4.248.683,2.832-4.1,3.893-7.509,3.54-7.166,6.727-4.778,6.372-41.295,5.311-26.62,2.477Z" transform="translate(-1475.682 -468.197)" fill="#56bce8"/>
        <path id="Path_65" data-name="Path 65" d="M2133.09,693.613l18.187,28.356,3.967,2.91V730.9l9.215,16.992,29.692-3.895,8.531,1.418,5.46-2.479L2206.1,735.5l.683-13.452L2192.1,709.3l-10.58-5.311-13.652-8.849h-5.8l1.365-6.372-18.089,3.185Z" transform="translate(-1684.953 -544.068)" fill="#56bce8"/>
        <path id="Path_66" data-name="Path 66" d="M2214.3,547.466l16.041-1.771,46.072-10.265,2.731,3.185-5.12,3.9,6.486,9.557h3.412v3.9l-5.8,2.832-3.755,10.975-6.826,2.124-19.454-8.851-13.652,2.832-4.437-3.54-15.015,1.771-5.46,3.54-18.089,3.185,4.778-6.372,8.275-8.763,6.4-1.5Z" transform="translate(-1731.036 -422.943)" fill="#bddcf2"/>
        <path id="Path_67" data-name="Path 67" d="M2098.83,949.958l5.461,5.311-.341,3.185,9.811-2.567,15.536.454,8.1,6.717,3.42-.611,7.756-6.559,12.03,1.859,19.114,11.328,2.729,13.452,5.376.62,1.109,6.107,10.237,9.2,11.519,11.771,9.385,4.956,10.92,4.956,5.462-4.248-1.109-10-8.191-18.408-15.358-13.1-1.025-5.664-14.334-10.267L2181,942.79l-43.6,5.752-2.542-4.66Z" transform="translate(-1657.891 -744.721)" fill="#bddcf2"/>
        <path id="Path_68" data-name="Path 68" d="M1600.12,657.628l54.947-4.248-3.072,6.727,8.275-.62-3.838,12.3-2.049,8.143-4.777,3.893-.6,9.294,3.414,6.017-40.955,2.832-2.475-8.229-6.057-.62-1.109-26.286Z" transform="translate(-1263.954 -516.113)" fill="#f2f2f2"/>
        <path id="Path_69" data-name="Path 69" d="M1738.137,338.314l7.849,1.595,23.549-2.479,2.049,5.664,3.584,1.063,7.679,28.32,2.9,2.124-4.095,7.967,1.536,5.133-1.536,3.363-3.584.885,2.561,3.716-7.681-1.592-3.07,2.655-3.414-3.008.34-3.719-12.8-6.372,2.219-3.893-6.656-3.54-10.41-7.612-2.12-6.712,5.191-6.032-3.584-3.719,6.582-2.994,2.815-4.513-4.862-3.452Z" transform="translate(-1372.109 -266.54)" fill="#bddcf2"/>
        <path id="Path_70" data-name="Path 70" d="M1918.52,361.464l26.618-2.124,10.75,24.6-.681,3.717,1.193,2.655-4.607.532-4.607,8.5-4.267-2.124-2.046,5.132h-4.95l-10.74,1.519v-5.84l3.914-6.122-2.9-2.124-3.063-11.666Z" transform="translate(-1515.461 -283.847)" fill="#56bce8"/>
        <path id="Path_71" data-name="Path 71" d="M2055.97,346.675l4.438.532,3.584,4.248,8.874,1.061,4.437-2.653,6.909,1.857-.6-6.815,4.437,1.24,1.707-6.017,6.739-4.691-12.883-23.276-8.874,6.372-2.389,4.072-13.481-4.25L2057,321.187l-11.775.884Z" transform="translate(-1615.544 -246.579)" fill="#89cdf2"/>
        <path id="Path_72" data-name="Path 72" d="M2230.45,288.889l5.965-3.992,2.219,2.656s37.03-6.553,37.883-6.553,8.7,3.9,8.7,3.9l-.17,5.309,8.362,4.6-1.536,6.548-4.265,1.595-44.879,7.784Z" transform="translate(-1761.859 -221.965)" fill="#56bce8"/>
        <path id="Path_73" data-name="Path 73" d="M2226.105,411.211l-1.706,6.017-4.437-1.24.6,6.815-2.729,1.431,3.458,4.126,12.758,7.733,13.309-6.9.763-12.139,3.924,2.124,4.271-9.1-1.2-3.466,3.071-1.063,3.248,2.672,2.3-2.582-6.836-3.485-24.051,4.37Z" transform="translate(-1751.89 -317.663)" fill="#bddcf2"/>
        <path id="Path_74" data-name="Path 74" d="M2213.39,457.884l11.776-12.212,5.374,3.187,13.309-6.9.763-12.139,3.925,2.124,4.271-9.1-1.2-3.466,3.072-1.063,3.248,2.672,2.3-2.656,8.271,5.649v3.361l9.131,1.328,7.423,3.807-.683,3.185,7.34,8.954-44.028,8.569-17.656,2.315Z" transform="translate(-1748.383 -330.428)" fill="#3ba9e0"/>
        <path id="Path_75" data-name="Path 75" d="M2446.47,129.181l6.656,9.206,9.215,10.088,5.8-1.063-5.632-10.62-1.536-4.248,2.388-2.124-3.412-5.311-5.63,1.595Z" transform="translate(-1932.496 -98.826)" fill="#2babe2" opacity="0.74"/>
        <path id="Path_76" data-name="Path 76" d="M2523.46,215.241l18.175-2.744,6.143,3.716,1.536-1.769h3.584l3.924-2.656-2.388-1.416-3.584,1.416-8.362-3.54.17-2.656-3.072-2.124-2.219,3.008-15.358,3.9Z" transform="translate(-1992.165 -160.723)" fill="#bddcf2"/>
        <path id="Path_77" data-name="Path 77" d="M2516.6,42.75l8.532,8.5,9.555,9.557-.17-7.964,3.925-1.592,1.536-5.311,5.12-1.592,4.607-4.072-1.876-3.9-3.584.179-2.049-2.834-3.582-.353L2529.4,23.282l-5.29-.532-4.437,2.124-2.731-1.592-1.023,5.309.683,5.664,3.072,3.719Z" transform="translate(-1987.355 -17.97)" fill="#56bce8"/>
        <path id="Path_78" data-name="Path 78" d="M2499.971,302.087l2.561-.531,1.023,4.6,5.973,5.843-.853,11.151-4.267-2.126-1.875,1.24-7.338-4.6,1.962-1.683,1.536-6.548-8.361-4.6.17-5.309Z" transform="translate(-1967.141 -236.594)" fill="#bddcf2"/>
        <path id="Path_79" data-name="Path 79" d="M2570.34,293.1l.853,3.361,5.119-2.477,6.483-5.843-4.947,1.063-4.437,2.479Z" transform="translate(-2030.342 -227.605)" fill="#2babe2" opacity="0.74"/>
        <path id="Path_80" data-name="Path 80" d="M1569.646,450.023l8.191,4.956,2.219,2.653,3.414,1.063,3.242,2.479-1.536,3.361,7.338,4.427,4.777,2.477-.342,3.716,3.584,2.832,3.071,5.843-3.412-.355-1.2,7.966-8.361.532,3.071-6.727-54.946,4.248-2.9-4.424,1.706-4.25-2.046-22.656-5.29-3.185.683-2.124-4.1-3.187-4.265-3.54.51-1.771,37.03-2.124,5.12-1.592,2.389,2.832Z" transform="translate(-1202.681 -348.067)" fill="#89cdf2"/>
        <path id="Path_81" data-name="Path 81" d="M.41,692.56l1.336,4.454,3.441,11.475,12.626,8.851L24.3,736.811l28.337,7.08L58.1,749.2l12.288,2.832L92.91,767.255s27.643,4.956,28.326,4.956,15.357,4.6,15.357,4.6l8.534-7.08,26.278-3.54,8.532,8.141,7.509,4.958,3.414,15.929L211.336,806.9s7.166-5.311,10.925-10.975c0,0,21.849,2.832,24.232,4.248s3.754.708,6.483,6.723,2.048,12.4,6.143,15.931,5.462,1.769,7.168,9.2.683,8.851,4.095,11.328,5.462.708,9.214,6.372,3.414,9.559,10.24,13.1,19.118,7.08,19.118,7.08V854.338l-16.723-4.6-9.557-9.557-5.462-2.126-6.847-15.565L258.127,808.98l-8.067-17.822s-10.41-4.072-11.433-4.072-8.193-.355-8.193-.355l-7.252-1.5-6.227,8.057-18.259-6.2-2.9.177-2.9-9.034-4.861-12.124-9.133-5.225-7.116-9.58-12.166,1.26-14.5.179-2.048,9.557-4.437-.708-11.6-4.248L114.4,757.7l-14.675-1.771-16.04-10.62-22.87-9.2-3.071-4.6-29.351-4.425-2.731-11.5-5.118-6.019-1.366-3.9-6.143-1.769L7.574,699.64l-2.048-.355Z" transform="translate(-0.324 -547.061)" fill="#03265a"/>
        <path id="Path_82" data-name="Path 82" d="M1428.2,1080.907l19.958-24.425,12.969-3.187a114.258,114.258,0,0,1,5.462-10.975c2.05-3.187,4.094-2.477,6.826-3.54s7.509-.353,10.925-3.185a17.6,17.6,0,0,1,7.168-3.54l19.452,1.769,2.389-1.769s1.365,5.309,3.072,6.017a30.459,30.459,0,0,0,6.145,1.063l8.193,1.051s5.8-5.309,13.311-4.248a95.134,95.134,0,0,0,11.944,1.063l3.754-4.6s-3.412-3.009-3.925-6.723a81.686,81.686,0,0,1-.511-9.034l7,3.008,9.9-5.133s20.988,2.3,25.6.884a5.537,5.537,0,0,1,6.656,2.656l7.679,1.051s3.414-4.425,7.508-3.717,10.925,3.9,10.925,3.9,7.338,4.248,9.217,9.034a71.756,71.756,0,0,1,2.559,7.435s2.048,2.832,4.607,3.008,4.095,3.9,4.095,3.9l11.093,13.807,8.361,1.593,7.166,6.9s6.315,5.487,8.7,6.2,11.765,3.716,11.765,3.716l3.925-1.416,1.964-12.208-5.376,3.534-8.956-4.063-6.061-4.962-5.2-.88-6.653-8.761-4.863-3.716-2.048-.531-8.023-7.53-.42-6.01-4.095-1.328-2.048-3.45-.256-5.311-2.393-4.08s-18.771-10.973-18.942-11.152a26.383,26.383,0,0,0-3.492-.433l-8.624-2.044-7.756,7.088-3.42.611-4.258-4.328-3.84-2.389-16.219-.454-8.193.531-.513,3.719-2.219-.179-2.219,1.063-3.584-6.2-2.046,2.479-.17,2.477-4.094-2.645-2.9,3.718-8.532,1.593-4.095-1.416-1.365,7.256,4.777-3.185,2.219,2.311-3.759,7.607,2.9,1.769,6.143,2.479-.683,2.124-2.731.177-9.727-4.248-3.414,4.248-4.607-1.948-7.509,2.124s-4.948-1.237-7.166-3.716-3.925-5.133-6.483-4.78-4.1.708-4.1.708l-.34,5.311s-5.973.353-7.851-.708-7.336-3.54-9.9-2.832a70.311,70.311,0,0,0-7,2.656s-16.387,2.653-18.429,4.956-5.462,9.557-5.462,9.557l-7.509,3.9-11.937,5.3a56.16,56.16,0,0,0-4.437,5.487c-1.365,2.126-8.7,14.515-8.7,14.515a12.372,12.372,0,0,0,.17,4.248C1426.153,1073.458,1428.2,1080.907,1428.2,1080.907Z" transform="translate(-1125.91 -789.912)" fill="#03265a"/>
        <path id="Path_83" data-name="Path 83" d="M2479.753,669.352c1.279.088.42-18.851,2.987-20.975s10.238-6.019,10.238-6.019l1.536-10.62s6.3-1.769,7-2.656,1.535-5.133,1.535-5.133l2.561-8.672,3.242-1.063,2.9-16.284-1.366-2.311-5.628,3.651.509,2.908,2.048-1.061,2.219,2.311-7.078,4.084-3.5,6.723-.338,3.641-5.462,1.494-4.948,6.723.17,7.259-5.8,5.309s-3.582,5.311-4.094,7.435-1.536,8.141-1.536,8.141l.687,10.63Z" transform="translate(-1956.564 -470.487)" fill="#03265a"/>
        <path id="Path_84" data-name="Path 84" d="M2509.759,412l.341,3.9.17,14.515-2.219.708-4.948-5.843-2.731-.176-1.536-1.771,3.242-.884.683-3.185-7.336-3.719-2.521-.3-.21-3.588-3.584-6.727,2.586-3.227,1.34,4.111-.343,2.3,6.826,7.256,5.12,1.24.17,3.364,2.389,3.716.849-4.3,0-3.84Z" transform="translate(-1966.177 -317.3)" fill="#03265a"/>
        <path id="Path_85" data-name="Path 85" d="M2554.553,281.262l6.143-15.046,7.166-1.592s4.267-4.424,5.12-5.672a40.6,40.6,0,0,0,2.389-5.84l.174-6.62-5.294,2.019-1.536,1.769-2.641-.071-2.819,2.9-6.826,2.124-8.019,4.427,1.023,4.6,5.973,5.843Z" transform="translate(-2013.02 -194.705)" fill="#03265a"/>
        <path id="Path_86" data-name="Path 86" d="M2604.62,126.692l-.17-7.964,3.925-1.592,1.535-5.311,5.12-1.592,4.607-4.072-.51,13.622s-4.437,2.311-5.973,2.479a5.042,5.042,0,0,0-1.878,2.832,6.026,6.026,0,0,1-3.412,3.716Z" transform="translate(-2057.286 -83.857)" fill="#03265a"/>
        <path id="Path_87" data-name="Path 87" d="M1864.52,197.68l-7.509-19.824-.341-3.9-2.731-3.893,3.072-1.771,3.414-.708,4.094-10.973,16.723-4.956.342,6.725-4.1,1.771-.683,3.893-4.777,1.771-1.366,4.6,1.023,3.54-1.706,2.832,7.509,10.975-4.095,9.912Z" transform="translate(-1464.449 -119.798)" fill="#03265a"/>
        <path id="Path_88" data-name="Path 88" d="M1686.377,117.95l-.343,10.267-6.483.708-.343-3.893-8.019-.532Z" transform="translate(-1320.093 -93.17)" fill="#03265a"/>
        <path id="Path_89" data-name="Path 89" d="M102.75,145.055l20.477-21.593L140.633,107l8.189,3.008-1.706,4.248,8.362.355,15.187,1.771,9.9-1.771,18.942,2.479,2.559,5.309-8.872,7.435-3.754,1.416.683,4.424-5.632,5.84-8.872,13.631Z" transform="translate(-81.163 -84.521)" fill="#fdfdfd"/>
        <path id="Path_90" data-name="Path 90" d="M2270.62,672.755l1.365-6.372,7.338-3.364,16.381-2.479,5.12,4.248,9.555-2.832,21.843,9.2-7,6.2.17,7.258-6.483,7.08-3.5,8.053-12.542-10.885-12.8-7.259-13.651-8.849Z" transform="translate(-1793.59 -521.768)" fill="#fdfdfd"/>
        <path id="Path_91" data-name="Path 91" d="M2518.081,141.137l-7.168-13.8,2.731-2.656-3.414-5.311,1.878-1.416L2530.195,136l-2.217,3.363Z" transform="translate(-1982.86 -93.17)" fill="#f2f2f2"/>
        <path id="Path_92" data-name="Path 92" d="M2409.51,389.6c.683-.531,21.849-3.716,21.849-3.716l-5.12,6.548,3.584,6.723.17,3.361-6.654-.887v-3.361l-8.194-5.485Z" transform="translate(-1903.3 -304.811)" fill="#fdfdfd"/>
        <path id="Path_93" data-name="Path 93" d="M2505.423,385.88l7.338,4.6,1.876-1.24,4.267,2.126,2.048,8.141-1.708,3.54,0,3.84-.848,4.3L2516,407.475l-.17-3.364-5.12-1.24-6.825-7.256.342-2.3-.95-3.1Z" transform="translate(-1977.37 -304.811)" fill="#2babe2" opacity="0.74"/>
        <path id="Path_94" data-name="Path 94" d="M1933.7,229.271l3.582-9.912-7-10.622,1.706-3.893-1.193-2.832,1.706-4.248,5.29-5.664,14.674,1.061,2.731,7.435-2.049,4.6,3.414,2.479,5.8-4.248,7.851,5.309-1.878,5.311-.51,9.559-1.536,2.832Z" transform="translate(-1524.759 -151.742)" fill="#56bce8"/>
        <path id="Path_95" data-name="Path 95" d="M1640.988,129.338l8.7.355.343,3.893,6.483-.708,17.748-9.027-1.025,6.2,26.28-2.656,9.385,2.3-18.259,4.956-4.095,10.973-2.561.355-3.924,2.124,2.731,3.893-.17,2.655L1688,168.721l-4.351.8-24.061,1.771-3.925-1.948-3.412-7.611.51-3.716-17.916-7.964.511-5.488-1.536-3.9,4.607-2.656-1.706-2.832Z" transform="translate(-1290.574 -97.831)" fill="#56bce8"/>
        <path id="Path_96" data-name="Path 96" d="M1094.867,337.01l55.8.176,4.435,3.9,7.168-.708,10.067,4.071,5.973,10.088,3.412,7.964,3.754,5.311-74.571,1.771,1.365-10.975-21.843-.355Z" transform="translate(-861.344 -266.208)" fill="#fdfdfd"/>
        <path id="Path_97" data-name="Path 97" d="M1654.13,874.839l38.339-2.609,4.834,8.8-4.779,8.851v8.849l24.914-.708,2.049,4.6,3.754,2.656.426,1.681-1.792,5.576,4.777-3.185,2.219,2.3-3.754,7.612,9.044,4.248-.683,2.124-4.6.185-7.859-4.256-3.414,4.248L1713,923.87l-7.506,2.124-7.168-3.716-6.486-4.78-4.095.708-.34,5.311-7.851-.708-9.9-2.832-7,2.656.439-8.223,1.609-10.9-8.191-15.929Z" transform="translate(-1306.617 -688.985)" fill="#fdfdfd"/>
        <path id="Path_98" data-name="Path 98" d="M1994.46,715.385l28.658-3.565,19.039,28.708,3.5,2.469.086,6.107,6.673,12.332-36.108,5.987,6.143,6.548-.512,3.719-4.437.884-3.584-6.2-2.046,2.479-.17,2.477-4.1-2.655-7.509-19.469Z" transform="translate(-1575.448 -562.275)" fill="#fdfdfd"/>
        <path id="Path_99" data-name="Path 99" d="M2528.91,249.515l18.259-2.656,6.145,3.716h-2.561l-2.9,2.832-6.825,2.124-8.019,4.427Z" transform="translate(-1997.616 -194.998)" fill="#2babe2" opacity="0.74"/>
        <path id="Path_100" data-name="Path 100" d="M313.592,616.73l60.15,6.107-27.3,75.226-27.133-.353-30.375-16.994L274.6,675.053,273.32,671.6l6.485-5.309,1.79-10.179,8.788-6.46-.084-7.876,5.546-6.639,2.815-10.353,7.509,4.424Z" transform="translate(-215.899 -487.162)" fill="#56bce8"/>
        <path id="Path_101" data-name="Path 101" d="M1483.188,751.53a12.871,12.871,0,0,0-12.628,13.1c.343,11.328,10.925,11.328,12.969,28.322,1.365-16.286,11.945-18.055,12.288-28.322A12.872,12.872,0,0,0,1483.188,751.53Zm.17,12.746a3.011,3.011,0,1,1,2.9-3.01,2.958,2.958,0,0,1-2.9,3.01Z" transform="translate(-1161.613 -593.643)" fill="#ec712f"/>
        <path id="Path_102" data-name="Path 102" d="M1680.44,404.78a10.261,10.261,0,0,0-10.07,10.443c.273,9.034,8.708,9.034,10.341,22.58,1.088-12.983,9.523-14.4,9.8-22.58A10.257,10.257,0,0,0,1680.44,404.78Zm.134,10.16a2.4,2.4,0,1,1,2.311-2.4A2.355,2.355,0,0,1,1680.574,414.94Z" transform="translate(-1319.445 -319.741)" fill="#ec712f"/>
        <path id="Path_103" data-name="Path 103" d="M1518.634,122.51a9.209,9.209,0,0,0-9.034,9.38c.244,8.114,7.822,8.114,9.288,20.284.979-11.662,8.557-12.931,8.8-20.284A9.233,9.233,0,0,0,1518.634,122.51Zm.122,9.128a2.158,2.158,0,1,1,2.078-2.155,2.12,2.12,0,0,1-2.078,2.164Z" transform="translate(-1192.451 -96.772)" fill="#ec712f"/>
        <path id="Path_104" data-name="Path 104" d="M2370.226,214.84a7.976,7.976,0,0,0-7.826,8.118c.21,7.019,6.769,7.019,8.038,17.549.84-10.084,7.4-11.187,7.611-17.549A7.974,7.974,0,0,0,2370.226,214.84Zm.1,7.9a1.866,1.866,0,1,1,1.8-1.863,1.83,1.83,0,0,1-1.8,1.864Z" transform="translate(-1866.088 -169.705)" fill="#ec712f"/>
        <path id="Path_105" data-name="Path 105" d="M2059.781,755.75a11.932,11.932,0,0,0-11.71,12.145c.315,10.5,10.126,10.5,12.025,26.261,1.261-15.1,11.078-16.744,11.4-26.261A11.934,11.934,0,0,0,2059.781,755.75Zm.157,11.818a2.792,2.792,0,1,1,2.689-2.79A2.742,2.742,0,0,1,2059.938,767.568Z" transform="translate(-1617.795 -596.976)" fill="#ec712f"/>
        <path id="Path_106" data-name="Path 106" d="M792.7,561.12A11.929,11.929,0,0,0,781,573.267c.317,10.5,10.128,10.5,12.028,26.261,1.26-15.1,11.076-16.742,11.393-26.261A11.944,11.944,0,0,0,792.7,561.12Zm.158,11.82a2.792,2.792,0,1,1,2.691-2.79,2.731,2.731,0,0,1-2.691,2.79Z" transform="translate(-616.921 -443.235)" fill="#ec712f"/>
        <path id="Path_107" data-name="Path 107" d="M353.844,218.56a9.218,9.218,0,0,0-9.044,9.38c.252,8.114,7.815,8.114,9.286,20.284.977-11.664,8.555-12.931,8.8-20.284A9.213,9.213,0,0,0,353.844,218.56Zm.122,9.126a2.155,2.155,0,1,1,2.078-2.156A2.118,2.118,0,0,1,353.966,227.686Z" transform="translate(-272.362 -172.643)" fill="#ec712f"/>
        <path id="Path_108" data-name="Path 108" d="M913.386,401.89a10.779,10.779,0,0,0-10.576,10.971c.286,9.488,9.147,9.488,10.862,23.721,1.143-13.639,10.006-15.126,10.294-23.721A10.777,10.777,0,0,0,913.386,401.89Zm.143,10.675a2.521,2.521,0,1,1,2.431-2.521,2.475,2.475,0,0,1-2.431,2.521Z" transform="translate(-713.14 -317.458)" fill="#ec712f"/>
        <path id="Path_109" data-name="Path 109" d="M751.435,0a7.15,7.15,0,0,0-7.015,7.277c.189,6.3,6.067,6.3,7.2,15.733.758-9.046,6.637-10.03,6.826-15.733A7.15,7.15,0,0,0,751.435,0Zm.095,7.08A1.643,1.643,0,0,1,749.918,5.4a1.611,1.611,0,1,1,3.223,0,1.641,1.641,0,0,1-1.611,1.681Z" transform="translate(-588.026 0)" fill="#ec712f"/>
        <path id="Path_110" data-name="Path 110" d="M514.243,548.49a11.275,11.275,0,0,0-11.063,11.475c.3,9.922,9.567,9.922,11.362,24.809,1.2-14.265,10.465-15.815,10.765-24.809A11.275,11.275,0,0,0,514.243,548.49Zm.149,11.164a2.639,2.639,0,1,1,2.542-2.637,2.591,2.591,0,0,1-2.542,2.637Z" transform="translate(-397.468 -433.259)" fill="#ec712f"/>
        <ellipse id="Ellipse_1" data-name="Ellipse 1" cx="16.637" cy="8.901" rx="16.637" ry="8.901" transform="translate(304.938 182.923)" fill="url(#radial-gradient)"/>
        <ellipse id="Ellipse_2" data-name="Ellipse 2" cx="18.771" cy="10.975" rx="18.771" ry="10.975" transform="translate(182.037 98.801)" fill="url(#radial-gradient-2)"/>
        <ellipse id="Ellipse_31" data-name="Ellipse 31" cx="18.771" cy="10.975" rx="18.771" ry="10.975" transform="translate(307.412 35.373)" fill="url(#radial-gradient-2)"/>
        <ellipse id="Ellipse_30" data-name="Ellipse 30" cx="18.771" cy="10.975" rx="18.771" ry="10.975" transform="translate(144.637 3.788)" fill="url(#radial-gradient-2)"/>
        <ellipse id="Ellipse_3" data-name="Ellipse 3" cx="18.173" cy="10.355" rx="18.173" ry="10.355" transform="translate(67.365 64.774)" fill="url(#radial-gradient-5)"/>
        <ellipse id="Ellipse_4" data-name="Ellipse 4" cx="15.273" cy="8.929" rx="15.273" ry="8.929" transform="translate(151.49 15.41)" fill="url(#radial-gradient-6)"/>
        <ellipse id="Ellipse_5" data-name="Ellipse 5" cx="18.771" cy="10.975" rx="18.771" ry="10.975" transform="translate(157.018 135.824)" fill="url(#radial-gradient-7)"/>
        <ellipse id="Ellipse_6" data-name="Ellipse 6" cx="18.771" cy="10.975" rx="18.771" ry="10.975" transform="translate(97.693 130.805)" fill="url(#radial-gradient-8)"/>
        <ellipse id="Ellipse_7" data-name="Ellipse 7" cx="16.126" cy="8.449" rx="16.126" ry="8.449" transform="translate(426.544 182.923)" fill="url(#radial-gradient-9)"/>
        <ellipse id="Ellipse_8" data-name="Ellipse 8" cx="16.126" cy="9.267" rx="16.126" ry="9.267" transform="translate(344.867 100.539)" fill="url(#radial-gradient-10)"/>
        <ellipse id="Ellipse_9" data-name="Ellipse 9" cx="14.418" cy="8.939" rx="14.418" ry="8.939" transform="translate(313.943 46.719)" fill="url(#radial-gradient-11)"/>
        <ellipse id="Ellipse_10" data-name="Ellipse 10" cx="14.418" cy="8.939" rx="14.418" ry="8.939" transform="translate(490.045 61.589)" fill="url(#radial-gradient-12)"/>
        <ellipse id="Ellipse_11" data-name="Ellipse 11" cx="4.011" cy="2.212" rx="4.011" ry="2.212" transform="translate(87.966 84.785)" fill="#fab334"/>
        <ellipse id="Ellipse_12" data-name="Ellipse 12" cx="4.011" cy="2.212" rx="4.011" ry="2.212" transform="translate(254.854 181.43)" fill="#fab334"/>
        <ellipse id="Ellipse_13" data-name="Ellipse 13" cx="4.011" cy="2.212" rx="4.011" ry="2.212" transform="translate(295.808 64.606)" fill="#fab334"/>
        <ellipse id="Ellipse_14" data-name="Ellipse 14" cx="4.011" cy="2.212" rx="4.011" ry="2.212" transform="translate(403.058 188.342)" fill="#3866ab"/>
        <ellipse id="Ellipse_15" data-name="Ellipse 15" cx="4.011" cy="2.212" rx="4.011" ry="2.212" transform="translate(318.162 127.091)" fill="#3866ab"/>
        <ellipse id="Ellipse_16" data-name="Ellipse 16" cx="4.011" cy="2.212" rx="4.011" ry="2.212" transform="translate(370.037 125.851)" fill="#fff"/>
        <ellipse id="Ellipse_17" data-name="Ellipse 17" cx="3.071" cy="1.695" rx="3.071" ry="1.695" transform="translate(464.744 152.755)" fill="#fab334"/>
        <ellipse id="Ellipse_18" data-name="Ellipse 18" cx="3.071" cy="1.695" rx="3.071" ry="1.695" transform="translate(383.007 65.138)" fill="#fab334"/>
        <ellipse id="Ellipse_19" data-name="Ellipse 19" cx="3.071" cy="1.695" rx="3.071" ry="1.695" transform="translate(459.797 94.342)" fill="#c6c6c6"/>
        <ellipse id="Ellipse_20" data-name="Ellipse 20" cx="3.071" cy="1.695" rx="3.071" ry="1.695" transform="translate(96.67 21.948)" fill="#c6c6c6"/>
        <ellipse id="Ellipse_21" data-name="Ellipse 21" cx="3.071" cy="1.695" rx="3.071" ry="1.695" transform="translate(502.797 173.463)" fill="#c6c6c6"/>
        <ellipse id="Ellipse_22" data-name="Ellipse 22" cx="4.948" cy="2.731" rx="4.948" ry="2.731" transform="translate(303.829 241.841)" fill="#fdfdfd"/>
        <ellipse id="Ellipse_23" data-name="Ellipse 23" cx="4.948" cy="2.731" rx="4.948" ry="2.731" transform="translate(79.094 128.557)" fill="#c6c6c6"/>
        <ellipse id="Ellipse_24" data-name="Ellipse 24" cx="2.901" cy="1.601" rx="2.901" ry="1.601" transform="translate(237.278 81.52)" fill="#2babe2"/>
        <ellipse id="Ellipse_25" data-name="Ellipse 25" cx="4.011" cy="2.212" rx="4.011" ry="2.212" transform="translate(273.795 53.633)" fill="#f28300"/>
        <ellipse id="Ellipse_26" data-name="Ellipse 26" cx="4.011" cy="2.212" rx="4.011" ry="2.212" transform="translate(177.041 72.749)" fill="#fab334" opacity="0.45"/>
      </g>
    </g>
  </g>
</svg>
