<svg xmlns="http://www.w3.org/2000/svg" width="57.912" height="80.696" viewBox="0 0 57.912 80.696">
  <g id="cable-internet-icon" transform="translate(57.379 80.346) rotate(180)">
    <path id="Path_962" data-name="Path 962" d="M57.029,40a28.258,28.258,0,0,0-5.767-17.2A28.787,28.787,0,0,0,37.5,12.932V4.3A4.3,4.3,0,0,0,33.2,0H23.827a4.3,4.3,0,0,0-4.3,4.3v8.635A28.519,28.519,0,0,0,1.563,49.308v21.7A2.737,2.737,0,0,0,4.3,73.746h.078v5.078a1.172,1.172,0,1,0,2.344,0V73.746h.7a2.737,2.737,0,0,0,2.734-2.734V61.794a28.452,28.452,0,0,0,36.717,0v9.218a2.737,2.737,0,0,0,2.734,2.734h.078v5.078a1.172,1.172,0,0,0,2.344,0V73.746h.7a2.737,2.737,0,0,0,2.734-2.734v-21.7A28.4,28.4,0,0,0,57.029,40Zm-33.2-3.281H33.2a4.3,4.3,0,0,0,4.3-4.3V29.7a13.671,13.671,0,1,1-17.968,0V32.42A4.3,4.3,0,0,0,23.827,36.717Zm-4.3-9.968a16.015,16.015,0,1,0,17.968,0V22.218a19.921,19.921,0,1,1-17.968,0ZM21.874,4.3a1.956,1.956,0,0,1,1.953-1.953H33.2A1.956,1.956,0,0,1,35.155,4.3V32.42A1.956,1.956,0,0,1,33.2,34.373H23.827a1.956,1.956,0,0,1-1.953-1.953ZM7.422,71.4H4.3a.391.391,0,0,1-.391-.391V54.388a28.689,28.689,0,0,0,3.906,5.2V71.012A.391.391,0,0,1,7.422,71.4ZM2.344,40A26.342,26.342,0,0,1,19.53,15.413v4.219a22.261,22.261,0,1,0,17.968,0V15.41A26.172,26.172,0,1,1,2.344,40ZM53.122,71.012a.391.391,0,0,1-.391.391H49.607a.391.391,0,0,1-.391-.391V59.586a28.69,28.69,0,0,0,3.906-5.2Z" fill="#d4f6cc" stroke="#d4f6cc" stroke-width="0.7"/>
    <path id="Path_963" data-name="Path 963" d="M1.171,7.341h3.42l-3.42,3.428a1.172,1.172,0,1,0,1.658,1.656L8.255,7a1.172,1.172,0,0,0-.828-2H4L7.042,1.954A1.172,1.172,0,0,0,5.389.3L.343,5.346a1.172,1.172,0,0,0,.828,2Z" transform="translate(24.219 11.997)" fill="#d4f6cc" stroke="#d4f6cc" stroke-width="0.7"/>
  </g>
</svg>
