<svg xmlns="http://www.w3.org/2000/svg" width="80.595" height="80.596" viewBox="0 0 80.595 80.596">
  <g id="dsl-internet-icon" transform="translate(0.3 0.3)">
    <g id="Group_345" data-name="Group 345" transform="translate(51.35 3.572)">
      <g id="Group_344" data-name="Group 344">
        <path id="Path_964" data-name="Path 964" d="M342.141,26.987l-3.734-3.734a1.332,1.332,0,0,0-1.885,0l-7.469,7.469a1.333,1.333,0,0,0,0,1.885l3.735,3.734a1.333,1.333,0,0,0,1.885,0l7.469-7.469a1.333,1.333,0,0,0,0-1.885Zm-8.412,6.526-1.849-1.849,5.584-5.584,1.849,1.849Z" transform="translate(-328.662 -22.861)" fill="#d4f6cc" stroke="#d4f6cc" stroke-width="0.6"/>
      </g>
    </g>
    <g id="Group_347" data-name="Group 347" transform="translate(55.084 7.307)">
      <g id="Group_346" data-name="Group 346">
        <path id="Path_965" data-name="Path 965" d="M366.041,50.891l-3.735-3.734a1.333,1.333,0,0,0-1.885,0l-7.469,7.469a1.332,1.332,0,0,0,0,1.885l3.734,3.734a1.333,1.333,0,0,0,1.885,0l7.469-7.469A1.331,1.331,0,0,0,366.041,50.891Zm-8.412,6.527-1.849-1.849,5.584-5.584,1.849,1.849Z" transform="translate(-352.561 -46.766)" fill="#d4f6cc" stroke="#d4f6cc" stroke-width="0.6"/>
      </g>
    </g>
    <g id="Group_349" data-name="Group 349" transform="translate(58.819 11.041)">
      <g id="Group_348" data-name="Group 348">
        <path id="Path_966" data-name="Path 966" d="M389.946,74.791l-3.734-3.734a1.332,1.332,0,0,0-1.885,0l-7.469,7.469a1.333,1.333,0,0,0,0,1.885l3.735,3.734a1.333,1.333,0,0,0,1.885,0l7.469-7.469a1.333,1.333,0,0,0,0-1.885Zm-8.412,6.527-1.849-1.849,5.584-5.584,1.849,1.849Z" transform="translate(-376.467 -70.665)" fill="#d4f6cc" stroke="#d4f6cc" stroke-width="0.6"/>
      </g>
    </g>
    <g id="Group_351" data-name="Group 351" transform="translate(62.553 14.776)">
      <g id="Group_350" data-name="Group 350">
        <path id="Path_967" data-name="Path 967" d="M413.846,98.7l-3.734-3.735a1.333,1.333,0,0,0-1.885,0l-7.469,7.469a1.332,1.332,0,0,0,0,1.885l3.734,3.734a1.333,1.333,0,0,0,1.885,0l7.469-7.469A1.332,1.332,0,0,0,413.846,98.7Zm-8.412,6.526-1.849-1.849,5.584-5.584,1.849,1.849Z" transform="translate(-400.366 -94.57)" fill="#d4f6cc" stroke="#d4f6cc" stroke-width="0.6"/>
      </g>
    </g>
    <g id="Group_353" data-name="Group 353" transform="translate(37.119 21.325)">
      <g id="Group_352" data-name="Group 352">
        <path id="Path_968" data-name="Path 968" d="M258.751,142.462l-5.6-5.6a1.372,1.372,0,0,0-1.885,0L239.127,149a5.294,5.294,0,0,0,7.486,7.486l12.138-12.137a1.333,1.333,0,0,0,0-1.885ZM244.728,154.6a2.628,2.628,0,0,1-3.716-3.717l11.194-11.194,3.716,3.717Z" transform="translate(-237.576 -136.484)" fill="#d4f6cc" stroke="#d4f6cc" stroke-width="0.6"/>
      </g>
    </g>
    <g id="Group_355" data-name="Group 355" transform="translate(17.739 31.58)">
      <g id="Group_354" data-name="Group 354">
        <path id="Path_969" data-name="Path 969" d="M140.276,226.97l-24.46-24.456a1.333,1.333,0,0,0-1.885,1.885l24.459,24.456a1.333,1.333,0,1,0,1.886-1.885Z" transform="translate(-113.539 -202.123)" fill="#d4f6cc" stroke="#d4f6cc" stroke-width="0.6"/>
      </g>
    </g>
    <g id="Group_357" data-name="Group 357" transform="translate(42.013 55.855)">
      <g id="Group_356" data-name="Group 356">
        <path id="Path_970" data-name="Path 970" d="M274.91,361.619l-3.734-3.734a1.333,1.333,0,0,0-1.885,1.885l3.734,3.735a1.333,1.333,0,1,0,1.885-1.885Z" transform="translate(-268.899 -357.493)" fill="#d4f6cc" stroke="#d4f6cc" stroke-width="0.6"/>
      </g>
    </g>
    <g id="Group_359" data-name="Group 359" transform="translate(10.162 54.921)">
      <g id="Group_358" data-name="Group 358">
        <path id="Path_971" data-name="Path 971" d="M79.566,359.37,72.1,351.9a1.332,1.332,0,0,0-1.885,0l-4.192,4.192a3.328,3.328,0,0,0,0,4.707l4.649,4.649a3.328,3.328,0,0,0,4.705,0l4.192-4.192a1.333,1.333,0,0,0,0-1.885Zm-6.076,4.194a.662.662,0,0,1-.935,0l-4.649-4.649a.661.661,0,0,1,0-.936l3.249-3.249,5.585,5.585Z" transform="translate(-65.045 -351.51)" fill="#d4f6cc" stroke="#d4f6cc" stroke-width="0.6"/>
      </g>
    </g>
    <g id="Group_361" data-name="Group 361" transform="translate(0 62.407)">
      <g id="Group_360" data-name="Group 360">
        <path id="Path_972" data-name="Path 972" d="M17.218,403.536,13.483,399.8a1.372,1.372,0,0,0-1.885,0l-11.2,11.2a1.333,1.333,0,0,0,0,1.885l3.734,3.734a1.333,1.333,0,0,0,1.885,0l11.2-11.2A1.332,1.332,0,0,0,17.218,403.536ZM5.072,413.8l-1.849-1.849,9.318-9.318,1.849,1.849Z" transform="translate(-0.004 -399.427)" fill="#d4f6cc" stroke="#d4f6cc" stroke-width="0.6"/>
      </g>
    </g>
    <g id="Group_363" data-name="Group 363" transform="translate(35.479)">
      <g id="Group_362" data-name="Group 362">
        <path id="Path_973" data-name="Path 973" d="M270.434,21.7,249.9,1.163a3.981,3.981,0,0,0-5.624,0l-16.8,16.8a1.333,1.333,0,0,0,0,1.885l9.337,9.336a1.372,1.372,0,0,0,1.885,0l4.659-4.66,3.717,3.717-4.66,4.659a1.333,1.333,0,0,0,0,1.885l9.336,9.337a1.333,1.333,0,0,0,1.885,0l16.8-16.8A3.983,3.983,0,0,0,270.434,21.7Zm-1.887,3.739L252.686,41.3l-7.45-7.452,4.659-4.659a1.333,1.333,0,0,0,0-1.885l-5.6-5.6a1.372,1.372,0,0,0-1.885,0l-4.659,4.66-7.45-7.45L246.158,3.048a1.315,1.315,0,0,1,1.853,0l20.535,20.537A1.313,1.313,0,0,1,268.547,25.438Z" transform="translate(-227.079)" fill="#d4f6cc" stroke="#d4f6cc" stroke-width="0.6"/>
      </g>
    </g>
    <g id="Group_365" data-name="Group 365" transform="translate(11.204 15.709)">
      <g id="Group_364" data-name="Group 364">
        <path id="Path_974" data-name="Path 974" d="M124.4,128.941l-11.2-11.2a1.332,1.332,0,0,0-1.885,0l-6.536,6.536a2.692,2.692,0,0,1-3.716,0,2.63,2.63,0,0,1,0-3.717l6.536-6.536a1.332,1.332,0,0,0,0-1.885l-11.2-11.2a1.332,1.332,0,0,0-1.885,0L78.637,116.8a1.334,1.334,0,0,0-.323.521l-6.536,19.607A1.335,1.335,0,0,0,72.1,138.3l14.938,14.938a1.329,1.329,0,0,0,.943.391,1.347,1.347,0,0,0,.421-.068l19.607-6.536a1.352,1.352,0,0,0,.521-.323l15.87-15.872A1.332,1.332,0,0,0,124.4,128.941ZM106.868,144.59l-18.526,6.176L74.569,136.993l6.176-18.529,14.706-14.706,9.318,9.318-5.593,5.593a5.3,5.3,0,0,0,0,7.488,5.419,5.419,0,0,0,7.486,0l5.593-5.593,9.318,9.32Z" transform="translate(-71.71 -100.54)" fill="#d4f6cc" stroke="#d4f6cc" stroke-width="0.6"/>
      </g>
    </g>
    <g id="Group_367" data-name="Group 367" transform="translate(19.606 42.785)">
      <g id="Group_366" data-name="Group 366">
        <path id="Path_975" data-name="Path 975" d="M142.7,289.168,127.763,274.23a1.333,1.333,0,0,0-1.885,1.885l14.938,14.938a1.333,1.333,0,0,0,1.885-1.885Z" transform="translate(-125.486 -273.839)" fill="#d4f6cc" stroke="#d4f6cc" stroke-width="0.6"/>
      </g>
    </g>
    <g id="Group_369" data-name="Group 369" transform="translate(19.605 50.254)">
      <g id="Group_368" data-name="Group 368">
        <path id="Path_976" data-name="Path 976" d="M135.231,329.5l-7.469-7.469a1.333,1.333,0,0,0-1.885,1.885l7.469,7.469a1.333,1.333,0,1,0,1.885-1.885Z" transform="translate(-125.485 -321.643)" fill="#d4f6cc" stroke="#d4f6cc" stroke-width="0.6"/>
      </g>
    </g>
  </g>
</svg>
