<svg xmlns="http://www.w3.org/2000/svg" version="1.1" xmlns:xlink="http://www.w3.org/1999/xlink"
    xmlns:svgjs="http://svgjs.com/svgjs" width="512" height="512" x="0" y="0" viewBox="0 0 60 60"
    style="enable-background:new 0 0 512 512" xml:space="preserve" class="">
    <g>
        <path
            d="M13.137,38.361A7,7,0,1,0,7,42a7.025,7.025,0,0,0,1.264-.12L10.831,45.7a1,1,0,0,1,.169.556V58a2,2,0,0,0,2,2h2a2,2,0,0,0,2-2V45a2.983,2.983,0,0,0-.552-1.739ZM2,35a5,5,0,1,1,5,5A5.006,5.006,0,0,1,2,35ZM15,58H13V46.259a2.985,2.985,0,0,0-.51-1.672l-2.268-3.379a7.042,7.042,0,0,0,1.632-1.176l2.953,4.37A1.018,1.018,0,0,1,15,45Z"
            fill="#d4f6cc" data-original="#000000" class=""></path>
        <path
            d="M19,58a2,2,0,0,0,2,2h2a2,2,0,0,0,2-2V30a3.011,3.011,0,0,0-.563-1.757l-6.292-8.895A7,7,0,1,0,12,23a7.035,7.035,0,0,0,1.282-.123l5.534,7.832a.983.983,0,0,1,.184.576ZM7,16a5,5,0,1,1,5,5A5.006,5.006,0,0,1,7,16Zm8.249,6.2a7.051,7.051,0,0,0,1.625-1.181L22.807,29.4A1.018,1.018,0,0,1,23,30V58H21V31.285a2.974,2.974,0,0,0-.551-1.731Z"
            fill="#d4f6cc" data-original="#000000" class=""></path>
        <path
            d="M53,28a7,7,0,0,0-6.137,10.361l-3.3,4.877A3.019,3.019,0,0,0,43,45V58a2,2,0,0,0,2,2h2a2,2,0,0,0,2-2V46.259a1,1,0,0,1,.17-.557l2.566-3.822A7,7,0,1,0,53,28ZM47.511,44.586A2.984,2.984,0,0,0,47,46.259V58H45V45a1.045,1.045,0,0,1,.208-.62l2.938-4.348a7.042,7.042,0,0,0,1.632,1.176ZM53,40a5,5,0,1,1,5-5A5.006,5.006,0,0,1,53,40Z"
            fill="#d4f6cc" data-original="#000000" class=""></path>
        <path
            d="M48,23a7.006,7.006,0,1,0-6.145-3.652l-6.289,8.89A3.019,3.019,0,0,0,35,30V58a2,2,0,0,0,2,2h2a2,2,0,0,0,2-2V31.285a.988.988,0,0,1,.184-.577l5.534-7.831A7.035,7.035,0,0,0,48,23Zm0-12a5,5,0,1,1-5,5A5.006,5.006,0,0,1,48,11ZM39.551,29.553A2.98,2.98,0,0,0,39,31.285V58H37V30a1.026,1.026,0,0,1,.2-.6l5.93-8.383A7.03,7.03,0,0,0,44.751,22.2Z"
            fill="#d4f6cc" data-original="#000000" class=""></path>
        <path
            d="M29,60h2a2,2,0,0,0,2-2V13.315a7,7,0,1,0-6,0V58A2,2,0,0,0,29,60Zm2-2H29V13.92a6.29,6.29,0,0,0,2,0ZM25,7a5,5,0,1,1,5,5A5.006,5.006,0,0,1,25,7Z"
            fill="#d4f6cc" data-original="#000000" class=""></path>
    </g>
</svg>