<svg id="fin-location-icon" xmlns="http://www.w3.org/2000/svg" width="27.38" height="40" viewBox="0 0 27.38 40">
  <path id="Path_991" data-name="Path 991" d="M36.017,8A12.722,12.722,0,0,0,23.308,20.735c0,7.386,9.274,16.822,11.978,19.416a1.05,1.05,0,0,0,1.462,0c2.7-2.594,11.978-12.03,11.978-19.416A12.723,12.723,0,0,0,36.017,8Zm0,17.029A4.294,4.294,0,1,1,40.3,20.735,4.289,4.289,0,0,1,36.017,25.029Z" transform="translate(-22.327 -8)" fill="#003865"/>
  <path id="Path_992" data-name="Path 992" d="M42.1,67.589c-.671.794-1.331,1.538-1.966,2.225,1.312.588,2.125,1.4,2.125,2.291,0,1.8-3.278,3.254-7.321,3.254S27.621,73.9,27.621,72.1c0-.894.813-1.7,2.125-2.291-.635-.687-1.3-1.43-1.966-2.225-3.911,1.108-6.528,3.088-6.528,5.355,0,3.475,6.129,6.292,13.69,6.292s13.691-2.817,13.691-6.292C48.632,70.677,46.016,68.7,42.1,67.589Z" transform="translate(-21.252 -39.236)" fill="#003865"/>
</svg>
