<svg xmlns="http://www.w3.org/2000/svg" width="86.452" height="81.296" viewBox="0 0 86.452 81.296">
  <g id="fixed-wireless-icon" transform="translate(0.65 0.65)">
    <g id="Group_371" data-name="Group 371" transform="translate(0 0)">
      <path id="Path_979" data-name="Path 979" d="M77.668,110.422H71.306L84.784,78.974A2.495,2.495,0,1,0,80.2,77.008l-14.32,33.413h-46.6L4.954,77.008A2.495,2.495,0,1,0,.368,78.974l13.478,31.448H7.484A7.493,7.493,0,0,0,0,117.906v14.968a7.493,7.493,0,0,0,7.484,7.484h2.661v2.661a2.495,2.495,0,1,0,4.989,0v-2.661H70.017v2.661a2.495,2.495,0,1,0,4.989,0v-2.661h2.661a7.493,7.493,0,0,0,7.484-7.484V117.906A7.493,7.493,0,0,0,77.668,110.422Zm2.495,22.452a2.5,2.5,0,0,1-2.495,2.495H7.484a2.5,2.5,0,0,1-2.495-2.495V117.906a2.5,2.5,0,0,1,2.495-2.495H77.668a2.5,2.5,0,0,1,2.495,2.495Z" transform="translate(0 -65.518)" fill="#d4f6cc" stroke="#003865" stroke-width="1.3"/>
      <path id="Path_980" data-name="Path 980" d="M220.578,197.695a2.495,2.495,0,0,0,3.528,3.528,2.464,2.464,0,0,1,3.508,0,2.495,2.495,0,0,0,3.528-3.528,7.453,7.453,0,0,0-10.564,0Z" transform="translate(-183.284 -165.564)" fill="#d4f6cc" stroke="#003865" stroke-width="1.3"/>
      <path id="Path_981" data-name="Path 981" d="M96.753,30a32.406,32.406,0,0,1,45.867,0,2.495,2.495,0,1,0,3.529-3.527,37.4,37.4,0,0,0-52.926,0A2.495,2.495,0,0,0,96.753,30Z" transform="translate(-77.111 -15.5)" fill="#d4f6cc" stroke="#003865" stroke-width="1.3"/>
      <path id="Path_982" data-name="Path 982" d="M174.479,87.075a2.5,2.5,0,0,0,0-3.528,27.415,27.415,0,0,0-38.806,0,2.495,2.495,0,1,0,3.53,3.526,22.425,22.425,0,0,1,31.746,0A2.5,2.5,0,0,0,174.479,87.075Z" transform="translate(-112.502 -65.521)" fill="#d4f6cc" stroke="#003865" stroke-width="1.3"/>
      <path id="Path_983" data-name="Path 983" d="M202.807,144.148a2.5,2.5,0,0,0,0-3.528,17.44,17.44,0,0,0-24.686,0,2.495,2.495,0,0,0,3.528,3.528,12.45,12.45,0,0,1,17.631,0A2.5,2.5,0,0,0,202.807,144.148Z" transform="translate(-147.888 -115.543)" fill="#d4f6cc" stroke="#003865" stroke-width="1.3"/>
      <path id="Path_984" data-name="Path 984" d="M303.495,345.5A2.5,2.5,0,0,0,301,347.995v4.989a2.495,2.495,0,1,0,4.989,0v-4.989A2.5,2.5,0,0,0,303.495,345.5Z" transform="translate(-250.94 -290.617)" fill="#d4f6cc" stroke="#003865" stroke-width="1.3"/>
      <path id="Path_985" data-name="Path 985" d="M363.495,345.5A2.5,2.5,0,0,0,361,347.995v4.989a2.495,2.495,0,1,0,4.989,0v-4.989A2.5,2.5,0,0,0,363.495,345.5Z" transform="translate(-300.962 -290.617)" fill="#d4f6cc" stroke="#003865" stroke-width="1.3"/>
      <path id="Path_986" data-name="Path 986" d="M423.495,345.5A2.5,2.5,0,0,0,421,347.995v4.989a2.495,2.495,0,1,0,4.989,0v-4.989A2.5,2.5,0,0,0,423.495,345.5Z" transform="translate(-350.983 -290.617)" fill="#d4f6cc" stroke="#003865" stroke-width="1.3"/>
    </g>
  </g>
</svg>
