<svg id="how-much-icon" xmlns="http://www.w3.org/2000/svg" width="25.211" height="40" viewBox="0 0 25.211 40">
  <g id="Group_391" data-name="Group 391" transform="translate(0 0)">
    <g id="Group_390" data-name="Group 390" transform="translate(0 0)">
      <g id="Group_389" data-name="Group 389">
        <path id="Path_998" data-name="Path 998" d="M7.853,13.341h4.423a1.865,1.865,0,0,0,1.852-1.588A6.326,6.326,0,0,1,15.664,8.12a4.117,4.117,0,0,1,3.013-1.026,4.327,4.327,0,0,1,3.2,1.154,3.871,3.871,0,0,1,1.162,2.959,3.445,3.445,0,0,1-.412,1.648,12.669,12.669,0,0,1-2.811,2.862A15.7,15.7,0,0,0,15.754,20.5a16.175,16.175,0,0,0-1.169,7.012h0a1.874,1.874,0,0,0,1.874,1.873h4a1.874,1.874,0,0,0,1.874-1.873h0a9.824,9.824,0,0,1,.465-3.783c.135-.3.7-1.184,2.924-3.026a16.841,16.841,0,0,0,4.258-4.779,10.541,10.541,0,0,0,1.229-5A10.035,10.035,0,0,0,27.605,3a13.28,13.28,0,0,0-8.958-3,12.733,12.733,0,0,0-8.7,3.064A11.992,11.992,0,0,0,6,11.319H6A1.856,1.856,0,0,0,7.853,13.341Z" transform="translate(-5.992 0)" fill="#003865"/>
        <path id="Path_999" data-name="Path 999" d="M126.382,438.151a1.878,1.878,0,0,0,1.878-1.878v-4a1.878,1.878,0,0,0-1.878-1.878h-4a1.878,1.878,0,0,0-1.878,1.878v4a1.878,1.878,0,0,0,1.878,1.878Z" transform="translate(-111.931 -398.151)" fill="#003865"/>
      </g>
    </g>
  </g>
</svg>
