<svg id="internet-speed-icon" xmlns="http://www.w3.org/2000/svg" width="66.827" height="40" viewBox="0 0 66.827 40">
  <g id="Group_388" data-name="Group 388" transform="translate(0 0)">
    <path id="Path_994" data-name="Path 994" d="M69.134,38.836a33.387,33.387,0,0,0-9.742-17.848l-.59.59-8.413,8.408A20.392,20.392,0,0,1,55.7,39.721a2.082,2.082,0,0,0,2.066,1.623h9.3a2.115,2.115,0,0,0,1.624-.738,1.838,1.838,0,0,0,.443-1.77ZM37.252,11.548V24.085a20.668,20.668,0,0,1,10.923,4.13l9-9a33.127,33.127,0,0,0-19.926-7.67ZM12.75,21.725l-.59-.738A34.485,34.485,0,0,0,2.418,38.836a1.938,1.938,0,0,0,.443,1.77,2.371,2.371,0,0,0,1.624.738h9.3a2.082,2.082,0,0,0,2.066-1.623,20.392,20.392,0,0,1,5.314-9.735Zm1.624-2.655,9,9a.515.515,0,0,1,.3-.148,2.9,2.9,0,0,1,.738-2.213,3.854,3.854,0,0,1,2.952-1.475,4.394,4.394,0,0,1,2.214.738,19.167,19.167,0,0,1,4.871-1.033V11.4a35.121,35.121,0,0,0-20.074,7.67Z" transform="translate(-2.362 -11.4)" fill="#003865"/>
    <g id="Group_387" data-name="Group 387" transform="translate(24.229 15.862)">
      <path id="Path_995" data-name="Path 995" d="M27.975,29.457A5.031,5.031,0,0,0,26.5,29.6c-2.07-2.218-5.324-5.916-6.507-7.247-.444-.444-1.331,0-1.183.592.3,1.035-.148-.592,2.81,9.465a8.118,8.118,0,0,0-2.07,5.472,8.522,8.522,0,0,0,8.43,8.43,8.43,8.43,0,1,0,0-16.859Zm0,12.127a3.347,3.347,0,0,1-3.4-3.4,3.44,3.44,0,0,1,3.4-3.4,3.347,3.347,0,0,1,3.4,3.4A3.44,3.44,0,0,1,27.975,41.584Z" transform="translate(-18.789 -22.178)" fill="#003865"/>
    </g>
  </g>
</svg>
