<svg id="location-icon" xmlns="http://www.w3.org/2000/svg" width="26.6" height="26.6" viewBox="0 0 26.6 26.6">
  <g id="Group_25" data-name="Group 25">
    <path id="Path_43" data-name="Path 43" d="M24.331,357.211a.779.779,0,0,0-.75,1.366c.928.51,1.461,1.075,1.461,1.551,0,.582-.824,1.484-3.139,2.27a27.827,27.827,0,0,1-8.6,1.2,27.827,27.827,0,0,1-8.6-1.2c-2.314-.786-3.139-1.688-3.139-2.27,0-.476.532-1.041,1.461-1.551a.779.779,0,1,0-.75-1.366C1.234,357.78,0,358.748,0,360.129c0,1.059.728,2.568,4.2,3.746a29.4,29.4,0,0,0,9.1,1.287,29.4,29.4,0,0,0,9.1-1.287c3.468-1.178,4.2-2.687,4.2-3.746C26.6,358.748,25.366,357.78,24.331,357.211Z" transform="translate(0 -338.562)" fill="#ccc"/>
    <path id="Path_44" data-name="Path 44" d="M89.527,345.471a25.32,25.32,0,0,0,11.767,0c1.935-.547,2.917-1.338,2.917-2.352s-.981-1.805-2.917-2.352c-.43-.121-.9-.228-1.394-.319q-.4.7-.848,1.44c.55.083,1.066.184,1.535.3a3.98,3.98,0,0,1,2.052.928,3.979,3.979,0,0,1-2.052.928,21.521,21.521,0,0,1-4.909.557c-.088.007-.178.01-.267.01s-.179,0-.267-.01a21.517,21.517,0,0,1-4.909-.557,3.979,3.979,0,0,1-2.052-.928,3.979,3.979,0,0,1,2.052-.928c.469-.119.985-.221,1.535-.3q-.443-.74-.848-1.44c-.5.091-.964.2-1.394.319-1.935.547-2.917,1.338-2.917,2.352S87.591,344.924,89.527,345.471Z" transform="translate(-82.11 -322.761)" fill="#ccc"/>
    <path id="Path_45" data-name="Path 45" d="M123.8,20.295a1.962,1.962,0,0,0,1.686-.946c2.536-4.149,5.559-9.617,5.559-12.1a7.244,7.244,0,0,0-14.489,0c0,2.488,3.023,7.956,5.559,12.1A1.962,1.962,0,0,0,123.8,20.295ZM120.893,6.747A2.912,2.912,0,1,1,123.8,9.659,2.915,2.915,0,0,1,120.893,6.747Z" transform="translate(-110.504)" fill="#ccc"/>
  </g>
</svg>
