<svg xmlns="http://www.w3.org/2000/svg" width="20" height="20" viewBox="0 0 20 20">
  <g id="phone-icon" transform="translate(-0.006)">
    <g id="Group_329" data-name="Group 329" transform="translate(0.006)">
      <g id="Group_328" data-name="Group 328" transform="translate(0)">
        <path id="Path_958" data-name="Path 958" d="M15.169,57.416a1.4,1.4,0,0,0-2.113,0c-.494.49-.988.979-1.473,1.478a.291.291,0,0,1-.407.075c-.32-.174-.66-.315-.967-.506A15.322,15.322,0,0,1,6.515,55.1,8.751,8.751,0,0,1,5.192,52.98a.3.3,0,0,1,.075-.39c.494-.477.975-.967,1.461-1.457a1.4,1.4,0,0,0,0-2.162c-.386-.39-.772-.772-1.158-1.162s-.793-.8-1.2-1.2a1.406,1.406,0,0,0-2.113,0c-.5.49-.975.992-1.482,1.473A2.4,2.4,0,0,0,.02,49.713a6.875,6.875,0,0,0,.531,2.959,17.982,17.982,0,0,0,3.192,5.317,19.751,19.751,0,0,0,6.541,5.117,9.46,9.46,0,0,0,3.623,1.054,2.655,2.655,0,0,0,2.279-.867c.423-.473.9-.9,1.349-1.357a1.412,1.412,0,0,0,.008-2.15Q16.36,58.6,15.169,57.416Z" transform="translate(-0.006 -44.167)" fill="#fff"/>
        <path id="Path_959" data-name="Path 959" d="M242.483,102.072l1.576-.269a7.072,7.072,0,0,0-5.982-5.8l-.222,1.584a5.466,5.466,0,0,1,4.629,4.488Z" transform="translate(-228.067 -92.048)" fill="#fff"/>
        <path id="Path_960" data-name="Path 960" d="M249.637,3.322A11.618,11.618,0,0,0,242.976,0l-.222,1.584A10.137,10.137,0,0,1,251.332,9.9l1.576-.269A11.7,11.7,0,0,0,249.637,3.322Z" transform="translate(-232.908)" fill="#fff"/>
      </g>
    </g>
  </g>
</svg>
