<svg xmlns="http://www.w3.org/2000/svg" width="66.714" height="80.196" viewBox="0 0 66.714 80.196">
  <g id="satellite-internet-icon" transform="translate(0.1 0.1)">
    <g id="Group_373" data-name="Group 373" transform="translate(46.123 28.848)">
      <g id="Group_372" data-name="Group 372">
        <path id="Path_987" data-name="Path 987" d="M341.106,185.195a1.562,1.562,0,0,0-2.412,1.987c.019.023.041.05.061.072a1.562,1.562,0,0,0,2.35-2.059Z" transform="translate(-338.346 -184.635)" fill="#d4f6cc" stroke="#d4f6cc" stroke-width="0.2"/>
      </g>
    </g>
    <g id="Group_375" data-name="Group 375" transform="translate(0 8.438)">
      <g id="Group_374" data-name="Group 374">
        <path id="Path_988" data-name="Path 988" d="M79.688,105.949q.926.058,1.839.058A25.159,25.159,0,0,0,99.587,98.75c1.241-1.241,2.455-3.706,1.195-8.4-.867-3.231-5.831-11.132-8.587-15.147a1.562,1.562,0,0,0-2.576,1.769c2.558,3.727,7.369,11.3,8.145,14.188.682,2.541.544,4.454-.387,5.385-1.406,1.406-4.908.987-9.365-1.121A52.567,52.567,0,0,1,77.465,88.51a7.657,7.657,0,0,0,.475-9.015l8.131-8.131a5.039,5.039,0,1,0-2.21-2.21l-8.131,8.131a7.644,7.644,0,0,0-9.006.467A52.408,52.408,0,0,1,59.9,67.31c-2.108-4.458-2.528-7.959-1.121-9.365,2.1-2.1,9.489-.252,19.032,7.323a1.563,1.563,0,0,0,1.943-2.448,47.644,47.644,0,0,0-13.225-7.8c-5.664-1.975-8.541-.7-9.958.712h0a25.4,25.4,0,0,0-7.2,19.9,32.284,32.284,0,0,0,9.612,20.7,34.7,34.7,0,0,0,3.19,2.82c0,.012-.009.023-.013.035l-4.35,13.859h-3.72A10.961,10.961,0,0,0,43.144,124a1.563,1.563,0,0,0,1.562,1.562H87.488A1.563,1.563,0,0,0,89.05,124,10.961,10.961,0,0,0,78.1,113.052H72.979v-8.3A30.373,30.373,0,0,0,79.688,105.949ZM87,65.518a1.914,1.914,0,1,1,0,2.707A1.907,1.907,0,0,1,87,65.518ZM71.548,79.163a4.485,4.485,0,0,1,3.191,1.321v0h0a4.521,4.521,0,0,1,.35,5.987q-1.619-1.449-3.208-3.035Q70.25,81.8,68.758,80.129A4.48,4.48,0,0,1,71.548,79.163Zm-6.693,21.886a32.647,32.647,0,0,0,5,2.6v9.4H61.087ZM78.1,116.177a7.837,7.837,0,0,1,7.667,6.261H46.425a7.837,7.837,0,0,1,7.667-6.261ZM61.194,94.128a29.164,29.164,0,0,1-8.7-18.689A23.233,23.233,0,0,1,55.1,62.895a24.291,24.291,0,0,0,1.977,5.75c2.55,5.391,7.023,11.429,12.6,17s11.611,10.047,17,12.6a24.314,24.314,0,0,0,5.74,1.975C83.005,105.257,70.129,103.062,61.194,94.128Z" transform="translate(-43.144 -54.005)" fill="#d4f6cc" stroke="#d4f6cc" stroke-width="0.2"/>
      </g>
    </g>
    <g id="Group_377" data-name="Group 377" transform="translate(43.671 8.341)">
      <g id="Group_376" data-name="Group 376">
        <path id="Path_989" data-name="Path 989" d="M324.217,53.385a1.562,1.562,0,0,0,0,3.125,9.826,9.826,0,0,1,9.815,9.814,1.562,1.562,0,1,0,3.125,0A12.954,12.954,0,0,0,324.217,53.385Z" transform="translate(-322.655 -53.385)" fill="#d4f6cc" stroke="#d4f6cc" stroke-width="0.2"/>
      </g>
    </g>
    <g id="Group_379" data-name="Group 379" transform="translate(43.671)">
      <g id="Group_378" data-name="Group 378">
        <path id="Path_990" data-name="Path 990" d="M324.217,0a1.562,1.562,0,0,0,0,3.125A18.176,18.176,0,0,1,342.373,21.28a1.562,1.562,0,0,0,3.125,0A21.3,21.3,0,0,0,324.217,0Z" transform="translate(-322.655)" fill="#d4f6cc" stroke="#d4f6cc" stroke-width="0.2"/>
      </g>
    </g>
  </g>
</svg>
