<svg id="saving-icon" xmlns="http://www.w3.org/2000/svg" width="120.244" height="139.449" viewBox="0 0 120.244 139.449">
  <path id="Path_169" data-name="Path 169" d="M167,145.884a31.4,31.4,0,1,1-31.4-31.4A31.4,31.4,0,0,1,167,145.884Zm0,0" transform="translate(-74.026 -81.21)" fill="#3ccf4e"/>
  <path id="Path_170" data-name="Path 170" d="M187.983,166.44a5.279,5.279,0,1,1,5.279-5.279,2.325,2.325,0,1,0,4.651,0,9.944,9.944,0,0,0-7.895-9.718v-2.118a2.325,2.325,0,0,0-4.651,0v2.259a9.928,9.928,0,0,0,2.616,19.506,5.277,5.277,0,0,1,.194,10.552,2.242,2.242,0,0,0-.793-.03,5.252,5.252,0,0,1-4.68-5.24,2.325,2.325,0,0,0-4.651,0,9.888,9.888,0,0,0,7.313,9.58v2.323a2.325,2.325,0,0,0,4.651,0v-2.185a9.931,9.931,0,0,0-2.035-19.651Zm0,0" transform="translate(-126.408 -104.272)" fill="#fff"/>
  <g id="Group_145" data-name="Group 145" transform="translate(41.81)">
    <path id="Path_172" data-name="Path 172" d="M206.54,26.742a2.325,2.325,0,0,1-2.325-2.325V2.325a2.325,2.325,0,0,1,4.651,0V24.416A2.325,2.325,0,0,1,206.54,26.742Zm0,0" transform="translate(-186.775)" fill="#ec712f"/>
    <path id="Path_173" data-name="Path 173" d="M266.54,55.115a2.325,2.325,0,0,1-2.325-2.325V42.325a2.325,2.325,0,0,1,4.651,0V52.789A2.325,2.325,0,0,1,266.54,55.115Zm0,0" transform="translate(-229.335 -28.373)" fill="#ec712f"/>
    <path id="Path_174" data-name="Path 174" d="M146.54,55.115a2.325,2.325,0,0,1-2.325-2.325V42.325a2.325,2.325,0,1,1,4.651,0V52.789A2.325,2.325,0,0,1,146.54,55.115Zm0,0" transform="translate(-144.215 -28.373)" fill="#ec712f"/>
  </g>
  <g id="Group_146" data-name="Group 146" transform="translate(0 97.188)">
    <path id="Path_168" data-name="Path 168" d="M96.988,361.187l-20.4-9.638a9.434,9.434,0,0,0-12.467,3.781l41.475,26.829a28.5,28.5,0,0,0,17.8,2.014l28.6-8.029a10.592,10.592,0,0,1,7.859.861l5.981,3.2-.805-29.175-.238.006A27.985,27.985,0,0,0,135.705,349l-1.712.887a19.984,19.984,0,0,1-8.647,2.232l-16.816.464a12.508,12.508,0,0,0-11.542,8.6Zm0,0" transform="translate(-64.117 -342.521)" fill="#f7caa5"/>
    <path id="Path_171" data-name="Path 171" d="M62.036,362.035H62.1l27.64-.762a2.325,2.325,0,1,0-.127-4.648l-25.05.69a9.816,9.816,0,0,1,.3-1.121,10.2,10.2,0,0,1,9.4-7l16.817-.466a22.421,22.421,0,0,0,9.652-2.492l1.711-.886a25.559,25.559,0,0,1,26.669,1.866,2.326,2.326,0,0,0,2.693-3.792,30.194,30.194,0,0,0-31.5-2.2l-1.712.886a17.762,17.762,0,0,1-7.64,1.973l-16.817.464a14.822,14.822,0,0,0-14.419,15.233,2.324,2.324,0,0,0,2.325,2.262Zm0,0" transform="translate(-29.781 -336.799)" fill="#edb288"/>
    <path id="Path_175" data-name="Path 175" d="M1.4,372.046l.091,3.284,18.437-.505L18.814,334.36l-18.439.506.22,8Zm0,0" transform="translate(100.316 -334.36)" fill="#003865"/>
  </g>
</svg>
