<svg width="254" height="33" viewBox="0 0 254 33" fill="none" xmlns="http://www.w3.org/2000/svg">
<path d="M25.4965 29.6838H23.6705C23.6705 29.6548 23.6995 29.6258 23.6995 29.5968C23.6925 28.8167 23.4164 28.063 22.9179 27.463C22.4193 26.8631 21.7289 26.4536 20.9633 26.304C20.1978 26.1543 19.404 26.2735 18.7162 26.6415C18.0284 27.0096 17.4888 27.6038 17.1885 28.3238C16.7385 28.3814 16.3055 28.5322 15.9169 28.7663C15.5283 29.0004 15.1927 29.3129 14.9315 29.6838H12.0965C11.8744 29.2797 11.5477 28.9429 11.1505 28.7087C10.7534 28.4745 10.3005 28.3516 9.8395 28.3528H9.8105C9.68778 27.9937 9.49482 27.6626 9.24284 27.3789C8.99087 27.0952 8.68493 26.8644 8.34287 26.7001C8.00081 26.5358 7.62946 26.4413 7.25048 26.422C6.87151 26.4027 6.49248 26.4591 6.1355 26.5878C5.63183 26.7707 5.184 27.0807 4.8355 27.4878L4.2855 27.4298C3.6177 27.4314 2.96915 27.6536 2.44058 28.0617C1.91201 28.4698 1.53303 29.0411 1.3625 29.6868H0.7235C0.531616 29.6868 0.347591 29.763 0.211908 29.8987C0.0762258 30.0344 0 30.2184 0 30.4103C0 30.6022 0.0762258 30.7862 0.211908 30.9219C0.347591 31.0576 0.531616 31.1338 0.7235 31.1338H25.4965C25.6884 31.1338 25.8724 31.0576 26.0081 30.9219C26.1438 30.7862 26.22 30.6022 26.22 30.4103C26.22 30.2184 26.1438 30.0344 26.0081 29.8987C25.8724 29.763 25.6884 29.6868 25.4965 29.6868V29.6838Z" fill="#3CCF4E"/>
<path d="M19.7055 12.6188C19.2074 12.124 18.6041 11.748 17.9405 11.5188C17.8565 9.22419 17.1784 6.99071 15.9725 5.03676C15.2652 3.98816 14.4807 2.99374 13.6255 2.06176C13.4812 1.93573 13.2961 1.86627 13.1045 1.86627C12.9129 1.86627 12.7278 1.93573 12.5835 2.06176C9.97929 4.54125 8.43461 7.93162 8.27251 11.5238C7.60891 11.753 7.00559 12.129 6.50751 12.6238C5.62807 13.4314 5.10403 14.5543 5.04988 15.7472C4.99573 16.94 5.41587 18.1057 6.21851 18.9898C6.27748 19.0632 6.35247 19.1222 6.43774 19.1623C6.52302 19.2023 6.61631 19.2223 6.7105 19.2208H6.7395C6.83109 19.2249 6.92249 19.2092 7.00742 19.1747C7.09235 19.1401 7.1688 19.0876 7.23151 19.0208L9.1995 17.2268C9.59409 18.276 10.1089 19.276 10.7335 20.2068C11.056 20.5344 11.4449 20.7891 11.874 20.9538C12.3032 21.1186 12.7627 21.1895 13.2215 21.1618H13.2505C13.6452 21.195 14.0423 21.1395 14.4128 20.9994C14.7832 20.8592 15.1177 20.6379 15.3915 20.3518C16.0615 19.3828 16.6058 18.3328 17.0115 17.2268L18.9795 19.0208C19.0422 19.0876 19.1187 19.1401 19.2036 19.1747C19.2885 19.2092 19.3799 19.2249 19.4715 19.2208H19.5005C19.5947 19.2223 19.688 19.2023 19.7733 19.1623C19.8585 19.1222 19.9335 19.0632 19.9925 18.9898C20.7969 18.1057 21.2184 16.939 21.1646 15.745C21.1108 14.551 20.5862 13.4269 19.7055 12.6188V12.6188ZM13.1055 13.0528C12.4515 13.0423 11.8276 12.7759 11.3677 12.3108C10.9078 11.8457 10.6486 11.2189 10.6455 10.5648C10.6389 10.2376 10.6976 9.91242 10.8183 9.60824C10.9389 9.30406 11.119 9.02701 11.3481 8.79331C11.5771 8.5596 11.8505 8.37394 12.1522 8.2472C12.4538 8.12045 12.7778 8.05517 13.105 8.05517C13.4322 8.05517 13.7562 8.12045 14.0578 8.2472C14.3595 8.37394 14.6329 8.5596 14.8619 8.79331C15.091 9.02701 15.2711 9.30406 15.3917 9.60824C15.5124 9.91242 15.5711 10.2376 15.5645 10.5648C15.5615 11.2182 15.3027 11.8444 14.8437 12.3094C14.3847 12.7745 13.7618 13.0413 13.1085 13.0528H13.1055Z" fill="#EC712F"/>
<path d="M13.8325 22.1968H12.3855V25.5818H13.8325V22.1968Z" fill="#EC712F"/>
<path d="M16.2045 21.6468H14.7575V24.7428H16.2045V21.6468Z" fill="#EC712F"/>
<path d="M11.4595 21.6468H10.0125V24.4828H11.4595V21.6468Z" fill="#EC712F"/>
<path d="M36.708 8.864C38.228 8.864 39.5 9.008 40.524 9.296C41.564 9.568 42.34 10.024 42.852 10.664C43.38 11.288 43.644 12.136 43.644 13.208C43.644 13.848 43.54 14.432 43.332 14.96C43.124 15.488 42.82 15.92 42.42 16.256C42.036 16.592 41.564 16.808 41.004 16.904V17.024C41.58 17.136 42.1 17.336 42.564 17.624C43.028 17.912 43.396 18.328 43.668 18.872C43.94 19.416 44.076 20.136 44.076 21.032C44.076 22.072 43.82 22.968 43.308 23.72C42.812 24.456 42.092 25.024 41.148 25.424C40.204 25.808 39.084 26 37.788 26H31.38V8.864H36.708ZM37.116 15.656C38.172 15.656 38.9 15.488 39.3 15.152C39.716 14.816 39.924 14.328 39.924 13.688C39.924 13.032 39.684 12.56 39.204 12.272C38.724 11.984 37.964 11.84 36.924 11.84H35.004V15.656H37.116ZM35.004 18.536V23H37.38C38.468 23 39.228 22.792 39.66 22.376C40.092 21.944 40.308 21.376 40.308 20.672C40.308 20.24 40.212 19.864 40.02 19.544C39.844 19.224 39.532 18.976 39.084 18.8C38.636 18.624 38.028 18.536 37.26 18.536H35.004ZM59.241 12.896V26H56.505L56.025 24.32H55.833C55.561 24.768 55.209 25.136 54.777 25.424C54.361 25.696 53.897 25.896 53.385 26.024C52.873 26.168 52.345 26.24 51.801 26.24C50.873 26.24 50.057 26.072 49.353 25.736C48.649 25.4 48.105 24.88 47.721 24.176C47.337 23.472 47.145 22.56 47.145 21.44V12.896H50.721V20.552C50.721 21.48 50.889 22.184 51.225 22.664C51.561 23.144 52.097 23.384 52.833 23.384C53.569 23.384 54.137 23.216 54.537 22.88C54.953 22.544 55.241 22.056 55.401 21.416C55.577 20.776 55.665 19.992 55.665 19.064V12.896H59.241ZM61.1184 12.896H65.0304L67.5024 20.264C67.5824 20.504 67.6464 20.744 67.6944 20.984C67.7584 21.224 67.8064 21.472 67.8384 21.728C67.8864 21.984 67.9184 22.256 67.9344 22.544H68.0064C68.0544 22.128 68.1184 21.736 68.1984 21.368C68.2944 20.984 68.3984 20.616 68.5104 20.264L70.9344 12.896H74.7744L69.2304 27.68C68.8944 28.576 68.4544 29.328 67.9104 29.936C67.3824 30.544 66.7664 31 66.0624 31.304C65.3584 31.608 64.5904 31.76 63.7584 31.76C63.3584 31.76 63.0064 31.736 62.7024 31.688C62.4144 31.656 62.1584 31.616 61.9344 31.568V28.736C62.1104 28.768 62.3184 28.8 62.5584 28.832C62.8144 28.864 63.0784 28.88 63.3504 28.88C63.8464 28.88 64.2704 28.776 64.6224 28.568C64.9904 28.36 65.2944 28.072 65.5344 27.704C65.7744 27.352 65.9664 26.968 66.1104 26.552L66.3264 25.904L61.1184 12.896ZM80.2305 12.896V26H76.6545V12.896H80.2305ZM78.4545 7.76C78.9825 7.76 79.4385 7.888 79.8225 8.144C80.2065 8.384 80.3985 8.84 80.3985 9.512C80.3985 10.168 80.2065 10.624 79.8225 10.88C79.4385 11.136 78.9825 11.264 78.4545 11.264C77.9105 11.264 77.4465 11.136 77.0625 10.88C76.6945 10.624 76.5105 10.168 76.5105 9.512C76.5105 8.84 76.6945 8.384 77.0625 8.144C77.4465 7.888 77.9105 7.76 78.4545 7.76ZM91.407 12.656C92.815 12.656 93.943 13.04 94.791 13.808C95.639 14.56 96.063 15.776 96.063 17.456V26H92.487V18.344C92.487 17.4 92.319 16.696 91.983 16.232C91.647 15.752 91.111 15.512 90.375 15.512C89.287 15.512 88.543 15.888 88.143 16.64C87.743 17.376 87.543 18.44 87.543 19.832V26H83.967V12.896H86.703L87.183 14.576H87.375C87.663 14.128 88.015 13.768 88.431 13.496C88.847 13.208 89.311 13 89.823 12.872C90.335 12.728 90.863 12.656 91.407 12.656ZM105.26 23.384C105.66 23.384 106.044 23.344 106.412 23.264C106.78 23.184 107.148 23.088 107.516 22.976V25.64C107.132 25.8 106.652 25.936 106.076 26.048C105.516 26.176 104.9 26.24 104.228 26.24C103.444 26.24 102.74 26.112 102.116 25.856C101.508 25.6 101.02 25.16 100.652 24.536C100.3 23.896 100.124 23.016 100.124 21.896V15.584H98.4204V14.072L100.388 12.872L101.42 10.112H103.7V12.896H107.372V15.584H103.7V21.896C103.7 22.392 103.844 22.768 104.132 23.024C104.42 23.264 104.796 23.384 105.26 23.384ZM115.547 12.656C116.763 12.656 117.803 12.888 118.667 13.352C119.547 13.816 120.227 14.488 120.707 15.368C121.187 16.248 121.427 17.328 121.427 18.608V20.336H112.979C113.011 21.344 113.307 22.136 113.867 22.712C114.443 23.288 115.235 23.576 116.243 23.576C117.091 23.576 117.859 23.496 118.547 23.336C119.235 23.16 119.947 22.896 120.683 22.544V25.304C120.043 25.624 119.363 25.856 118.643 26C117.939 26.16 117.083 26.24 116.075 26.24C114.763 26.24 113.603 26 112.595 25.52C111.587 25.024 110.795 24.28 110.219 23.288C109.643 22.296 109.355 21.048 109.355 19.544C109.355 18.008 109.611 16.736 110.123 15.728C110.651 14.704 111.379 13.936 112.307 13.424C113.235 12.912 114.315 12.656 115.547 12.656ZM115.571 15.2C114.883 15.2 114.307 15.424 113.843 15.872C113.395 16.32 113.131 17.016 113.051 17.96H118.067C118.067 17.432 117.971 16.96 117.779 16.544C117.603 16.128 117.331 15.8 116.963 15.56C116.595 15.32 116.131 15.2 115.571 15.2ZM131.646 12.656C131.822 12.656 132.03 12.664 132.27 12.68C132.51 12.696 132.702 12.72 132.846 12.752L132.582 16.112C132.47 16.08 132.302 16.056 132.078 16.04C131.87 16.008 131.686 15.992 131.526 15.992C131.062 15.992 130.614 16.056 130.182 16.184C129.75 16.296 129.358 16.48 129.006 16.736C128.67 16.992 128.398 17.336 128.19 17.768C127.998 18.184 127.902 18.704 127.902 19.328V26H124.326V12.896H127.038L127.566 15.104H127.734C127.99 14.656 128.31 14.248 128.694 13.88C129.078 13.512 129.518 13.216 130.014 12.992C130.526 12.768 131.07 12.656 131.646 12.656ZM142.665 12.656C144.073 12.656 145.201 13.04 146.049 13.808C146.897 14.56 147.321 15.776 147.321 17.456V26H143.745V18.344C143.745 17.4 143.577 16.696 143.241 16.232C142.905 15.752 142.369 15.512 141.633 15.512C140.545 15.512 139.801 15.888 139.401 16.64C139.001 17.376 138.801 18.44 138.801 19.832V26H135.225V12.896H137.961L138.441 14.576H138.633C138.921 14.128 139.273 13.768 139.689 13.496C140.105 13.208 140.569 13 141.081 12.872C141.593 12.728 142.121 12.656 142.665 12.656ZM156.398 12.656C157.614 12.656 158.654 12.888 159.518 13.352C160.398 13.816 161.078 14.488 161.558 15.368C162.038 16.248 162.278 17.328 162.278 18.608V20.336H153.83C153.862 21.344 154.158 22.136 154.718 22.712C155.294 23.288 156.086 23.576 157.094 23.576C157.942 23.576 158.71 23.496 159.398 23.336C160.086 23.16 160.798 22.896 161.534 22.544V25.304C160.894 25.624 160.214 25.856 159.494 26C158.79 26.16 157.934 26.24 156.926 26.24C155.614 26.24 154.454 26 153.446 25.52C152.438 25.024 151.646 24.28 151.07 23.288C150.494 22.296 150.206 21.048 150.206 19.544C150.206 18.008 150.462 16.736 150.974 15.728C151.502 14.704 152.23 13.936 153.158 13.424C154.086 12.912 155.166 12.656 156.398 12.656ZM156.422 15.2C155.734 15.2 155.158 15.424 154.694 15.872C154.246 16.32 153.982 17.016 153.902 17.96H158.918C158.918 17.432 158.822 16.96 158.63 16.544C158.454 16.128 158.182 15.8 157.814 15.56C157.446 15.32 156.982 15.2 156.422 15.2ZM170.698 23.384C171.098 23.384 171.482 23.344 171.85 23.264C172.218 23.184 172.586 23.088 172.954 22.976V25.64C172.57 25.8 172.09 25.936 171.514 26.048C170.954 26.176 170.338 26.24 169.666 26.24C168.882 26.24 168.178 26.112 167.554 25.856C166.946 25.6 166.458 25.16 166.09 24.536C165.738 23.896 165.562 23.016 165.562 21.896V15.584H163.858V14.072L165.826 12.872L166.858 10.112H169.138V12.896H172.81V15.584H169.138V21.896C169.138 22.392 169.282 22.768 169.57 23.024C169.858 23.264 170.234 23.384 170.698 23.384ZM179.736 26.24C178.28 26.24 177.088 25.672 176.16 24.536C175.248 23.384 174.792 21.696 174.792 19.472C174.792 17.232 175.256 15.536 176.184 14.384C177.112 13.232 178.328 12.656 179.832 12.656C180.456 12.656 181.008 12.744 181.488 12.92C181.968 13.08 182.376 13.304 182.712 13.592C183.064 13.88 183.36 14.208 183.6 14.576H183.72C183.672 14.32 183.616 13.952 183.552 13.472C183.488 12.976 183.456 12.472 183.456 11.96V7.76H187.032V26H184.296L183.6 24.296H183.456C183.232 24.648 182.944 24.976 182.592 25.28C182.256 25.568 181.856 25.8 181.392 25.976C180.928 26.152 180.376 26.24 179.736 26.24ZM180.984 23.384C181.976 23.384 182.672 23.096 183.072 22.52C183.472 21.928 183.68 21.048 183.696 19.88V19.496C183.696 18.216 183.496 17.24 183.096 16.568C182.712 15.896 181.992 15.56 180.936 15.56C180.152 15.56 179.536 15.904 179.088 16.592C178.64 17.264 178.416 18.24 178.416 19.52C178.416 20.8 178.64 21.768 179.088 22.424C179.536 23.064 180.168 23.384 180.984 23.384ZM196.172 12.656C197.388 12.656 198.428 12.888 199.292 13.352C200.172 13.816 200.852 14.488 201.332 15.368C201.812 16.248 202.052 17.328 202.052 18.608V20.336H193.604C193.636 21.344 193.932 22.136 194.492 22.712C195.068 23.288 195.86 23.576 196.868 23.576C197.716 23.576 198.484 23.496 199.172 23.336C199.86 23.16 200.572 22.896 201.308 22.544V25.304C200.668 25.624 199.988 25.856 199.268 26C198.564 26.16 197.708 26.24 196.7 26.24C195.388 26.24 194.228 26 193.22 25.52C192.212 25.024 191.42 24.28 190.844 23.288C190.268 22.296 189.98 21.048 189.98 19.544C189.98 18.008 190.236 16.736 190.748 15.728C191.276 14.704 192.004 13.936 192.932 13.424C193.86 12.912 194.94 12.656 196.172 12.656ZM196.196 15.2C195.508 15.2 194.932 15.424 194.468 15.872C194.02 16.32 193.756 17.016 193.676 17.96H198.692C198.692 17.432 198.596 16.96 198.404 16.544C198.228 16.128 197.956 15.8 197.588 15.56C197.22 15.32 196.756 15.2 196.196 15.2ZM210.327 12.632C212.087 12.632 213.431 13.016 214.359 13.784C215.303 14.536 215.775 15.696 215.775 17.264V26H213.279L212.583 24.224H212.487C212.119 24.688 211.735 25.072 211.335 25.376C210.951 25.68 210.503 25.896 209.991 26.024C209.495 26.168 208.879 26.24 208.143 26.24C207.375 26.24 206.679 26.096 206.055 25.808C205.447 25.504 204.967 25.048 204.615 24.44C204.263 23.816 204.087 23.032 204.087 22.088C204.087 20.696 204.575 19.672 205.551 19.016C206.527 18.344 207.991 17.976 209.943 17.912L212.223 17.84V17.264C212.223 16.576 212.039 16.072 211.671 15.752C211.319 15.432 210.823 15.272 210.183 15.272C209.543 15.272 208.919 15.368 208.311 15.56C207.703 15.736 207.095 15.96 206.487 16.232L205.311 13.808C206.015 13.44 206.791 13.152 207.639 12.944C208.503 12.736 209.399 12.632 210.327 12.632ZM210.831 19.976C209.679 20.008 208.879 20.216 208.431 20.6C207.983 20.984 207.759 21.488 207.759 22.112C207.759 22.656 207.919 23.048 208.239 23.288C208.559 23.512 208.975 23.624 209.487 23.624C210.255 23.624 210.903 23.4 211.431 22.952C211.959 22.488 212.223 21.84 212.223 21.008V19.928L210.831 19.976ZM223.012 26H219.436V7.76H223.012V26ZM235.892 22.112C235.892 22.992 235.684 23.744 235.268 24.368C234.852 24.976 234.228 25.44 233.396 25.76C232.564 26.08 231.532 26.24 230.3 26.24C229.388 26.24 228.604 26.176 227.948 26.048C227.292 25.936 226.636 25.744 225.98 25.472V22.52C226.684 22.84 227.444 23.104 228.26 23.312C229.076 23.52 229.796 23.624 230.42 23.624C231.124 23.624 231.62 23.52 231.908 23.312C232.212 23.104 232.364 22.832 232.364 22.496C232.364 22.272 232.3 22.072 232.172 21.896C232.06 21.72 231.804 21.52 231.404 21.296C231.004 21.072 230.38 20.784 229.532 20.432C228.716 20.08 228.044 19.736 227.516 19.4C226.988 19.048 226.596 18.632 226.34 18.152C226.084 17.656 225.956 17.04 225.956 16.304C225.956 15.088 226.428 14.176 227.372 13.568C228.316 12.96 229.572 12.656 231.14 12.656C231.956 12.656 232.732 12.736 233.468 12.896C234.204 13.056 234.964 13.32 235.748 13.688L234.668 16.256C234.236 16.064 233.82 15.896 233.42 15.752C233.02 15.608 232.628 15.496 232.244 15.416C231.876 15.336 231.492 15.296 231.092 15.296C230.564 15.296 230.164 15.368 229.892 15.512C229.636 15.656 229.508 15.872 229.508 16.16C229.508 16.368 229.572 16.56 229.7 16.736C229.844 16.896 230.108 17.072 230.492 17.264C230.892 17.456 231.476 17.712 232.244 18.032C232.996 18.336 233.644 18.656 234.188 18.992C234.732 19.312 235.148 19.72 235.436 20.216C235.74 20.696 235.892 21.328 235.892 22.112Z" fill="#003865"/>
</svg>
