<svg xmlns="http://www.w3.org/2000/svg" width="159.244" height="60.4" viewBox="0 0 159.244 60.4">
  <g id="Astound-grande-logo" transform="translate(0 553.878)">
    <g id="Group_307" data-name="Group 307" transform="translate(85.378 -509.717)">
      <path id="path24" d="M259.938-61a.866.866,0,0,0-.879-.916h-1.074v1.832h1.074A.87.87,0,0,0,259.938-61Zm.863,0a1.707,1.707,0,0,1-1.742,1.727h-1.074v1.8h-.864v-5.255h1.937A1.7,1.7,0,0,1,260.8-61" transform="translate(-257.122 62.727)" fill="#483092"/>
      <path id="path26" d="M296.508-47.724a1.153,1.153,0,0,0-1.171-1.186,1.153,1.153,0,0,0-1.171,1.186,1.153,1.153,0,0,0,1.171,1.187A1.153,1.153,0,0,0,296.508-47.724Zm-3.153,0a1.959,1.959,0,0,1,1.982-1.974,1.954,1.954,0,0,1,1.982,1.974,1.96,1.96,0,0,1-1.982,1.975,1.964,1.964,0,0,1-1.982-1.975" transform="translate(-289.45 51.102)" fill="#483092"/>
      <path id="path28" d="M337.956-48.8l-1.178,3.754h-.8l-.78-2.531-.788,2.531h-.8L332.438-48.8h.856l.728,2.59.788-2.59h.774l.78,2.59.736-2.59h.856" transform="translate(-324.321 50.297)" fill="#483092"/>
      <path id="path30" d="M388.918-48.039a1.044,1.044,0,0,0-1.074-.923,1.091,1.091,0,0,0-1.134.923Zm-1,1.547a1.146,1.146,0,0,0,.969-.465l.668.39a1.9,1.9,0,0,1-1.644.818,1.922,1.922,0,0,1-2.042-1.975,1.915,1.915,0,0,1,1.982-1.974,1.894,1.894,0,0,1,1.884,1.982,2.439,2.439,0,0,1-.03.337h-2.988a1.128,1.128,0,0,0,1.2.886" transform="translate(-371.994 51.102)" fill="#483092"/>
      <path id="path32" d="M430.333-49.425v.879a.991.991,0,0,0-1.156,1.051V-45.6h-.811v-3.754h.811v.63a1.181,1.181,0,0,1,1.156-.7" transform="translate(-409.91 50.858)" fill="#483092"/>
      <path id="path34" d="M451.687-48.039a1.044,1.044,0,0,0-1.074-.923,1.091,1.091,0,0,0-1.134.923Zm-1,1.547a1.146,1.146,0,0,0,.969-.465l.668.39a1.9,1.9,0,0,1-1.644.818,1.922,1.922,0,0,1-2.042-1.975,1.914,1.914,0,0,1,1.982-1.974,1.894,1.894,0,0,1,1.884,1.982,2.407,2.407,0,0,1-.03.337h-2.988a1.128,1.128,0,0,0,1.2.886" transform="translate(-427.998 51.102)" fill="#483092"/>
      <path id="path36" d="M492.156-59.348a1.159,1.159,0,0,0-1.185-1.2,1.16,1.16,0,0,0-1.187,1.2,1.16,1.16,0,0,0,1.187,1.2A1.159,1.159,0,0,0,492.156-59.348Zm.811-3.378v5.255h-.811v-.541a1.542,1.542,0,0,1-1.314.638,1.918,1.918,0,0,1-1.869-1.975,1.913,1.913,0,0,1,1.869-1.974,1.556,1.556,0,0,1,1.314.63v-2.034h.811" transform="translate(-463.985 62.727)" fill="#483092"/>
      <path id="path38" d="M555.412-59.348a1.16,1.16,0,0,0-1.186-1.2,1.16,1.16,0,0,0-1.186,1.2,1.16,1.16,0,0,0,1.186,1.2A1.16,1.16,0,0,0,555.412-59.348Zm.811,0a1.918,1.918,0,0,1-1.869,1.975,1.542,1.542,0,0,1-1.314-.638v.541h-.811v-5.255h.811v2.034a1.556,1.556,0,0,1,1.314-.63,1.913,1.913,0,0,1,1.869,1.974" transform="translate(-520.423 62.727)" fill="#483092"/>
      <path id="path40" d="M594.518-48.8l-1.441,3.874a1.783,1.783,0,0,1-1.832,1.381V-44.3a.94.94,0,0,0,1-.736l.037-.075L590.689-48.8h.886l1.119,2.725.961-2.725h.863" transform="translate(-554.738 50.297)" fill="#483092"/>
    </g>
    <g id="Group_309" data-name="Group 309" transform="translate(26.74 -511.588)">
      <path id="path42" d="M261.075-156.265a.951.951,0,0,0-.951-.981h-1.852v1.961h1.852a.951.951,0,0,0,.951-.98Zm-2.8-3.863v1.842H259.9a.9.9,0,0,0,.9-.92.9.9,0,0,0-.9-.921Zm3.954,3.923a2.018,2.018,0,0,1-2.1,2h-3v-7.006H259.9a1.969,1.969,0,0,1,2.052,1.942,1.723,1.723,0,0,1-.71,1.431,1.784,1.784,0,0,1,.981,1.631" transform="translate(-257.122 161.21)" fill="#3ab54a"/>
      <path id="path44" d="M320.386-143.47v1.171a1.321,1.321,0,0,0-1.541,1.4v2.522h-1.081v-5h1.081v.84a1.575,1.575,0,0,1,1.541-.931" transform="translate(-311.229 145.382)" fill="#3ab54a"/>
      <path id="path46" d="M353.635-141.206a1.537,1.537,0,0,0-1.562-1.581,1.536,1.536,0,0,0-1.561,1.581,1.537,1.537,0,0,0,1.561,1.581A1.537,1.537,0,0,0,353.635-141.206Zm-4.2,0a2.612,2.612,0,0,1,2.642-2.631,2.605,2.605,0,0,1,2.642,2.631,2.612,2.612,0,0,1-2.642,2.633,2.618,2.618,0,0,1-2.642-2.633" transform="translate(-339.483 145.71)" fill="#3ab54a"/>
      <path id="path48" d="M413.852-141.206a1.546,1.546,0,0,0-1.581-1.6,1.546,1.546,0,0,0-1.581,1.6,1.546,1.546,0,0,0,1.581,1.6A1.546,1.546,0,0,0,413.852-141.206Zm1.081-2.5v5h-1.081v-.721a2.055,2.055,0,0,1-1.751.851,2.558,2.558,0,0,1-2.492-2.633,2.551,2.551,0,0,1,2.492-2.631,2.074,2.074,0,0,1,1.751.84v-.71h1.081" transform="translate(-393.174 145.71)" fill="#3ab54a"/>
      <path id="path50" d="M476.992-156.706a1.546,1.546,0,0,0-1.581-1.6,1.546,1.546,0,0,0-1.581,1.6,1.546,1.546,0,0,0,1.581,1.6A1.546,1.546,0,0,0,476.992-156.706Zm1.081-4.5v7.006h-1.081v-.721a2.055,2.055,0,0,1-1.751.851,2.557,2.557,0,0,1-2.493-2.633,2.55,2.55,0,0,1,2.493-2.631,2.074,2.074,0,0,1,1.751.84v-2.713h1.081" transform="translate(-449.508 161.21)" fill="#3ab54a"/>
      <path id="path52" d="M542.748-156.706a1.547,1.547,0,0,0-1.582-1.6,1.547,1.547,0,0,0-1.581,1.6,1.547,1.547,0,0,0,1.581,1.6A1.547,1.547,0,0,0,542.748-156.706Zm1.08,0a2.557,2.557,0,0,1-2.492,2.633,2.057,2.057,0,0,1-1.752-.851v.721H538.5v-7.006h1.08v2.713a2.076,2.076,0,0,1,1.752-.84,2.55,2.55,0,0,1,2.492,2.631" transform="translate(-508.178 161.21)" fill="#3ab54a"/>
      <path id="path54" d="M603.295-141.206a1.546,1.546,0,0,0-1.581-1.6,1.546,1.546,0,0,0-1.581,1.6,1.546,1.546,0,0,0,1.581,1.6A1.546,1.546,0,0,0,603.295-141.206Zm1.081-2.5v5h-1.081v-.721a2.055,2.055,0,0,1-1.751.851,2.557,2.557,0,0,1-2.492-2.633,2.551,2.551,0,0,1,2.492-2.631,2.074,2.074,0,0,1,1.751.84v-.71h1.081" transform="translate(-562.199 145.71)" fill="#3ab54a"/>
      <path id="path56" d="M669.359-141.776v3.072h-1.08v-2.962a1.044,1.044,0,0,0-1.121-1.161c-.711,0-1.271.421-1.271,1.441v2.683h-1.08v-5h1.08v.64a1.723,1.723,0,0,1,1.551-.77,1.868,1.868,0,0,1,1.921,2.061" transform="translate(-620.867 145.71)" fill="#3ab54a"/>
      <path id="path58" d="M724.109-156.706a1.546,1.546,0,0,0-1.581-1.6,1.546,1.546,0,0,0-1.581,1.6,1.546,1.546,0,0,0,1.581,1.6A1.546,1.546,0,0,0,724.109-156.706Zm1.081-4.5v7.006h-1.081v-.721a2.055,2.055,0,0,1-1.751.851,2.557,2.557,0,0,1-2.492-2.633,2.551,2.551,0,0,1,2.492-2.631,2.074,2.074,0,0,1,1.751.84v-2.713h1.081" transform="translate(-669.992 161.21)" fill="#3ab54a"/>
    </g>
    <path id="path60" d="M74.834-468.556l-4.3-1.459-1.544,3.627,5.833-1.754A.218.218,0,0,0,74.834-468.556Zm3.439-6.605-2.537-6.647-5.695,1.821,7.911,5.087a.218.218,0,0,0,.321-.261Zm8.237,5.723,12.13,7.7,4.838-3.556L86.706-469.88a.244.244,0,0,0-.2.442Zm1.577-11.376-1.674,6.2a.33.33,0,0,0,.13.357h0a.33.33,0,0,0,.332.026l10.4-5.034Zm-10.12,20.537c-1.872,0-1.981,1.611-1.981,3.265,0,1.786.109,3.266,2.025,3.266h.631c.653,0,.871-.218.871-.871v-5.66Zm4.943,6.858a1.954,1.954,0,0,1-2.177,2.177h-3.7c-3.7,0-4.529-2.286-4.529-5.77s.828-5.769,4.529-5.769h2.483v-3.7l3.4-1.21ZM60.463-460.6a1.91,1.91,0,0,1,2.177-2.177h2.679c3.113,0,5.247.849,5.247,4.158v7.381h-3.4v-6.51c0-1.655-.457-2.526-2.112-2.526h-.435c-.544,0-.762.218-.762.762v8.274h-3.4Zm-2.277,7.185a1.91,1.91,0,0,1-2.177,2.177H52.524c-2.721,0-4.528-1.2-4.528-4.137v-7.4h3.4v6.509c0,1.677.479,2.526,2.134,2.526h.5c.544,0,.762-.218.762-.762v-8.273h3.4Zm-17.7-.2c1.851,0,2.09-1.111,2.09-3.4s-.239-3.4-2.09-3.4-2.09,1.111-2.09,3.4S38.63-453.616,40.481-453.616Zm5.573-3.4c0,4.7-1.328,5.9-5.573,5.9s-5.574-1.2-5.574-5.9c0-4.681,1.328-5.9,5.574-5.9S46.055-461.693,46.055-457.012Zm-14.272,5.77c-2.5,0-4.071-1-4.071-3.832v-5.2H26.188v-2.5h1.524v-3.7l3.4-1.21v4.911H33.46v2.5H31.108v3.962c0,1.742.24,2.569,2.09,2.569h.261v2.5Zm-15.97-2.5h4.659c.327,0,.718-.087.718-.588,0-.7-.849-1.067-1.633-1.415l-1.263-.566c-2.047-.915-2.613-1.568-2.613-3.484,0-2.134,1.023-2.982,3.178-2.982H24.3v2.5H19.863c-.5,0-.958.022-.958.544,0,.653.37.849,1.132,1.2l1.611.74c1.981.915,3.092,1.371,3.092,3.679,0,1.96-.871,2.874-2.94,2.874H15.813ZM5.6-457.426H9.144L7.686-462.52c-.087-.283-.3-1.084-.3-1.084s-.24.8-.327,1.084Zm-1.328-7.337c.313-.994.615-1.894.615-1.894H9.9s.069.3.57,1.894l4.289,13.52H10.646L9.71-454.6H5.029l-.936,3.353H0l4.268-13.52" transform="translate(0 -64.302)" fill="#483092"/>
    <path id="path62" d="M623.966-525.149l-4.152-4.706a.218.218,0,0,0-.381.152q.13,3.773.26,7.545ZM597.42-540.28c3.21.854,7.7,2.117,11.145,3.045a.218.218,0,0,0,.192-.38c-3.126-2.486-7.352-5.322-10.266-7.74Q597.956-542.818,597.42-540.28Zm17.784,3.973a.218.218,0,0,0,.422.013c1.11-3.98,2.218-9.1,3.327-12.91l-7.386-4.673c1.212,5.357,2.424,12.081,3.636,17.571Zm25.605.364-18.3-.461a.217.217,0,0,1-.049-.428c5.281-1.386,10.558-3.377,15.84-4.763.836,1.683,1.677,3.97,2.513,5.652" transform="translate(-534.49)" fill="#3ab54a"/>
    <text id="Authorized" transform="translate(26.838 -495.878)" fill="#0a0d03" stroke="#000" stroke-width="0.4" font-size="11" font-family="Microsoft-Yi-Baiti, Microsoft Yi Baiti" font-style="italic" letter-spacing="0.025em"><tspan x="0" y="0">Authorized</tspan></text>
    <text id="Retailer" transform="translate(72.328 -495.878)" fill="#0a0d03" stroke="#000" stroke-width="0.4" font-size="11" font-family="Microsoft-Yi-Baiti, Microsoft Yi Baiti" font-style="italic" letter-spacing="0.025em"><tspan x="0" y="0">Retailer</tspan></text>
    <g id="r" transform="translate(84.29 -519.909)">
      <g id="Path_853" data-name="Path 853" transform="translate(0 0.314)" fill="none">
        <path d="M2.038,0A2.038,2.038,0,1,1,0,2.038,2.038,2.038,0,0,1,2.038,0Z" stroke="none"/>
        <path d="M 2.038351774215698 0.300001859664917 C 1.079821825027466 0.300001859664917 0.300001859664917 1.079821825027466 0.300001859664917 2.038351774215698 C 0.300001859664917 2.996881723403931 1.079821825027466 3.776701688766479 2.038351774215698 3.776701688766479 C 2.996881723403931 3.776701688766479 3.776701688766479 2.996881723403931 3.776701688766479 2.038351774215698 C 3.776701688766479 1.079821825027466 2.996881723403931 0.300001859664917 2.038351774215698 0.300001859664917 M 2.038351774215698 1.9073486328125e-06 C 3.164101839065552 1.9073486328125e-06 4.076701641082764 0.9126017093658447 4.076701641082764 2.038351774215698 C 4.076701641082764 3.164101839065552 3.164101839065552 4.076701641082764 2.038351774215698 4.076701641082764 C 0.9126017093658447 4.076701641082764 1.9073486328125e-06 3.164101839065552 1.9073486328125e-06 2.038351774215698 C 1.9073486328125e-06 0.9126017093658447 0.9126017093658447 1.9073486328125e-06 2.038351774215698 1.9073486328125e-06 Z" stroke="none" fill="#483092"/>
      </g>
      <text id="R-2" data-name="R" transform="translate(0.941 3.352)" fill="#483092" stroke="#483092" stroke-width="0.2" font-size="4" font-family="Microsoft-Yi-Baiti, Microsoft Yi Baiti" font-style="italic" letter-spacing="0.025em"><tspan x="0" y="0">R</tspan></text>
    </g>
    <path id="Path_861" data-name="Path 861" d="M8.672,7.29C6.931,7.29,5.8,6.445,5.8,4.628c0-1.9,1.03-2.711,2.935-2.711a3.7,3.7,0,0,1,1.571.3l-.333.912a4.165,4.165,0,0,0-1.26-.178,1.453,1.453,0,0,0-1.631,1.6A1.574,1.574,0,0,0,8.8,6.237c.119,0,.231-.007.333-.007V5.014H10.4V6.985a4.407,4.407,0,0,1-1.726.3m4.4-4.321h-.608V4.524h.43c.748,0,1.067-.311,1.067-.808,0-.526-.215-.748-.889-.748m2.779,4.343A2.835,2.835,0,0,1,13.724,6.09L13.131,5.4c-.088.007-.185.007-.281.007h-.386V7.215H11.2V1.974h2.038c1.178,0,2.023.541,2.023,1.713A1.576,1.576,0,0,1,14.413,5.1l.534.577a2.243,2.243,0,0,0,1.185.668ZM19.3,3.74l-.245-.986-.289.986-.326,1.023h1.142Zm1.074,3.475-.5-1.541H18.105l-.571,1.541H16.275l2.016-5.24h1.624l1.763,5.24Zm5.2,0L23.567,3.71l.031.7V7.215h-1.26V1.975H23.8L25.859,5.57l-.037-.585V1.975h1.259v5.24Zm4.515-4.254h-.6V6.23h.749c1.208,0,1.675-.548,1.675-1.578,0-1.127-.564-1.691-1.823-1.691m.066,4.254h-1.92V1.976h1.876c1.816,0,3.061.778,3.061,2.6s-1.127,2.639-3.017,2.639m3.731,0V1.975h3.438v.986H35.149V4.125h2.016v.919H35.149V6.23H37.5v.986Z" transform="translate(121.746 -511.607)" fill="#fab20b"/>
  </g>
</svg>
