<svg xmlns="http://www.w3.org/2000/svg" width="192.076" height="60" viewBox="0 0 192.076 60">
  <g id="Spectrum-Logo" transform="translate(0)">
    <g id="Group_27" data-name="Group 27" transform="translate(0 0)">
      <path id="Path_693" data-name="Path 693" d="M177.232,306.666c2.1,1.816,5.239,2.654,9.43,2.654,4.052,0,7.2-.838,9.43-2.585a9.419,9.419,0,0,0,3.353-7.754,8.21,8.21,0,0,0-1.048-4.261,6.952,6.952,0,0,0-3.074-2.934,11.138,11.138,0,0,0-2.445-.908c-1.118-.349-6.776-1.886-7.335-2.026-3.143-.768-5.1-1.816-5.169-3.632.14-3.563,3.493-3.842,5.379-3.842a7.948,7.948,0,0,1,4.541,1.188,4.178,4.178,0,0,1,1.746,3.493h6.287a10.271,10.271,0,0,0-3.353-7.474c-2.026-1.746-4.89-2.585-8.662-2.585-3.982,0-7.055.838-9.151,2.515a8.785,8.785,0,0,0-3.143,7.125c0,3.842,1.816,6.147,3.493,7.2a19.9,19.9,0,0,0,6.287,2.1l2.515.559c4.331,1.048,6.776,2.375,6.706,4.54a3.482,3.482,0,0,1-1.467,2.934,7.889,7.889,0,0,1-4.331,1.048,9.029,9.029,0,0,1-5.1-1.257,4.923,4.923,0,0,1-2.1-3.842H173.6a10.157,10.157,0,0,0,3.632,7.754" transform="translate(-173.6 -276)" fill="#002a4e"/>
      <path id="Path_694" data-name="Path 694" d="M229.235,299.933c0-2.445-.419-7.474-5.379-7.474-4.68,0-5.169,4.96-5.169,7.474,0,6.427,3.632,7.2,5.379,7.2,4.471,0,5.169-4.75,5.169-7.2m-10.548,18.162a3.086,3.086,0,0,1-3.143,3.143H212.4V298.186c.349-6.147,2.585-11.037,11.945-11.386a11.214,11.214,0,0,1,8.662,3.7c1.886,2.445,2.654,5.379,2.654,9.151,0,3.912-.908,7.055-2.794,9.43a8.668,8.668,0,0,1-7.125,3.493,11.351,11.351,0,0,1-7.055-2.165v7.684" transform="translate(-185.296 -280.035)" fill="#002a4e"/>
      <path id="Path_695" data-name="Path 695" d="M259.356,307.088c-1.607-.07-4.61-.419-4.89-5.728h16v-1.886c-.14-3.982-1.048-6.985-2.934-9.221q-3.039-3.353-8.592-3.353a10.115,10.115,0,0,0-8.173,3.423c-1.886,2.235-2.864,5.309-2.864,9.221,0,4.121.978,7.265,2.934,9.5a10.115,10.115,0,0,0,8.173,3.423,11.862,11.862,0,0,0,7.2-2.1,10.31,10.31,0,0,0,3.912-5.938H264.6c-.908,2.305-3,2.794-5.239,2.654m-.279-14.809c3.982-.07,4.61,3.353,4.68,4.96h-9.43c.07,0,0-4.89,4.75-4.96" transform="translate(-198.644 -279.647)" fill="#002a4e"/>
      <path id="Path_696" data-name="Path 696" d="M298.436,304.463h6.077a10.64,10.64,0,0,1-10.827,8.033c-9.151,0-11.386-7.335-11.386-12.155s.838-13.063,11.037-13.342c9.43-.14,10.967,8.033,10.967,8.033h-6.427s-.629-2.794-4.471-2.654c-3.842.07-4.82,3.7-4.82,7.125s.838,7.684,5.1,7.684c3.982.07,4.331-2.1,4.75-2.724" transform="translate(-210.231 -279.678)" fill="#002a4e"/>
      <path id="Path_697" data-name="Path 697" d="M322.427,291.161H326.2v-6.5h-3.772v-4.121a2.98,2.98,0,0,0-3.074-3.143H316v27.1c0,2.794,1.118,4.541,3.493,4.541h2.864Z" transform="translate(-221.27 -276.422)" fill="#002a4e"/>
      <path id="Path_698" data-name="Path 698" d="M337.5,312.218V299.574a5.631,5.631,0,0,1,1.257-4.052,5.445,5.445,0,0,1,3.982-1.257h2.1V287.7a22.971,22.971,0,0,0-5.728.629,13.352,13.352,0,0,0-4.121,2.026,10.506,10.506,0,0,0-2.934,3.912A15.176,15.176,0,0,0,331,300.273v11.875h6.5Z" transform="translate(-226.393 -279.891)" fill="#002a4e"/>
      <path id="Path_699" data-name="Path 699" d="M353.5,287.7h6.427v15.158a3.923,3.923,0,0,0,4.261,4.128,3.965,3.965,0,0,0,4.331-3.925V290.678s.21-2.978,3-2.978h3.353v14.076c-.07.744.838,10.083-10.688,10.083-11.456,0-10.618-9.474-10.688-10.015Z" transform="translate(-234.196 -279.527)" fill="#002a4e"/>
      <path id="Path_700" data-name="Path 700" d="M408.215,312.017h-6.427V296.23c0-1.816-.768-4.261-4.331-4.261a3.994,3.994,0,0,0-4.261,4.261v15.787h-6.5v-14.46c0-4.191,1.257-6.776,3.283-8.452s4.61-2.165,7.265-2.305a17.174,17.174,0,0,1,4.191.489,8.15,8.15,0,0,1,3.7,1.886,8.728,8.728,0,0,1,3.283-1.746,14.768,14.768,0,0,1,3.912-.629c7.893-.07,11.107,3.563,11.316,4.75v20.467h-3.632a3.1,3.1,0,0,1-3.143-3.143V296.3c0-1.816-.629-4.261-4.331-4.261a3.974,3.974,0,0,0-4.331,4.261Z" transform="translate(-246.945 -279.606)" fill="#002a4e"/>
      <path id="Path_701" data-name="Path 701" d="M442.3,293.6V314l13.482-10.2Z" transform="translate(-263.706 -281.749)" fill="#0099d8"/>
    </g>
    <g id="Group_31" data-name="Group 31" transform="translate(89.543 34.179)">
      <text id="RESELLER" transform="translate(28 23.821)" fill="#002a4e" font-size="11" font-family="Arial-BoldMT, Arial" font-weight="700"><tspan x="0" y="0">RESELLER</tspan></text>
      <text id="AUTHORIZED" transform="translate(15 11.821)" fill="#002a4e" font-size="11" font-family="Arial-BoldMT, Arial" font-weight="700"><tspan x="0" y="0">AUTHORIZED</tspan></text>
    </g>
  </g>
</svg>
