<svg xmlns="http://www.w3.org/2000/svg" xmlns:xlink="http://www.w3.org/1999/xlink" width="430.15" height="60" viewBox="0 0 430.15 60">
  <defs>
    <clipPath id="clip-path">
      <path id="Path_825" data-name="Path 825" d="M69.32,392.927l2.96,9.344H62.123Zm69.1-7.6c-3.957.436-6.73,1.62-8.287,3.613l-13.116,16.6-2.056-16.6c-.249-1.962-2.305-3.177-6.169-3.613-1.09-.093-2.15-.156-3.24-.156a20.093,20.093,0,0,0-8.287,1.526c-2.274,1-3.676,2.305-4.175,3.925l-5.7,18.44L80.972,389.1c-.81-2.554-3.645-3.831-8.474-3.831q-7.337,0-10.935,3.831l-17.852,19H21.217c-2.087-.093-2.96-.748-2.617-1.931l1-3.177H39.847l1.932-6.23H21.559l1-3.208c.249-.841,1.122-1.4,2.586-1.682a5.945,5.945,0,0,0,.841-.156H48.29l1.9-6.136H24.612q-10.141,0-13.272,4.953a4.332,4.332,0,0,0-.623,1.277l-5.172,16.54c-1.246,3.987,2.742,5.98,11.9,5.98H50.814l5.826-6.23H74.149l1.994,6.23H97.578l6.356-20.62,3.521,17.35c.53,2.616,2.835,3.925,6.948,3.925,3.24,0,5.795-.716,7.6-2.149a8.112,8.112,0,0,0,1.838-1.744l14.3-17.35-6.356,20.62h11.746l7.322-23.766a3.666,3.666,0,0,0,.156-.966v-.156a3.327,3.327,0,0,0-1.932-2.772c-1.651-1-4.081-1.526-7.29-1.526-1.059,0-2.212.062-3.365.156M-21.56,391.712H-9.253a2.261,2.261,0,0,1,.779.093q2.944.234,2.524,1.682l-.81,2.648c-.312,1.059-1.589,1.589-3.77,1.589H-23.4ZM-81,380l-17.478,11.867-6.823-6.354h-17.2l14.83,12.584L-131.6,414.325h15.578l15.64-10.03,11.808,10.03h14.269l-17.042-15.854,16.98-10.9-1.277,4.143h12.306l-6.979,22.614h12.369l6.979-22.614h17.011l-6.979,22.614h12.4l3.676-11.867,10.9,11.867H.654l-10.717-11.431,1.9.093c.53,0,1.246-.031,2.181-.093a20.7,20.7,0,0,0,6.325-1.37q4.019-1.589,4.86-4.392l1.776-5.762c1.215-3.893-2.181-5.825-10.094-5.825H-71.19L-62.5,380Z" transform="translate(131.6 -380)" fill="#0a0d03"/>
    </clipPath>
  </defs>
  <g id="Xtream-logo" transform="translate(1117.2 -1394.771)">
    <g id="Group_300" data-name="Group 300" transform="translate(-1117.2 1394.771)">
      <g id="Group_294" data-name="Group 294" transform="translate(0 0)" clip-path="url(#clip-path)">
        <rect id="Rectangle_193" data-name="Rectangle 193" width="282.641" height="34.979" transform="translate(0 1)" fill="#0a0d03"/>
      </g>
    </g>
    <g id="Group_301" data-name="Group 301" transform="translate(-1006.718 1434.991)">
      <path id="Path_826" data-name="Path 826" d="M247.5,537.4H246v10.32h1.342v-3.483h.192c1.949-.032,3.131-1.31,3.131-3.451-.032-2.109-1.214-3.387-3.163-3.387m1.789,3.419c0,1.342-.607,2.109-1.725,2.141h-.224v-4.281h.224c1.118,0,1.725.735,1.725,2.141" transform="translate(-246 -529.349)" fill="#0a0d03"/>
      <path id="Path_827" data-name="Path 827" d="M265.72,537c-1.661,0-2.62,1.917-2.62,5.112v.319c0,3.2.991,5.112,2.62,5.112s2.62-1.917,2.62-5.112v-.319c-.032-3.2-.99-5.112-2.62-5.112m1.246,5.112v.319c0,2.844-.671,3.834-1.278,3.834-.575,0-1.278-1.022-1.278-3.834v-.319c0-2.844.671-3.834,1.278-3.834s1.278.99,1.278,3.834" transform="translate(-257.636 -529.076)" fill="#0a0d03"/>
      <path id="Path_828" data-name="Path 828" d="M286.675,544.174l-1.182-6.773h-1.214l-1.182,6.773-.991-6.773H280.7l1.725,10.352h1.246l1.214-6.837,1.182,6.837h1.278l1.725-10.352H287.7Z" transform="translate(-269.613 -529.349)" fill="#0a0d03"/>
      <path id="Path_829" data-name="Path 829" d="M310.642,543.151h2.3v-1.31h-2.3v-3.163H313.2V537.4h-3.9v10.288h3.93V546.41h-2.588Z" transform="translate(-289.075 -529.349)" fill="#0a0d03"/>
      <path id="Path_830" data-name="Path 830" d="M329.865,540.5a2.883,2.883,0,0,0-3.1-3.2H325.2v10.32h1.342v-3.834h.511l1.6,3.834h1.5l-1.757-4.249a3.042,3.042,0,0,0,1.47-2.876m-1.342.064c0,1.278-.607,1.981-1.725,1.981h-.256v-3.93h.192c1.182,0,1.789.639,1.789,1.949" transform="translate(-299.895 -529.28)" fill="#0a0d03"/>
      <path id="Path_831" data-name="Path 831" d="M344.242,543.151h2.3v-1.31h-2.3v-3.163h2.524V537.4H342.9v10.288h3.93V546.41h-2.588Z" transform="translate(-311.94 -529.349)" fill="#0a0d03"/>
      <path id="Path_832" data-name="Path 832" d="M359.9,537.4h-1.5v10.32h1.5c2.141,0,3.451-1.885,3.451-5.016v-.319c0-3.131-1.31-4.984-3.451-4.984m2.077,4.984v.288c0,2.4-.735,3.738-2.013,3.738h-.192v-7.764h.192c1.246,0,2.013,1.406,2.013,3.738" transform="translate(-322.488 -529.349)" fill="#0a0d03"/>
      <path id="Path_833" data-name="Path 833" d="M387.827,542.448a2.454,2.454,0,0,0,1.31-2.364,2.7,2.7,0,0,0-3-2.684H384.6v10.32h1.342c2.045,0,3.291-1.086,3.291-2.876a2.352,2.352,0,0,0-1.406-2.4m.1,2.364c0,1.374-1.182,1.6-1.885,1.6h-.064v-3.291h.16a1.576,1.576,0,0,1,1.789,1.693m-1.949-2.939v-3.2h.224a1.445,1.445,0,0,1,1.6,1.534,1.519,1.519,0,0,1-1.725,1.661Z" transform="translate(-340.317 -529.349)" fill="#0a0d03"/>
      <path id="Path_834" data-name="Path 834" d="M403.322,537.4l-1.342,4.026-1.342-4.026H399.2l2.109,5.943v4.345h1.342v-4.345L404.7,537.4Z" transform="translate(-350.252 -529.349)" fill="#0a0d03"/>
      <path id="Path_835" data-name="Path 835" d="M701.2,529.2l-3,.831c.351.607.479,1.406.447,3.259l-.032,8.882h3.259l.032-9.266a3.581,3.581,0,0,1,2.2-.959c.927,0,1.15.383,1.118,1.949l-.032,8.275h3.163l.032-9.138a3.863,3.863,0,0,1,2.2-1.054c.863,0,1.054.288,1.054,1.821l-.032,8.4h3.227l.032-9.042c0-1.725-.224-2.492-.927-3.1a3.819,3.819,0,0,0-2.492-.8,4.716,4.716,0,0,0-3.61,1.661,3.212,3.212,0,0,0-.511-.607,3.419,3.419,0,0,0-2.588-1.054,4.508,4.508,0,0,0-3.131,1.278,2.881,2.881,0,0,0-.415-1.342" transform="translate(-553.72 -523.768)" fill="#0a0d03"/>
      <path id="Path_836" data-name="Path 836" d="M625.4,535.469c-.032,4.122,2.013,6.55,5.527,6.55a6.038,6.038,0,0,0,3.1-.8,5.759,5.759,0,0,0,1.182-.958l-1.5-2.013-.192.16a3.412,3.412,0,0,1-2.3,1.054,1.957,1.957,0,0,1-1.5-.735,5.47,5.47,0,0,1-.639-3.2c0-2.971.671-4.281,2.173-4.281a3.308,3.308,0,0,1,2.013.99l1.63-2.173a5.207,5.207,0,0,0-3.706-1.47,6.124,6.124,0,0,0-3.163.958c-1.5,1.054-2.62,2.972-2.62,5.911" transform="translate(-504.179 -523.36)" fill="#0a0d03"/>
      <path id="Path_837" data-name="Path 837" d="M572.687,528.9l-3.323.543-.064,12.493h3.323Z" transform="translate(-466.004 -523.564)" fill="#0a0d03"/>
      <path id="Path_838" data-name="Path 838" d="M442.442,532.817h3.419l-1.47-17.285H439.95l-2.364,8.563a28.762,28.762,0,0,0-.639,2.812,22.5,22.5,0,0,0-.575-2.748l-2.237-8.659h-4.441L428,532.785h3.451l.639-9.042c.1-1.086.128-2.077.128-3.1.16.99.447,2.2.671,3.067l2.428,9.074h2.971l2.78-9.457c.32-1.054.447-1.661.671-2.652,0,.927.032,1.789.1,2.876Z" transform="translate(-369.85 -514.446)" fill="#0a0d03"/>
      <path id="Path_839" data-name="Path 839" d="M597.2,538.01v-.224l.1-4.281a5.539,5.539,0,0,0-.224-2.3c-.479-1.406-1.949-2.2-4.09-2.2a8.751,8.751,0,0,0-3.483.735,11.422,11.422,0,0,0-2.077,1.054l1.406,2.4a7,7,0,0,1,3.674-1.438c1.214,0,1.5.479,1.47,1.885v.511a6.171,6.171,0,0,0-.735-.032c-4.058,0-6.135,1.406-6.135,4.377,0,2.524,1.534,3.994,4.345,3.994a4.332,4.332,0,0,0,2.556-.7,4.8,4.8,0,0,0,.767-.671,3.563,3.563,0,0,0,1.789,1.534l1.789-2.045a2.591,2.591,0,0,1-1.15-2.588m-3.323,1.15a2.446,2.446,0,0,1-1.757.863,1.519,1.519,0,0,1-1.47-1.661c0-1.5.8-1.949,3.131-1.949h.16Z" transform="translate(-478.117 -523.632)" fill="#0a0d03"/>
      <path id="Path_840" data-name="Path 840" d="M497.926,536.768V536c0-2.652-.511-4.377-1.661-5.559a5.131,5.131,0,0,0-3.674-1.342,4.92,4.92,0,0,0-3.994,1.725,6.955,6.955,0,0,0-1.6,5.048c-.032,3.994,2.332,6.582,5.975,6.582a7.347,7.347,0,0,0,4.793-1.757l-1.278-1.981A4.942,4.942,0,0,1,493.262,540c-1.725,0-2.684-1.118-2.684-3.067v-.1h7.349Zm-7.317-2.492c0-1.757.735-2.748,2.013-2.748a1.644,1.644,0,0,1,1.47.735,3.378,3.378,0,0,1,.383,1.917v.16H490.61Z" transform="translate(-409.998 -523.7)" fill="#0a0d03"/>
      <path id="Path_841" data-name="Path 841" d="M536.494,525.939l.064-13.228-3.291-.511-.032,4.377a13.009,13.009,0,0,0,.1,1.885,3.344,3.344,0,0,0-2.268-.735c-3.227,0-5.464,2.748-5.464,6.71-.032,3.962,2.013,6.454,5.24,6.454a4.368,4.368,0,0,0,2.94-1.054,1.864,1.864,0,0,0,.192.735h2.971c-.192-.479-.447-1.5-.447-4.633m-3.259,1.342a2.454,2.454,0,0,1-1.661.831c-1.725,0-2.3-.895-2.3-3.642,0-2.844.671-4.09,2.141-4.09a2.844,2.844,0,0,1,1.821.831Z" transform="translate(-436.265 -512.2)" fill="#0a0d03"/>
      <path id="Path_842" data-name="Path 842" d="M667.464,531.017a5.337,5.337,0,0,0-4.313-1.917c-3.419,0-5.719,2.652-5.751,6.678-.032,3.994,2.237,6.582,5.687,6.582A5.3,5.3,0,0,0,667.3,540.6a7.131,7.131,0,0,0,1.629-4.92,6.6,6.6,0,0,0-1.47-4.665m-4.25,8.914a1.841,1.841,0,0,1-1.693-1.054,9.343,9.343,0,0,1-.415-3.2,9.076,9.076,0,0,1,.352-2.844,1.8,1.8,0,0,1,1.725-1.278,1.776,1.776,0,0,1,1.438.671,5.953,5.953,0,0,1,.671,3.419c-.032,3-.639,4.281-2.077,4.281" transform="translate(-525.955 -523.7)" fill="#0a0d03"/>
      <path id="Path_843" data-name="Path 843" d="M759.952,559.347a1.6,1.6,0,0,0-1.118-.447,1.521,1.521,0,0,0-1.086.447,1.578,1.578,0,0,0-.447,1.086,1.6,1.6,0,0,0,.447,1.118,1.4,1.4,0,0,0,1.086.447,1.6,1.6,0,0,0,1.118-.447,1.469,1.469,0,0,0,.447-1.118,1.4,1.4,0,0,0-.447-1.086m-.16,2.045a1.39,1.39,0,1,1,.383-.958,1.3,1.3,0,0,1-.383.958" transform="translate(-593.937 -543.979)" fill="#0a0d03"/>
      <path id="Path_844" data-name="Path 844" d="M761.51,562.53v-.256l-.1-.256a.335.335,0,0,0-.288-.16c.1-.032.192-.032.256-.1a.412.412,0,0,0,.16-.351.475.475,0,0,0-.256-.447,1.557,1.557,0,0,0-.479-.064H760.2v1.725h.288v-.671h.224a.855.855,0,0,1,.352.064.436.436,0,0,1,.16.383v.256h.288v-.128Zm-.447-.8a.709.709,0,0,1-.288.032h-.288v-.607h.256a1.192,1.192,0,0,1,.383.064.286.286,0,0,1,.128.256c0,.128-.064.192-.192.255" transform="translate(-595.91 -545.34)" fill="#0a0d03"/>
      <path id="Path_845" data-name="Path 845" d="M572.77,515.985a1.885,1.885,0,1,1-1.885-1.885,1.888,1.888,0,0,1,1.885,1.885" transform="translate(-465.8 -513.493)" fill="#0a0d03"/>
    </g>
    <g id="Group_305" data-name="Group 305" transform="translate(-823.049 1396.459)">
      <rect id="Rectangle_196" data-name="Rectangle 196" width="3" height="58.312" transform="translate(0 0)" fill="#0a0d03"/>
      <text id="AUTHORIZED" transform="translate(13 25)" fill="#0a0d03" font-size="19" font-family="BrandonGrotesque-Regular, Brandon Grotesque" letter-spacing="0.022em"><tspan x="0" y="0">AUTHORIZED</tspan></text>
      <text id="RETAILER" transform="translate(12 45.313)" fill="#0a0d03" font-size="19" font-family="BrandonGrotesque-Regular, Brandon Grotesque" letter-spacing="0.022em"><tspan x="0" y="0">RETAILER</tspan></text>
    </g>
  </g>
</svg>
