<svg xmlns="http://www.w3.org/2000/svg" width="235.428" height="60" viewBox="0 0 235.428 60">
  <g id="ziplyfiber-logo" transform="translate(-193.002 97.768)">
    <g id="g4754" transform="translate(193.002 -97.768)">
      <path id="path4715" d="M831.031,142.232l10.8,27.588L836.3,184.636h7.891l15.918-42.4h-7.891l-6.509,17.34-6.791-17.34Z" transform="translate(-745.342 -127.914)" fill="#2c963e"/>
      <path id="path4713" d="M300,142.232V172.2h7.931V142.232Z" transform="translate(-268.915 -127.216)" fill="#2c963e"/>
      <path id="path4711" d="M0,142.23v7.234H15.539L0,168.3v3.9H28.183v-7.234H12.689l15.494-18.84v-3.9Z" transform="translate(-0.002 -127.215)" fill="#2c963e"/>
      <path id="path4709" d="M426.49,137.911a17.224,17.224,0,0,0-2.688.185,17.024,17.024,0,0,0-5.467,2.03l-.4.254v-2.012H410V184.05h7.931V167.013l.449.28a16.656,16.656,0,0,0,5.314,2.024,18.769,18.769,0,0,0,5.869-.06,15.841,15.841,0,0,0,11.248-22.322,13.082,13.082,0,0,0-1.792-2.909,15.892,15.892,0,0,0-9.879-5.936,16.518,16.518,0,0,0-2.652-.178Zm-.1,7.366a7.622,7.622,0,0,1,6.389,3.425,8.744,8.744,0,0,1,1.413,4.577,8.2,8.2,0,0,1-4.345,7.985,8.945,8.945,0,0,1-1.739.633,10.814,10.814,0,0,1-3.932-.057,7.286,7.286,0,0,1-3.438-1.95,9.5,9.5,0,0,1-1.245-1.535,9.883,9.883,0,0,1-1.117-5.6,8.118,8.118,0,0,1,.9-3.259,7.519,7.519,0,0,1,5.973-4.159,8.557,8.557,0,0,1,1.137-.062Zm-3.81,30.023h0Z" transform="translate(-367.768 -124.05)" fill="#2c963e"/>
      <path id="path901" d="M735,.232V45.914h7.931V.232Z" transform="translate(-658.84 -0.232)" fill="#2c963e"/>
      <ellipse id="path4628" cx="4.673" cy="4.692" rx="4.673" ry="4.692" transform="translate(30.385 0.538)" fill="#00bce9"/>
    </g>
    <g id="g4746" transform="translate(311.729 -94.145)">
      <path id="path4723" d="M655.506,580.232v28.947h4.373V580.232Z" transform="translate(-634.034 -567.335)" fill="#00bce9"/>
      <path id="path4721" d="M884.4,577.414a13.389,13.389,0,0,0-3.528.551,14.035,14.035,0,0,0-7.1,5.531c-4.064,6.2-3.2,15.368,1.9,20.112a13.632,13.632,0,0,0,6.014,3.437,11.264,11.264,0,0,0,4.046.495,18.03,18.03,0,0,0,3.228-.185c.352-.111,1.253-.394,2-.628a13.87,13.87,0,0,0,5.308-3.245l1.421-1.326-1-.892c-1.77-1.574-1.849-1.6-2.648-.8a11.973,11.973,0,0,1-9.8,3.177,10.179,10.179,0,0,1-7.2-5,11.16,11.16,0,0,1-1.289-4.03v-.587h22.97l-.137-2.266a18.247,18.247,0,0,0-1.83-7.314A10.775,10.775,0,0,0,894.2,581a11.214,11.214,0,0,0-6.016-3.363A16.089,16.089,0,0,0,884.4,577.414Zm.666,3.716a8.6,8.6,0,0,1,3.651.645,9.854,9.854,0,0,1,4.036,4.019,13.752,13.752,0,0,1,1.323,4.439v.455H875.588l.288-1.406a10.6,10.6,0,0,1,5.412-7.368,9.257,9.257,0,0,1,3.774-.784Z" transform="translate(-803.828 -565.087)" fill="#00bce9"/>
      <path id="path4719" d="M1045.035,576.957l-1.349.138a12.086,12.086,0,0,0-5.226,1.755,16.83,16.83,0,0,0-4.425,4.643l-.663,1.138v-6.993H1029v28.947h4.373v-6.854c0-7.944.151-9.172,1.45-11.809a10.755,10.755,0,0,1,9.327-6.115l.885,0v-4.847Z" transform="translate(-928.334 -564.742)" fill="#00bce9"/>
      <path id="path4717" d="M712,522.232V564h4.373v-5.6c.043,0,.9,1.258,1.8,2.172a11.812,11.812,0,0,0,5.384,3.468,9.655,9.655,0,0,0,3.713.583,13.97,13.97,0,0,0,12.12-7.414,15.325,15.325,0,0,0,1.721-7.317,15.468,15.468,0,0,0-5.368-13.058,12.958,12.958,0,0,0-13.641-1.79,14.018,14.018,0,0,0-4.686,3.8c-.4.533-.955,1.534-1.041,1.539V522.232Zm14.207,15.7a9.451,9.451,0,0,1,3.341.394,10.4,10.4,0,0,1,6.738,7.331,17.062,17.062,0,0,1,.008,7.173c-1.234,4.16-3.943,6.85-7.611,7.558a9.911,9.911,0,0,1-9.1-2.785c-5.7-5.577-3.927-15.977,3.243-18.976a10.2,10.2,0,0,1,3.38-.7Z" transform="translate(-678.429 -522.168)" fill="#00bce9"/>
      <path id="path4728" d="M567.018,521.926c-2.708-.038-4.411.441-5.935,1.672-2.108,1.7-3.124,3.709-3.124,7.723v2.969H554v3.817h3.957v25.661h4.373V538.107H571.5V534.29h-9.163v-2.219c0-3.4.789-5.1,2.753-5.935a9.891,9.891,0,0,1,4.953-.012c.63.172,1.458.466,1.458.466v-4.025l-1.145-.313a17.414,17.414,0,0,0-3.332-.326Z" transform="translate(-554.002 -521.924)" fill="#00bce9"/>
      <circle id="path4636" cx="3.02" cy="3.02" r="3.02" transform="translate(20.627 0.354)" fill="#00bce9"/>
    </g>
  </g>
</svg>
